<?xml version="1.0" encoding="UTF-8" standalone="no"?>
<!-- Created with Inkscape (http://www.inkscape.org/) -->

<svg
   width="420.46707"
   height="184.75067"
   viewBox="0 0 111.24858 48.881948"
   version="1.1"
   id="svg1"
   inkscape:version="1.4.2 (1:1.4.2+202505120737+ebf0e940d0)"
   sodipodi:docname="src_blog.svg"
   xmlns:inkscape="http://www.inkscape.org/namespaces/inkscape"
   xmlns:sodipodi="http://sodipodi.sourceforge.net/DTD/sodipodi-0.dtd"
   xmlns="http://www.w3.org/2000/svg"
   xmlns:svg="http://www.w3.org/2000/svg">
  <sodipodi:namedview
     id="namedview1"
     pagecolor="#ffffff"
     bordercolor="#000000"
     borderopacity="0.25"
     inkscape:showpageshadow="2"
     inkscape:pageopacity="0.0"
     inkscape:pagecheckerboard="0"
     inkscape:deskcolor="#d1d1d1"
     inkscape:document-units="px"
     inkscape:zoom="0.78484147"
     inkscape:cx="396.25837"
     inkscape:cy="561.25984"
     inkscape:window-width="1854"
     inkscape:window-height="1131"
     inkscape:window-x="0"
     inkscape:window-y="0"
     inkscape:window-maximized="1"
     inkscape:current-layer="layer1">
    <inkscape:page
       x="0"
       y="0"
       width="111.24858"
       height="48.881947"
       id="page2"
       margin="0"
       bleed="0" />
  </sodipodi:namedview>
  <defs
     id="defs1">
    <rect
       x="124.86598"
       y="558.07446"
       width="322.35809"
       height="40.772564"
       id="rect11" />
  </defs>
  <g
     inkscape:label="Layer 1"
     inkscape:groupmode="layer"
     id="layer1"
     transform="translate(-19.889894,-112.93418)">
    <ellipse
       id="path3"
       style="fill:#0000ff;stroke:#0000ff;stroke-width:0.264583"
       cx="34.316395"
       cy="142.82072"
       rx="0.0020360672"
       ry="0.0021117856"
       transform="rotate(-3.6549932)" />
    <ellipse
       id="path5"
       style="fill:#0000ff;stroke:#0000ff;stroke-width:0.264583"
       cx="43.640797"
       cy="137.74733"
       rx="0.0020360672"
       ry="0.0021117856"
       transform="rotate(-3.6549932)" />
    <ellipse
       id="path6"
       style="fill:#0000ff;stroke:#0000ff;stroke-width:0.264583"
       cx="43.640797"
       cy="137.74733"
       rx="0.0020360672"
       ry="0.0021117856"
       transform="rotate(-3.6549932)" />
    <rect
       style="fill:none;stroke:none;stroke-width:0.264583;stroke-linejoin:round"
       id="rect12"
       width="111.24858"
       height="48.881947"
       x="19.889896"
       y="112.93417" />
    <path
       style="fill:#0000ff;stroke:#0000ff;stroke-width:0.0264583;stroke-linejoin:round"
       id="path2"
       d="m 25.792205,122.58639 c 0.05565,0.59801 0.09006,1.20296 0.258224,1.78297 0.132337,0.45644 0.270995,0.73053 0.461583,1.1602 0.47548,1.00012 1.141527,1.76275 2.037981,2.3665 1.367007,0.78706 2.12684,1.19023 3.551333,1.26976 0.36546,0.0309 0.724467,-0.009 1.083984,-0.0696 0.07898,-0.0131 0.164287,-0.005 0.236728,-0.0409 0.08941,-0.0431 0.156507,-0.12422 0.23476,-0.18633 0.430287,-0.57541 0.967954,-1.05468 1.474027,-1.55693 0.424807,-0.43726 0.721525,-0.86297 0.940842,-1.44128 0.23207,-0.62823 0.255095,-1.32373 0.232694,-1.99074 -0.07151,-0.51837 -0.316471,-1.03157 -0.789087,-1.27735 -0.608485,-0.31644 -1.228046,-0.60926 -1.842069,-0.91389 -0.61457,-0.13862 -1.248298,-0.1013 -1.870741,-0.0645 -0.793467,0.0537 -1.479233,0.43944 -2.1364,0.86721 -0.115154,0.0844 -0.239325,0.15698 -0.345462,0.25324 -0.263388,0.23888 -0.483797,0.52508 -0.741927,0.77004 -0.455519,0.43229 -0.93572,0.83691 -1.396246,1.26362 -0.585456,0.55834 -1.215844,1.12386 -1.625885,1.84454 -0.06546,0.11507 -0.112158,0.2406 -0.168239,0.36089 -0.282496,0.60842 -0.363564,1.26732 -0.384061,1.93435 0.03048,0.80991 0.190671,1.31538 0.64472,1.97004 0.385731,0.51551 0.835008,0.9621 1.361484,1.31753 1.149385,0.66583 2.342298,1.25187 3.593357,1.67457 0.525192,0.21467 1.056751,0.41777 1.61338,0.52144 0.304593,0.0204 0.558604,-0.14297 0.834151,-0.2436 1.034605,-0.46255 0.898375,-0.0797 -1.027766,-1.17536 -0.584725,0.14649 -1.163332,0.31731 -1.733635,0.51566 -0.660196,0.26724 -1.290305,0.61356 -1.857372,1.05411 -0.680299,0.57821 -1.366038,1.15615 -2.009931,1.77788 -0.736408,0.69419 -1.31793,1.51866 -1.690963,2.47428 -0.157889,0.56242 -0.358391,1.14462 -0.222704,1.73802 0.03109,0.13598 0.08431,0.26557 0.12647,0.39835 0.385088,0.84831 0.966477,1.5746 1.550062,2.28263 0.4613,0.5541 0.934558,1.10302 1.512759,1.52761 1.006735,0.59187 2.043391,1.26407 3.206673,1.43449 0.556852,0.0646 1.114045,0.0616 1.671806,0.0243 0.481442,-0.041 0.96293,-0.081 1.444856,-0.11574 0.515029,-0.0279 0.846298,-0.026 1.237535,-0.41093 0.278126,-0.36589 0.26229,-0.85005 0.263996,-1.29492 -0.02281,-0.34216 -0.03465,-0.66631 0.10332,-0.98224 0.191749,-0.31979 0.483456,-0.55137 0.696452,-0.85676 0.0248,-0.0495 0.04958,-0.099 0.07437,-0.14839 0,0 -1.608069,-0.82925 -1.608069,-0.82925 v 0 c -0.01871,0.0412 -0.03744,0.0823 -0.05615,0.12351 -0.221236,0.31401 -0.533342,0.54686 -0.717037,0.88902 -0.156316,0.3672 -0.169216,0.65919 -0.129604,1.057 0.0083,0.38953 0.04564,0.8321 -0.199135,1.15421 -0.333065,0.29141 -0.75677,0.28297 -1.175019,0.30826 -0.479957,0.0387 -0.959663,0.0807 -1.439874,0.11623 -0.548822,0.0331 -1.099273,0.0241 -1.644981,-0.0566 -0.254527,-0.0527 -0.294321,-0.0523 -0.538201,-0.13625 -0.572769,-0.19715 -1.773475,-0.84186 0.762934,0.44996 0.09163,0.0467 -0.179067,-0.10179 -0.2686,-0.15269 -0.604544,-0.38805 -1.078161,-0.93497 -1.545037,-1.48567 -0.578458,-0.69422 -1.165076,-1.39467 -1.569643,-2.21729 -0.04323,-0.12103 -0.09619,-0.23882 -0.129694,-0.36308 -0.151657,-0.56254 0.03149,-1.11581 0.173057,-1.6561 0.352954,-0.95033 0.909209,-1.72956 1.642472,-2.40795 0.653938,-0.60508 1.328582,-1.18906 2.017018,-1.75136 0.565879,-0.41586 1.182348,-0.7548 1.834763,-1.00261 0.583603,-0.19797 1.176074,-0.35895 1.774131,-0.5022 -1.688518,-1.07656 -1.030621,-1.1478 -2.076307,-0.73312 -0.252698,0.10342 -0.493514,0.22344 -0.77457,0.1612 -0.54105,-0.12306 -1.059454,-0.32304 -1.577554,-0.52462 -0.360438,-0.12954 -0.716707,-0.26787 -1.069368,-0.41921 -0.116118,-0.0498 -0.457466,-0.21537 -0.34647,-0.15419 0.338015,0.18634 1.898489,0.98425 0.963032,0.50536 -0.540779,-0.32573 -0.997644,-0.75225 -1.393378,-1.25593 -0.152824,-0.20225 -0.27199,-0.33969 -0.386541,-0.56711 -0.198816,-0.39472 -0.268668,-0.84747 -0.292666,-1.2855 0.009,-0.64298 0.075,-1.2802 0.341157,-1.86973 0.396429,-0.86254 1.048509,-1.53417 1.733988,-2.15868 0.46,-0.43117 0.938955,-0.838 1.402026,-1.26533 0.256821,-0.23699 0.483563,-0.50856 0.748489,-0.73578 0.106648,-0.0915 0.228491,-0.16208 0.342736,-0.24311 0.649781,-0.40565 1.319972,-0.76229 2.098976,-0.78382 0.613434,-0.0247 1.242504,-0.0621 1.837184,0.13168 -3.015084,-1.62343 -1.133805,-0.69833 -0.833112,-0.38572 0.211013,0.21937 0.329274,0.49139 0.382248,0.79239 0.04156,0.64282 0.01476,1.31139 -0.208099,1.91797 -0.198845,0.54388 -0.506416,0.96313 -0.900937,1.37405 -0.49248,0.50375 -1.008789,0.98513 -1.465231,1.52476 -0.06632,0.0388 -0.126933,0.0907 -0.198965,0.11645 -0.07491,0.0268 -0.15651,0.0267 -0.234961,0.0389 -0.350279,0.0538 -0.701994,0.0704 -1.056009,0.041 -0.308279,-0.0276 -0.609611,-0.0641 -0.912264,-0.13503 -0.597501,-0.13998 -1.865835,-0.71341 0.51441,0.43204 -0.936761,-0.5655 -1.584618,-1.27786 -2.093605,-2.27597 -0.193634,-0.41505 -0.335046,-0.67937 -0.468505,-1.12182 -0.169192,-0.56089 -0.2054,-1.14887 -0.21401,-1.73142 z" />
    <path
       style="fill:#0000ff;stroke:#0000ff;stroke-width:0.0264583;stroke-linejoin:round"
       id="path4"
       d="m 41.84009,134.9958 c -0.344849,0.17036 -0.74285,0.2373 -1.071696,0.4441 -0.127999,0.0805 -0.396711,0.33032 -0.512406,0.43435 -0.574313,0.58489 -0.910115,1.35034 -1.202407,2.11626 -0.174429,0.59087 -0.363407,1.18011 -0.485914,1.78575 -0.124694,0.55586 -0.180372,1.12281 -0.193694,1.69275 -0.01514,0.59468 0.100831,1.17345 0.305913,1.72652 0.202386,0.48423 0.443249,0.95763 0.721649,1.40031 0.315563,0.46154 0.698439,0.86137 1.120754,1.21678 0.886968,0.66369 1.877255,1.26285 2.973692,1.37865 0.374216,-0.007 0.75858,0.0228 1.131042,-0.0271 0.235916,-0.0316 0.469478,-0.10685 0.697583,-0.17112 0.611994,-0.16842 1.215333,-0.37872 1.785601,-0.66437 0.348835,-0.20967 0.70147,-0.40651 0.978719,-0.71363 0.241497,-0.42344 0.404197,-0.9004 0.552284,-1.36825 0.07687,-0.27901 0.101278,-0.56755 0.117004,-0.85605 0,0 -1.63406,-0.75673 -1.63406,-0.75673 v 0 c -0.0086,0.27371 -0.02423,0.54798 -0.09377,0.81356 -0.132026,0.44271 -0.283272,0.89815 -0.520009,1.29067 -0.269429,0.28035 -0.612507,0.46357 -0.941012,0.65995 -0.561219,0.27371 -1.147301,0.49116 -1.750613,0.64389 -0.594918,0.14316 -1.200294,0.19466 -1.811101,0.12872 -0.192177,-0.0307 -0.266019,-0.0353 -0.454508,-0.0951 -0.07587,-0.024 -0.293534,-0.12357 -0.223624,-0.0846 2.510519,1.39994 1.393249,0.76808 0.87588,0.41028 -0.425112,-0.33946 -0.811755,-0.71431 -1.134028,-1.16243 -0.292972,-0.42346 -0.523849,-0.8968 -0.740361,-1.36509 -0.21576,-0.52772 -0.345256,-1.07985 -0.329778,-1.65656 0.0072,-0.55976 0.04971,-1.11819 0.177176,-1.6635 0.115741,-0.59752 0.301272,-1.17884 0.46415,-1.76347 0.266701,-0.74714 0.5922,-1.486 1.167429,-2.03354 0.1559,-0.13747 0.306009,-0.28371 0.486957,-0.38742 0.33166,-0.19009 0.717396,-0.27853 1.075489,-0.39656 z" />
    <path
       style="fill:#0000ff;stroke:#0000ff;stroke-width:0.0264583;stroke-linejoin:round"
       id="path7"
       d="m 51.102635,134.24447 c -0.751149,0.20606 -1.377384,0.71855 -2.005965,1.16913 -0.489926,0.34752 -0.989226,0.68799 -1.431887,1.10062 -0.204863,0.19097 -0.450544,0.46487 -0.641386,0.67176 -0.45982,0.69198 -0.895352,1.40747 -1.293632,2.14006 -0.353252,0.69262 -0.432652,1.47377 -0.424126,2.24667 0.01995,0.52978 0.08014,1.0581 0.267241,1.55675 0.125914,0.3356 0.251169,0.54883 0.417337,0.86401 0.544186,0.89397 1.256104,1.65254 2.006637,2.36032 0.597229,0.44749 1.221924,0.86105 1.884763,1.1964 1.989577,1.0066 1.287202,0.75793 2.350372,1.10208 0.765905,0.2237 1.522763,0.13459 2.271543,-0.0915 0.696448,-0.27964 1.442411,-0.56068 2.038349,-1.04347 0.130055,-0.1053 0.241949,-0.23277 0.362923,-0.34916 0.788072,-0.80362 1.124613,-1.71308 1.351975,-2.8111 0.238722,-1.26555 0.270984,-2.56027 0.222043,-3.84634 -0.01222,-1.11827 -0.338168,-2.00318 -0.926822,-2.92324 -0.527553,-0.71191 -1.119528,-1.37212 -1.776239,-1.95688 -0.380721,-0.32095 -0.787234,-0.60393 -1.231157,-0.82168 -1.131916,-0.55524 -1.705674,-0.94325 -2.769597,-1.13899 -0.429874,-0.072 -0.973021,-0.002 -1.341685,0.26113 -0.216175,0.15441 -0.268201,0.29259 -0.40161,0.51562 -0.334774,0.74665 -0.161711,1.30395 0.227973,1.97898 0.211862,0.30107 0.453966,0.59036 0.781186,0.76173 1.403355,0.73497 1.467522,0.91005 2.577707,1.06019 0.64585,0.0842 1.266022,-0.13618 1.857207,-0.37961 0.687102,-0.28177 1.23082,-0.7926 1.810572,-1.24912 0.608589,-0.37726 1.271615,-0.66935 1.950689,-0.8819 0.456499,-0.11684 0.92043,-0.19624 1.368619,-0.34552 0,0 -1.527937,-0.95349 -1.527937,-0.95349 v 0 c -0.44755,0.13777 -0.907236,0.22246 -1.35631,0.35418 -0.688819,0.23318 -1.364782,0.53339 -1.97432,0.94117 -0.56597,0.45555 -1.118568,0.93453 -1.800882,1.19525 -0.579195,0.22789 -1.173104,0.41677 -1.80061,0.30433 -0.84646,-0.14914 -1.342168,-0.51142 0.57551,0.5171 0.102523,0.055 -0.209628,-0.10242 -0.305422,-0.16925 -0.239563,-0.16714 -0.315845,-0.28787 -0.504383,-0.51181 -0.415396,-0.64561 -0.601049,-1.03485 -0.298941,-1.78693 0.04897,-0.0796 0.08746,-0.16733 0.146889,-0.23887 0.352948,-0.42491 0.990351,-0.43821 1.479263,-0.35542 0.123226,0.0272 0.247654,0.049 0.369675,0.0816 0.129483,0.0346 0.495611,0.19672 0.384195,0.11981 -0.351428,-0.24259 -0.74919,-0.40404 -1.114271,-0.62377 -0.137557,-0.0828 0.291301,0.13327 0.430827,0.2124 0.335999,0.1906 0.500418,0.3326 0.807647,0.56718 0.666816,0.56258 1.249274,1.22167 1.793408,1.91071 0.612388,0.89033 0.951612,1.72957 0.982825,2.83848 0.0653,1.27054 0.03227,2.55105 -0.210145,3.80076 -0.234439,1.10282 -0.519278,1.8957 -1.312358,2.70707 -0.117265,0.10709 -0.226826,0.22392 -0.351798,0.32118 -0.594968,0.46299 -1.323515,0.7401 -2.018143,0.99186 -0.73968,0.18926 -1.476615,0.25165 -2.217246,0.002 -0.804671,-0.28884 -0.40548,-0.16663 0.760726,0.47698 0.14948,0.0825 -0.304818,-0.15313 -0.454326,-0.23555 -0.410475,-0.22633 -0.580183,-0.33949 -0.973303,-0.59951 -0.157885,-0.10441 -0.314212,-0.21137 -0.471319,-0.31706 -0.751992,-0.68815 -1.462233,-1.43249 -2.020313,-2.3017 -0.422028,-0.76564 -0.698159,-1.43729 -0.704584,-2.33317 -0.022,-0.74233 0.04892,-1.49193 0.38945,-2.15724 0.382915,-0.72307 0.799005,-1.43454 1.259263,-2.10649 0.616026,-0.66817 1.298017,-1.25219 2.058352,-1.73921 0.617602,-0.4433 1.241148,-0.94434 2.000473,-1.08069 z" />
    <path
       style="fill:#0000ff;stroke:#0000ff;stroke-width:0.0264583;stroke-linejoin:round"
       id="path8"
       d="m 62.095502,141.78447 c 1.068525,0.0141 2.136482,0.0219 3.205029,0.008 0.670692,-0.0368 0.353462,-0.0146 0.95189,-0.0638 0,0 -1.485894,-0.97262 -1.485894,-0.97262 v 0 c -0.5773,0.055 -0.270411,0.0307 -0.920957,0.0691 -1.084844,0.0168 -2.169852,0.007 -3.253864,-0.054 z" />
    <path
       style="fill:#0000ff;stroke:#0000ff;stroke-width:0.0264583;stroke-linejoin:round"
       id="path9"
       d="m 69.394215,141.5564 c -0.03052,1.0654 0.581539,2.00278 1.118669,2.86616 0.27139,0.38004 0.542696,0.76892 0.890826,1.07966 0.623947,0.55693 1.833153,1.0047 2.380988,1.27381 0.706905,0.17457 1.081046,0.006 1.642865,-0.43059 0.906146,-0.74072 1.651414,-1.64442 2.334291,-2.60159 0.574396,-0.78935 0.984491,-1.67556 1.108845,-2.66486 0.02808,-0.22333 0.03305,-0.44924 0.04957,-0.67387 0.01658,-1.23195 0.04465,-2.48713 -0.178762,-3.70532 -0.0488,-0.26611 -0.120666,-0.52723 -0.181004,-0.79084 -0.06619,-0.25421 -0.126968,-0.50996 -0.198552,-0.76261 -0.157408,-0.55554 -0.34407,-1.09989 -0.505848,-1.65397 -0.197559,-0.53348 -0.268058,-1.10232 -0.424674,-1.64695 -0.08684,-0.302 -0.197969,-0.59602 -0.296954,-0.89403 -0.544007,-1.58984 -1.174048,-3.14778 -1.654686,-4.75973 -0.223296,-0.89999 -0.470139,-1.81271 -0.474943,-2.74842 -0.0027,-0.52302 0.03063,-0.59516 0.114782,-1.09363 0.167748,-0.80687 0.646918,-1.43566 1.186808,-2.01246 0.47459,-0.46229 1.079097,-0.66398 1.699437,-0.8146 0.554627,-0.0479 1.095385,0.16829 1.593014,0.4061 0.156266,0.0747 0.616993,0.31569 0.459062,0.2449 -0.367512,-0.16471 -0.725614,-0.35131 -1.088419,-0.52698 0.922589,0.57235 1.731148,1.31094 2.520877,2.06123 0.713523,0.67913 1.285416,1.3233 1.66987,2.24999 0.171786,0.5057 0.300021,1.0249 0.386085,1.55282 0.04945,0.39931 0.141438,0.79124 0.212412,1.1868 0.557287,0.29047 1.08099,0.66516 1.671853,0.87141 0.110846,0.0387 0.76172,-1.71684 0.815156,-1.85112 0.242242,-0.56281 0.500796,-1.13277 0.863473,-1.62544 0.214011,-0.29069 0.324504,-0.37464 0.578341,-0.61457 0.311371,-0.24508 0.889106,-0.61793 1.306364,-0.56483 0.09082,0.0115 0.174393,0.058 0.26159,0.087 -0.409536,-0.19907 -0.807577,-0.4261 -1.228599,-0.59721 -0.134306,-0.0546 0.245434,0.15796 0.362669,0.24529 0.11124,0.0829 0.223397,0.16608 0.322006,0.26467 0.588879,0.58871 0.984628,1.37649 1.404712,2.09064 0.91049,1.56554 1.828401,3.13052 2.474346,4.83529 0.373404,1.07961 0.242793,2.06421 -0.06961,3.12833 -0.308513,0.96668 -0.732866,1.87706 -1.2565,2.73529 -0.601439,0.87949 -1.170624,1.7862 -1.657808,2.73928 -0.444165,0.84917 -0.946453,1.66276 -1.426863,2.48965 -0.479792,0.60176 -0.890548,1.24666 -1.231433,1.94334 -0.191672,0.4509 -0.371438,0.98157 -0.231587,1.48021 0.02976,0.10609 0.08382,0.20327 0.125732,0.30491 0.657823,0.89478 1.561674,1.53883 2.513587,2.05343 1.283077,0.69056 2.158468,1.29031 3.540161,1.06506 0.159981,-0.026 0.327493,-0.0373 0.474579,-0.10717 0.222735,-0.10581 0.412108,-0.27449 0.61816,-0.41173 1.650088,-1.54262 2.535513,-3.68546 3.277206,-5.81113 0.127175,-0.45164 0.322817,-1.03509 0.35362,-1.5215 0.01126,-0.17738 -0.02716,-0.35464 -0.0408,-0.53196 0,0 -1.604332,-0.70983 -1.604332,-0.70983 v 0 c 0.02734,0.16553 0.08263,0.32878 0.08196,0.49659 -0.0019,0.47555 -0.185591,1.07451 -0.295151,1.51463 -0.574765,1.74992 -1.318535,3.65678 -2.555335,5.02364 -0.216419,0.23917 -0.469793,0.43928 -0.704686,0.65892 -0.206522,0.11415 -0.401169,0.25497 -0.619561,0.34242 -0.399182,0.15983 -1.034043,0.14211 -1.448071,0.067 -0.169681,-0.0307 -0.637999,-0.23896 -0.501654,-0.12938 0.323028,0.25962 0.721651,0.39745 1.082476,0.59618 -0.948571,-0.47801 -1.825074,-1.09559 -2.519364,-1.93015 -0.04665,-0.0859 -0.104995,-0.16615 -0.140016,-0.25779 -0.172647,-0.45184 0.01257,-0.95785 0.174932,-1.3766 0.328622,-0.69996 0.755049,-1.32679 1.222864,-1.93332 0.466107,-0.83828 0.960105,-1.65963 1.412335,-2.50639 0.484848,-0.94896 1.05117,-1.85164 1.648598,-2.72818 0.536567,-0.86965 0.970094,-1.7932 1.286052,-2.77512 0.321696,-1.1214 0.468243,-2.10426 0.09481,-3.24833 -0.666996,-1.72031 -1.610018,-3.29337 -2.52169,-4.88417 -0.374386,-0.66971 -0.7826,-1.54393 -1.298581,-2.11683 -0.664888,-0.73823 -1.856911,-1.07897 -2.592719,-1.52606 -0.100252,-0.012 -0.199925,-0.0385 -0.300749,-0.0361 -0.482734,0.0118 -0.984044,0.3753 -1.340092,0.67294 -0.258419,0.25932 -0.367152,0.34921 -0.589179,0.65551 -0.366006,0.50494 -0.637873,1.0788 -0.876688,1.65711 -0.172361,0.42384 -0.323003,0.86587 -0.521116,1.2777 -0.04567,0.095 -0.09544,0.18837 -0.154237,0.27517 -0.02159,0.0318 -0.116192,0.0561 -0.08447,0.0773 0.480414,0.32076 0.997905,0.57716 1.496859,0.86574 -0.06952,-0.39618 -0.176018,-0.78569 -0.218674,-1.18639 -0.08748,-0.54422 -0.22403,-1.07703 -0.392769,-1.6007 -0.377411,-0.97868 -0.930996,-1.61947 -1.671834,-2.33466 -0.787043,-0.75581 -1.587331,-1.50831 -2.50258,-2.096 -0.663059,-0.35736 -1.324042,-0.71894 -1.989173,-1.07211 -0.660267,-0.35058 -1.391341,-0.67754 -2.145117,-0.561 -0.642081,0.17716 -1.263544,0.40766 -1.743257,0.9064 -0.555965,0.60938 -1.043668,1.27657 -1.210673,2.1196 -0.02981,0.17997 -0.0708,0.35826 -0.08943,0.53989 -0.118224,1.1524 0.167459,2.28866 0.451508,3.3942 0.47613,1.61992 1.112521,3.18146 1.670122,4.77257 0.09667,0.29143 0.205247,0.57894 0.290004,0.87428 0.157276,0.54806 0.232461,1.11906 0.421148,1.65869 0.233059,0.80079 0.51744,1.58669 0.704039,2.40183 0.06041,0.25786 0.131522,0.51334 0.181212,0.7736 0.229755,1.20331 0.200996,2.44458 0.181974,3.66291 -0.01818,0.21686 -0.02712,0.43482 -0.05454,0.65061 -0.122456,0.96369 -0.505874,1.82487 -1.063854,2.59866 -0.673427,0.94577 -1.423706,1.8299 -2.340343,2.53258 -0.563478,0.38258 -0.906234,0.48721 -1.567088,0.27241 3.149268,1.68119 1.050821,0.61666 0.742132,0.37411 -0.367059,-0.28843 -0.642839,-0.6753 -0.925619,-1.04608 -0.519642,-0.80404 -1.132136,-1.69212 -1.125453,-2.69566 z" />
    <path
       style="fill:#0000ff;stroke:#0000ff;stroke-width:0.0264583;stroke-linejoin:round"
       id="path10"
       d="m 103.68764,136.51704 c -0.065,-0.0117 -0.12911,-0.0363 -0.19502,-0.035 -0.55881,0.0117 -1.26585,0.53153 -1.71171,0.84595 -0.75692,0.54426 -1.06315,1.04914 -1.24008,1.97439 -0.15766,0.98429 0.15662,1.89701 0.57085,2.76821 0.37263,0.75975 0.94338,1.37328 1.46688,2.01939 0.51504,0.67139 1.03568,1.25247 1.73339,1.71845 0.81527,0.25632 1.53292,0.93652 2.38438,1.16223 0.29402,0.0779 0.59224,0.0878 0.89319,0.0969 0.81493,-0.044 1.60735,-0.2875 2.38272,-0.53483 0.82072,-0.28931 1.24689,-0.78869 1.74728,-1.48373 0.61827,-0.83331 0.99577,-1.79142 1.2955,-2.78707 0.21128,-1.069 0.40199,-2.14393 0.5481,-3.22518 0.0731,-0.66645 0.12638,-1.34399 0.0299,-2.01067 -0.22326,-0.78781 -0.75624,-1.15421 -1.41759,-1.52357 -0.82221,-0.10507 -1.47974,-0.91009 -2.30158,-1.12498 -0.78768,-0.20596 -1.68843,-0.16722 -2.49489,-0.17773 -0.99976,-0.005 -1.99772,0.0479 -2.99472,0.11294 -0.98368,0.0998 -1.91008,0.41729 -2.76643,0.91703 -0.2066,0.15687 -0.51534,0.3462 -0.58427,0.63229 -0.0792,0.32881 0.12016,0.62949 0.2647,0.89922 0.19265,0.2699 0.40821,0.53936 0.70389,0.69449 1.15798,0.60751 1.48892,0.91283 2.49269,1.04161 0.87761,0.0569 1.73572,-0.0295 2.56927,-0.31403 0.51949,-0.24518 0.94349,-0.64281 1.4721,-0.86861 0.54922,-0.1799 1.08776,-0.39875 1.62129,-0.62482 0.58783,-0.25944 1.2123,-0.39269 1.84235,-0.48491 0.47885,-0.0637 0.96143,-0.0881 1.44318,-0.11744 0.72206,-0.0752 1.44828,-0.0439 2.17279,-0.0409 0.53415,0.01 1.05946,0.036 1.5532,-0.19671 0.44216,-0.32865 0.59251,-0.9017 0.81974,-1.39068 0.0852,-0.28462 0.42012,-0.64315 0.47511,-0.92713 0.0108,-0.0556 -0.002,-0.11355 -0.003,-0.17037 -0.34147,-0.65942 -1.33863,-0.76401 -1.91722,-0.90665 -0.10707,-0.0264 -0.17676,0.79994 -0.18497,0.88567 -0.0439,0.91138 0.0214,1.82333 0.0729,2.73322 0.0402,0.80126 0.21928,1.58204 0.35654,2.36887 0.10164,0.60771 0.15611,1.22199 0.20465,1.83599 0.0359,0.48343 0.0638,0.96738 0.0947,1.45115 0.0292,0.45023 0.0555,0.90061 0.0823,1.35099 -0.0136,0.61557 0.25299,1.12775 0.58684,1.61829 0.38138,0.45719 0.78079,0.91909 1.28451,1.23233 1.56296,0.84934 1.57417,0.97688 2.89964,0.9071 0.58723,0.012 1.06913,-0.22294 1.53435,-0.56689 0.44704,-0.3791 0.82551,-0.8339 1.21238,-1.27599 0.15903,-0.15735 0.27293,-0.33819 0.37482,-0.53741 0,0 -1.59989,-0.8301 -1.59989,-0.8301 v 0 c -0.0943,0.18543 -0.20381,0.35279 -0.34817,0.50211 -0.36892,0.43988 -0.74476,0.88037 -1.19053,1.23904 -0.4706,0.33072 -0.90841,0.48837 -1.48601,0.47575 -0.23264,0.008 -0.4672,0.0195 -0.69956,-0.006 -0.63028,-0.0682 -1.50091,-0.6557 1.00404,0.65156 -0.53393,-0.25672 -0.92862,-0.72047 -1.32564,-1.16051 -0.34134,-0.44936 -0.62255,-0.92244 -0.60438,-1.51145 -0.0308,-0.45112 -0.0616,-0.90222 -0.0885,-1.35362 -0.03,-0.48533 -0.06,-0.97069 -0.097,-1.45554 -0.0487,-0.6213 -0.11465,-1.24113 -0.20922,-1.85713 -0.13481,-0.78503 -0.33127,-1.55937 -0.38336,-2.35746 -0.0523,-0.89767 -0.10788,-1.79864 -0.0642,-2.69747 0.0182,-0.18586 0.0315,-0.42005 0.0831,-0.60361 0.0129,-0.046 0.10119,-0.10336 0.0617,-0.12849 -2.3929,-1.5232 -1.9427,-0.9841 -1.31957,-0.71226 0.0191,0.0193 0.057,0.0305 0.0571,0.0581 4.5e-4,0.16379 -0.412,0.74183 -0.45701,0.93042 -0.19809,0.44824 -0.34524,0.9927 -0.76692,1.2666 -0.47956,0.18541 -0.9927,0.13917 -1.49743,0.14676 -0.73252,-0.003 -1.46568,-0.014 -2.19674,0.0391 -0.48252,0.0313 -0.96609,0.0647 -1.44461,0.13657 -0.63416,0.11015 -1.26062,0.26205 -1.85268,0.52744 -0.54142,0.22258 -1.09142,0.42124 -1.64139,0.61978 -0.50608,0.24805 -0.92282,0.64251 -1.44198,0.86487 -0.82182,0.26883 -1.67578,0.33259 -2.53467,0.23747 -0.78202,-0.14264 -1.37069,-0.5503 0.66776,0.53986 0.0928,0.0496 -0.18989,-0.0919 -0.27633,-0.15256 -0.19154,-0.13442 -0.30139,-0.27987 -0.456,-0.45494 -0.10366,-0.17488 -0.3617,-0.48801 -0.32705,-0.71865 0.038,-0.25289 0.35519,-0.42036 0.51981,-0.55535 0.83911,-0.48918 1.74899,-0.78879 2.71648,-0.85292 0.98614,-0.062 1.97325,-0.12204 2.96193,-0.11856 0.66133,0.0114 1.32932,0.0121 1.9843,0.12707 0.1714,0.0301 0.3414,0.0715 0.50771,0.12428 0.12928,0.041 0.49515,0.2241 0.37659,0.15653 -0.39129,-0.22301 -0.79774,-0.41593 -1.19662,-0.62389 0.61113,0.3209 1.21305,0.64989 1.45899,1.36037 0.12611,0.64706 0.0581,1.31684 0.0115,1.96955 -0.12159,1.07649 -0.31457,2.1423 -0.52271,3.2035 -0.28733,0.98005 -0.67008,1.91302 -1.28992,2.7209 -0.46701,0.64723 -0.91782,1.13666 -1.68607,1.38772 -0.76733,0.23756 -1.55573,0.47488 -2.36345,0.47295 -0.29911,-0.0237 -0.58438,-0.0511 -0.87261,-0.14432 -0.57896,-0.18739 -1.67539,-0.85494 0.75742,0.45019 -0.26466,-0.15905 -0.3796,-0.21511 -0.62352,-0.417 -0.43058,-0.3564 -0.77509,-0.80899 -1.12651,-1.24421 -0.51881,-0.64667 -1.10876,-1.23909 -1.49671,-1.98741 -0.43361,-0.84693 -0.74539,-1.67695 -0.60535,-2.65212 0.16363,-0.88804 0.44467,-1.33156 1.1711,-1.85072 0.54962,-0.37468 1.17722,-0.84466 1.86915,-0.6615 z" />
    <path
       style="fill:#0000ff;stroke:#0000ff;stroke-width:0.0264583;stroke-linejoin:round"
       id="path11"
       d="m 115.71329,123.29864 c -0.21194,0.70888 -0.18996,1.17503 0.0193,1.88081 0.19274,0.53046 0.47034,1.0218 0.91242,1.36418 1.56319,0.83937 1.61818,1.2252 2.82313,0.53266 0.5265,-0.34091 1.00075,-0.76715 1.43602,-1.22444 0.49771,-0.57566 0.63484,-1.30835 0.69352,-2.05567 0.0557,-0.62613 -0.044,-1.22161 -0.36765,-1.75552 -0.1596,-0.19548 -0.3427,-0.38513 -0.56821,-0.49895 -1.17368,-0.59241 -1.37475,-0.87269 -2.3153,-0.95201 -0.48419,0.0459 -1.04884,0.0533 -1.45717,0.36879 -0.0954,0.0737 -0.16914,0.17341 -0.25371,0.26012 -0.43774,0.48778 -0.66331,1.1051 -0.94633,1.68926 -0.10566,0.18758 -0.20623,0.37817 -0.30788,0.5681 0,0 1.60181,0.83205 1.60181,0.83205 v 0 c 0.0968,-0.19494 0.19512,-0.389 0.29935,-0.57979 0.26311,-0.57038 0.47998,-1.16794 0.90834,-1.63569 0.0767,-0.0707 0.14429,-0.15405 0.23035,-0.21221 0.40456,-0.27347 0.94968,-0.26918 1.41245,-0.2743 0.73425,0.10957 1.28354,0.53865 -0.87005,-0.62764 -0.0679,-0.0367 0.1397,0.0658 0.20586,0.10592 0.19485,0.11802 0.22246,0.15969 0.39062,0.31586 0.36305,0.47601 0.47041,1.04433 0.42729,1.64397 -0.0488,0.70692 -0.15906,1.40063 -0.64081,1.93974 -0.42651,0.44431 -0.89936,0.85035 -1.42054,1.17042 -0.19781,0.10422 -0.40072,0.22524 -0.62523,0.25686 -0.59183,0.0834 -1.73479,-0.81341 1.04403,0.70769 -0.47977,-0.26951 -0.76345,-0.74231 -0.97428,-1.25322 -0.21184,-0.62752 -0.27204,-1.11183 -0.0411,-1.74671 z" />
    <text
       xml:space="preserve"
       transform="matrix(0.76761934,0,0,0.40027819,-144.87627,-73.389466)"
       id="text11"
       style="font-size:16px;line-height:normal;font-family:'Liberation Mono';-inkscape-font-specification:'Liberation Mono';text-align:center;text-decoration-color:#000000;white-space:pre;shape-inside:url(#rect11);fill:#000080;stroke-width:0.477319;-inkscape-stroke:none;stop-color:#000000"><tspan
         x="228.43555"
         y="572.31066"
         id="tspan1">The eco blog</tspan></text>
  </g>
</svg>
