<?xml version="1.0" encoding="UTF-8" standalone="no"?>
<!-- Created with Inkscape (http://www.inkscape.org/) -->

<svg
   width="398.80664"
   height="135.05908"
   viewBox="0 0 105.51759 35.734382"
   version="1.1"
   id="svg1"
   inkscape:version="1.4.2 (1:1.4.2+202505120737+ebf0e940d0)"
   sodipodi:docname="src_blog.svg"
   xmlns:inkscape="http://www.inkscape.org/namespaces/inkscape"
   xmlns:sodipodi="http://sodipodi.sourceforge.net/DTD/sodipodi-0.dtd"
   xmlns="http://www.w3.org/2000/svg"
   xmlns:svg="http://www.w3.org/2000/svg">
  <sodipodi:namedview
     id="namedview1"
     pagecolor="#ffffff"
     bordercolor="#000000"
     borderopacity="0.25"
     inkscape:showpageshadow="2"
     inkscape:pageopacity="0.0"
     inkscape:pagecheckerboard="0"
     inkscape:deskcolor="#d1d1d1"
     inkscape:document-units="px"
     inkscape:zoom="0.78484147"
     inkscape:cx="397.53251"
     inkscape:cy="561.25984"
     inkscape:window-width="1854"
     inkscape:window-height="1131"
     inkscape:window-x="0"
     inkscape:window-y="0"
     inkscape:window-maximized="1"
     inkscape:current-layer="layer1">
    <inkscape:page
       x="0"
       y="0"
       width="105.51759"
       height="35.734383"
       id="page2"
       margin="0"
       bleed="0" />
  </sodipodi:namedview>
  <defs
     id="defs1">
    <rect
       x="124.86598"
       y="558.07446"
       width="322.35809"
       height="40.772564"
       id="rect11" />
  </defs>
  <g
     inkscape:label="Layer 1"
     inkscape:groupmode="layer"
     id="layer1"
     transform="translate(-22.923944,-124.73326)">
    <rect
       style="fill:none;stroke:none;stroke-width:0.264582;stroke-linejoin:round"
       id="rect12"
       width="105.51759"
       height="35.734386"
       x="22.923944"
       y="124.73326" />
    <text
       xml:space="preserve"
       transform="matrix(0.85989222,0,0,0.62643629,-172.07757,-201.88573)"
       id="text11"
       style="font-size:16px;line-height:normal;font-family:'Liberation Mono';-inkscape-font-specification:'Liberation Mono';text-align:center;text-decoration-color:#000000;white-space:pre;shape-inside:url(#rect11);fill:#1d9ecf;fill-opacity:1;stroke-width:0.360497;-inkscape-stroke:none;stop-color:#000000"><tspan
         x="228.43555"
         y="572.31066"
         id="tspan1">The eco blog</tspan></text>
    <path
       d="m 103.54859,144.57711 -0.17436,-0.0971 a 0.13308541,0.13308541 0 0 0 -0.0542,-0.008 1.1718396,1.1718396 0 0 0 -0.16854,0.0175 q -0.18415,0.0291 -0.42624,0.11615 a 2.1984229,2.1984229 0 0 0 -0.47493,0.24236 q -0.23257,0.15505 -0.36804,0.40693 l -0.0775,-0.0193 a 1.397,1.397 0 0 0 -0.36142,-0.0476 1.4401271,1.4401271 0 0 0 -0.22966,0.0185 3.7078708,3.7078708 0 0 1 -0.59108,0.0484 2.8328937,2.8328937 0 0 1 -0.17647,0.006 1.1945937,1.1945937 0 0 1 -0.734493,-0.18997 q -0.29051,-0.22278 -0.61992,-0.84296 a 2.00025,2.00025 0 0 1 -0.13573,-0.29051 q -0.0582,-0.15505 -0.0968,-0.31009 v -0.0775 a 0.51434999,0.51434999 0 0 0 0.29051,-0.41672 2.4042687,2.4042687 0 0 0 0.007,-0.17753 2.835275,2.835275 0 0 0 -0.0259,-0.37465 5.8292999,5.8292999 0 0 1 -0.0484,-0.56198 0.65563749,0.65563749 0 0 1 -5.2e-4,-0.0235 0.52255208,0.52255208 0 0 1 0.20399,-0.42228 0.76543957,0.76543957 0 0 1 -0.0516,-0.26987 0.69109166,0.69109166 0 0 1 0.0807,-0.32121 36.369889,36.369889 0 0 1 0.28099,-0.53287 1.0218208,1.0218208 0 0 0 0.13573,-0.48445 q 0,-0.23257 -0.42651,-0.48445 -0.44555,0.17436 -0.84296,0.43603 -0.39714,0.26167 -0.79454,0.54266 a 58.842539,58.842539 0 0 1 -0.79455,0.55219 4.2113729,4.2113729 0 0 1 -0.84296,0.44582 q -0.40693,0.44556 -0.85249,0.76544 a 14.602089,14.602089 0 0 0 -0.86254,0.6686 5.1173062,5.1173062 0 0 0 -0.75565,0.78475 q -0.33919,0.43604 -0.51355,1.07554 -0.0968,-0.11642 -0.19368,-0.15505 a 2.0113625,2.0113625 0 0 0 -0.25188,-0.0775 q -0.21326,-0.0582 -0.31009,-0.12595 a 3.1723541,3.1723541 0 0 1 -0.25215,-0.20346 l 0.0196,-0.0389 a 13.010621,13.010621 0 0 1 0.40693,-1.02712 q 0.23256,-0.52308 0.23256,-1.04642 a 1.5639521,1.5639521 0 0 0 -0.0389,-0.35851 1.5639521,1.5639521 0 0 1 -0.0386,-0.35851 1.7068271,1.7068271 0 0 1 0.11615,-0.6395 q 0.11642,-0.29051 0.26168,-0.5424 0.14525,-0.25215 0.27119,-0.49424 0.12595,-0.24236 0.12595,-0.51356 a 1.0226146,1.0226146 0 0 0 -0.0968,-0.42624 1.2411604,1.2411604 0 0 0 -0.25188,-0.3683 1.5695083,1.5695083 0 0 0 -0.10451,-0.003 1.3300604,1.3300604 0 0 0 -0.43815,0.0712 5.4800499,5.4800499 0 0 0 -0.50377,0.20347 4.6230645,4.6230645 0 0 1 -0.52335,0.20373 1.5263812,1.5263812 0 0 1 -0.4699,0.0712 1.7867312,1.7867312 0 0 1 -0.11139,-0.003 q -0.40693,0.40693 -0.83317,0.80407 a 94.191665,94.191665 0 0 1 -0.85275,0.78502 37.890714,37.890714 0 0 0 -1.73435,1.64703 q -0.84296,0.85275 -1.34672,1.93807 -0.0971,0.21299 -0.16484,0.43577 -0.0677,0.22305 -0.16457,0.43603 a 0.11165417,0.11165417 0 0 1 -0.0389,0.0775 h -0.0968 a 0.29871458,0.29871458 0 0 0 -0.28099,0.11641 q -0.068,0.11616 -0.0968,0.26168 a 3.5739916,3.5739916 0 0 1 -0.068,0.28098 q -0.0386,0.13547 -0.17436,0.17437 a 0.36089166,0.36089166 0 0 1 -0.0878,0.0111 0.37888333,0.37888333 0 0 1 -0.21246,-0.0693 1.5877646,1.5877646 0 0 1 -0.24236,-0.19368 l -0.0193,-0.0196 a 1.3446125,1.3446125 0 0 1 -0.21325,-0.6395 2.0341166,2.0341166 0 0 1 -0.003,-0.11932 2.0044833,2.0044833 0 0 1 0.0714,-0.5297 q 0.0871,-0.31988 0.25189,-0.62997 0.16457,-0.30983 0.31961,-0.58129 a 11.500908,11.500908 0 0 0 0.43604,-0.84296 2.1507979,2.1507979 0 0 0 0.20346,-0.92049 1.3414375,1.3414375 0 0 0 -0.0484,-0.37782 q -0.0484,-0.16484 -0.0871,-0.3392 l 0.42625,-0.29051 a 0.51593749,0.51593749 0 0 1 -0.10663,-0.24236 1.1504083,1.1504083 0 0 1 -0.005,-0.10425 0.99774374,0.99774374 0 0 1 0.005,-0.0992 16.880681,16.880681 0 0 1 0.0193,-0.18415 0.3190875,0.3190875 0 0 0 0.002,-0.0352 0.40031458,0.40031458 0 0 0 -0.031,-0.14896 v -0.0579 l 0.15478,-0.17462 a 19.921537,19.921537 0 0 1 -0.0386,-1.20148 3.3662937,3.3662937 0 0 0 -0.23257,-1.18189 0.53022499,0.53022499 0 0 1 0.35322,-0.16801 0.37676666,0.37676666 0 0 1 0.17013,0.0421 6.5571687,6.5571687 0 0 1 0.50376,0.28099 v 0.0193 l 0.0193,0.0193 q 0.15504,0.23257 0.27146,0.56198 a 4.6749229,4.6749229 0 0 1 0.18388,0.68792 q 0.068,0.35851 0.10663,0.70749 a 5.6837791,5.6837791 0 0 1 0.0389,0.61992 1.0289646,1.0289646 0 0 1 -0.01,0.14552 1.0289646,1.0289646 0 0 0 -0.01,0.14526 l -0.11616,0.11615 a 3.1829375,3.1829375 0 0 0 0.21326,0.19394 0.31829375,0.31829375 0 0 0 0.20717,0.0807 0.31564791,0.31564791 0 0 0 0.0447,-0.003 0.69267916,0.69267916 0 0 1 0.36804,-0.45535 q 0.25214,-0.10662 0.51355,-0.16483 0.26168,-0.0582 0.46514,-0.16484 a 0.46566666,0.46566666 0 0 0 0.20347,-0.45534 q 0,-0.0775 -0.0193,-0.11616 l 0.0386,-0.0389 a 11.087629,11.087629 0 0 1 1.11442,-0.97843 4.1947041,4.1947041 0 0 1 1.20148,-0.64929 3.430852,3.430852 0 0 1 1.10728,-0.18044 3.7380333,3.7380333 0 0 1 0.21034,0.006 3.9131875,3.9131875 0 0 1 1.48246,0.42625 l 0.0389,0.0193 0.21299,0.79455 -0.13547,0.13573 a 0.82232499,0.82232499 0 0 1 0.15505,0.49 1.0443104,1.0443104 0 0 1 -0.01,0.1397 q -0.0484,0.35852 -0.16457,0.7075 -0.11642,0.34872 -0.21326,0.64902 a 0.79401457,0.79401457 0 0 0 -0.0442,0.23919 0.29236458,0.29236458 0 0 0 0.0635,0.19685 0.33893125,0.33893125 0 0 0 0.2958,0.11879 0.85142916,0.85142916 0 0 0 0.0627,-0.002 q 0.26167,-0.0196 0.41671,-0.0389 a 1.3081,1.3081 0 0 1 0.43604,-0.36804 11.630289,11.630289 0 0 1 0.56197,-0.29077 3.8481,3.8481 0 0 0 0.49398,-0.28099 q 0.21325,-0.14526 0.23257,-0.31962 a 1.25095,1.25095 0 0 0 0.22966,0.023 0.66410416,0.66410416 0 0 0 0.27437,-0.0521 0.72019582,0.72019582 0 0 0 0.31009,-0.26167 3.0233937,3.0233937 0 0 0 0.21299,-0.37783 q 0.0968,-0.20346 0.22278,-0.38761 a 0.83528957,0.83528957 0 0 1 0.31988,-0.28099 0.77046666,0.77046666 0 0 1 0.34608,-0.0693 1.5202958,1.5202958 0 0 1 0.17727,0.0111 q 0.44556,-0.44556 1.05595,-0.64929 0.610393,-0.20346 1.230583,-0.22278 a 1.2983104,1.2983104 0 0 1 0.0564,-0.001 0.61012916,0.61012916 0 0 1 0.56383,0.263 1.2422187,1.2422187 0 0 1 0.17436,0.6686 2.1402146,2.1402146 0 0 1 -0.23257,0.9689 q -0.23257,0.46514 -0.52308,0.94959 a 9.2892561,9.2892561 0 0 0 -0.52335,1.00754 2.8318354,2.8318354 0 0 0 -0.23256,1.16284 v 0.20346 q 0,0.14526 0.0193,0.29078 0.0196,0.14526 0.0484,0.2712 a 0.26246666,0.26246666 0 0 0 0.0873,0.16483 q 0.0775,0.0386 0.13573,0.0579 l -0.0968,0.0775 a 4.9006124,4.9006124 0 0 1 0.79454,0.16484 q 0.34872,0.10662 0.75565,-0.068 0.11615,-0.0386 0.24209,-0.0579 0.12621,-0.0196 0.24236,-0.0582 0.17436,-0.0193 0.21326,-0.14526 0.0386,-0.12594 0.14525,-0.25188 0.10663,-0.12621 0.34872,-0.23257 0.24236,-0.10663 0.80434,-0.10663 v -0.31009 a 2.3915687,2.3915687 0 0 0 0.65881,-0.3003 10.324042,10.324042 0 0 1 0.53287,-0.3392 2.1060833,2.1060833 0 0 1 0.40031,-0.18124 1.4464771,1.4464771 0 0 0 -0.0418,-0.16748 0.61515624,0.61515624 0 0 0 0.26167,-0.27146 q 0.0677,-0.15505 0.0968,-0.31962 a 1.5647458,1.5647458 0 0 1 0.0873,-0.31009 0.48603958,0.48603958 0 0 1 0.2712,-0.24236 q -0.15505,-0.46514 0.0484,-0.68791 0.20346,-0.22278 0.49424,-0.39714 0.29078,-0.17436 0.54266,-0.38762 a 0.60324999,0.60324999 0 0 0 0.20452,-0.4871 1.1292417,1.1292417 0 0 0 -0.0108,-0.1524 q 0.11641,-0.11641 0.27146,-0.19394 a 12.36345,12.36345 0 0 1 0.3003,-0.14525 q 0.14526,-0.0677 0.28099,-0.14526 0.13573,-0.0775 0.25188,-0.21325 a 0.24235833,0.24235833 0 0 1 -0.12673,-0.18071 0.12964583,0.12964583 0 0 1 7.9e-4,-0.013 0.84216874,0.84216874 0 0 1 0.0484,-0.20346 5.2104395,5.2104395 0 0 1 0.0873,-0.22305 0.27305,0.27305 0 0 0 0.022,-0.10557 0.28151666,0.28151666 0 0 0 -0.0318,-0.127 1.7854083,1.7854083 0 0 0 0.26167,0.0201 1.3231812,1.3231812 0 0 0 0.65882,-0.16536 13.754629,13.754629 0 0 0 0.75565,-0.45535 2.5093083,2.5093083 0 0 1 0.72681,-0.32941 q 0.3683,-0.0968 0.85275,0.23257 0.0386,0.13547 0.12594,0.39714 a 52.159958,52.159958 0 0 1 0.17436,0.53287 43.934856,43.934856 0 0 1 0.16484,0.52335 q 0.0773,0.25188 0.0968,0.3683 v 0.30983 0.45561 0.45535 0.3294 q 0.56198,0.32941 1.12395,0.39714 a 1.6002,1.6002 0 0 0 0.19183,0.0116 1.8293291,1.8293291 0 0 0 0.93212,-0.27305 q 0.21299,0.19368 0.40693,0.10637 a 3.0546145,3.0546145 0 0 0 0.37783,-0.20347 0.77390624,0.77390624 0 0 1 0.37782,-0.12594 0.22172083,0.22172083 0 0 1 0.0111,-2.6e-4 0.51170416,0.51170416 0 0 1 0.3765,0.32014 1.2498917,1.2498917 0 0 1 0.56197,-0.31988 q 0.29078,-0.0677 0.60087,-0.0775 a 6.3068728,6.3068728 0 0 0 0.081,-0.003 8.4203645,8.4203645 0 0 0 0.22913,-0.21987 4.9694041,4.9694041 0 0 0 0.30983,-0.01 1.2231687,1.2231687 0 0 1 0.0765,-0.002 1.0210271,1.0210271 0 0 1 0.21431,0.022 0.49609374,0.49609374 0 0 1 0.10345,0.0328 1.2744979,1.2744979 0 0 0 0.18732,-0.12012 0.77681666,0.77681666 0 0 1 0.0281,0.20002 0.51831874,0.51831874 0 0 1 -0.008,0.10187 0.60563124,0.60563124 0 0 1 0.0773,0.18256 1.5464896,1.5464896 0 0 1 0.0542,0.38602 0.83317291,0.83317291 0 0 1 -0.12197,0.45694 5.1659895,5.1659895 0 0 1 -0.45561,0.61039 q -0.25189,0.29078 -0.40693,0.60087 -0.15505,0.31009 0.0775,0.79455 a 0.29871458,0.29871458 0 0 0 -0.28099,0.11615 q -0.0677,0.11642 -0.0968,0.26167 a 1.4165791,1.4165791 0 0 1 -0.0873,0.28099 0.35745208,0.35745208 0 0 1 -0.2323,0.19367 0.59689999,0.59689999 0 0 1 0.12594,0.40693 q 0.01,0.29078 0.0579,0.55245 a 0.91439999,0.91439999 0 0 0 0.17463,0.41672 q 0.12594,0.15505 0.47466,0.0193 0.25188,0.21325 0.6104,0.17436 a 4.2526479,4.2526479 0 0 1 0.4564,-0.0259 3.4006895,3.4006895 0 0 1 0.2122,0.007 q 0.2712,-0.17436 0.46513,-0.18415 a 1.2827,1.2827 0 0 1 0.064,-0.002 1.1310937,1.1310937 0 0 1 0.30401,0.0402 q 0.17463,0.0487 0.3683,0.0873 a 0.59610624,0.59610624 0 0 0 0.11695,0.0111 1.0482792,1.0482792 0 0 0 0.34819,-0.0693 q 0.0775,-0.32941 0.2712,-0.38762 0.19394,-0.0579 0.38761,-0.0677 a 1.2615333,1.2615333 0 0 0 0.35851,-0.0677 0.45164374,0.45164374 0 0 0 0.22278,-0.38761 q 0.15505,-0.19368 0.3683,-0.22278 a 12.040923,12.040923 0 0 0 0.43603,-0.068 q 0.22278,-0.0386 0.40693,-0.16457 a 0.76411666,0.76411666 0 0 0 0.26168,-0.49424 q 0.3294,-0.25188 0.47466,-0.37782 0.14525,-0.12595 0.24236,-0.20347 a 2.7127729,2.7127729 0 0 1 0.25188,-0.17436 q 0.15505,-0.0971 0.52308,-0.32941 a 3.2385,3.2385 0 0 1 0.004,0.14658 1.0742083,1.0742083 0 0 1 -0.0714,0.45403 q -0.0873,0.17436 -0.20347,0.28099 -0.11615,0.10662 -0.20346,0.23256 -0.0873,0.12595 -0.0873,0.43604 a 7.7776916,7.7776916 0 0 1 -0.71703,0.70723 3.9155687,3.9155687 0 0 1 -0.52308,0.3683 59.83208,59.83208 0 0 1 -0.56197,0.31962 q -0.31009,0.17462 -0.85275,0.54266 l -0.13573,0.0193 a 0.40243124,0.40243124 0 0 1 -0.20347,0.3392 1.0392833,1.0392833 0 0 1 -0.32941,0.0484 1.6475604,1.6475604 0 0 0 -0.35851,0.0389 q -0.17436,0.0386 -0.29051,0.32941 a 1.7385771,1.7385771 0 0 1 -0.4818,0.0807 0.96599374,0.96599374 0 0 1 -0.0802,-0.003 7.5152249,7.5152249 0 0 0 -0.60087,-0.0193 q -0.11615,0 -0.3003,-0.0196 a 1.1038417,1.1038417 0 0 0 -0.1151,-0.006 0.58816874,0.58816874 0 0 0 -0.18521,0.0259 0.37412083,0.37412083 0 0 0 -0.16483,0.10637 q -0.0871,0.0873 -0.18415,0.14552 a 0.32041041,0.32041041 0 0 1 -0.16616,0.0497 0.27807708,0.27807708 0 0 1 -0.0275,-0.001 0.25003125,0.25003125 0 0 1 -0.17436,-0.16484 0.91863332,0.91863332 0 0 1 -0.22304,0.0291 0.70432082,0.70432082 0 0 1 -0.20347,-0.0291 1.1242146,1.1242146 0 0 1 -0.36803,-0.19367 q -0.17436,-0.13574 -0.31988,-0.31989 a 8.7410395,8.7410395 0 0 0 -0.28099,-0.33893 q -0.0968,-0.11641 -0.21299,-0.21325 a 3.1829375,3.1829375 0 0 1 -0.21325,-0.19394 1.2493625,1.2493625 0 0 1 -0.3101,-0.5424 q -0.0968,-0.3294 -0.11615,-0.67839 a 4.1915291,4.1915291 0 0 1 -0.007,-0.23257 4.2084624,4.2084624 0 0 1 0.0259,-0.46487 3.7951833,3.7951833 0 0 1 0.11615,-0.62018 0.94562082,0.94562082 0 0 0 0.24236,-0.39741 5.2191708,5.2191708 0 0 0 0.11615,-0.45535 5.2191708,5.2191708 0 0 1 0.11642,-0.45534 0.94562082,0.94562082 0 0 1 0.24209,-0.39741 1.2168187,1.2168187 0 0 1 0.003,-0.0995 16.867452,16.867452 0 0 1 -1.03982,0.16748 45.204591,45.204591 0 0 0 -1.55998,0.22278 1.4343062,1.4343062 0 0 1 -0.21828,0.0172 1.2046479,1.2046479 0 0 1 -0.25665,-0.027 1.51765,1.51765 0 0 0 -0.32332,-0.0344 1.5898812,1.5898812 0 0 0 -0.13203,0.006 3.044825,3.044825 0 0 1 -0.25188,-0.01 0.93292082,0.93292082 0 0 0 -0.0775,-0.003 0.94138749,0.94138749 0 0 0 -0.15505,0.013 0.66198749,0.66198749 0 0 0 -0.58129,0.3003 q -0.13573,0.26168 -0.22278,0.60061 a 4.6389395,4.6389395 0 0 1 -0.21325,0.63949 0.75485624,0.75485624 0 0 1 -0.53287,0.41672 0.1825625,0.1825625 0 0 0 -0.0143,0.068 0.15901458,0.15901458 0 0 0 0.0434,0.10636 1.3559896,1.3559896 0 0 1 0.10637,0.13573 q -0.32941,0.0968 -0.43604,0.34873 a 5.2726166,5.2726166 0 0 0 -0.18388,0.50403 1.2152312,1.2152312 0 0 1 -0.22305,0.42624 0.45111458,0.45111458 0 0 1 -0.36512,0.1307 1.3305896,1.3305896 0 0 1 -0.18706,-0.0145 4.8254708,4.8254708 0 0 1 -1.41473,1.0369 q -0.81386,0.39714 -1.68592,0.51356 -0.15505,-0.0775 -0.30031,-0.19394 -0.14525,-0.11615 -0.29077,-0.21299 -0.14526,-0.0971 -0.3101,-0.14552 a 0.69876457,0.69876457 0 0 0 -0.1979,-0.0267 1.0070042,1.0070042 0 0 0 -0.17992,0.0172 2.2246166,2.2246166 0 0 0 -0.16457,-0.75592 q -0.14552,-0.34872 -0.37809,-0.65881 a 1.4615583,1.4615583 0 0 1 -0.009,-0.1614 1.2483042,1.2483042 0 0 1 0.0963,-0.48789 16.343841,16.343841 0 0 1 0.0667,-0.15663 0.56382708,0.56382708 0 0 1 -0.0278,0.0114 1.0980208,1.0980208 0 0 1 -0.39741,0.0582 q 0,0.0582 -0.20346,0.2421 a 35.214983,35.214983 0 0 1 -0.43604,0.38761 q -0.23257,0.20347 -0.42624,0.38762 a 0.59107916,0.59107916 0 0 0 -0.19394,0.24235 z m 2.92629,0.19368 0.42625,-0.29078 a 0.31088541,0.31088541 0 0 1 0.12594,0.11642 0.17065625,0.17065625 0 0 1 0.027,0.0921 0.22145625,0.22145625 0 0 1 -0.0172,0.0823 q 0.15504,-0.15505 0.34872,-0.24236 a 2.2182666,2.2182666 0 0 1 0.3974,-0.13547 9.1424124,9.1424124 0 0 1 0.40693,-0.0873 2.1510625,2.1510625 0 0 0 0.39714,-0.11615 1.11125,1.11125 0 0 0 0.50694,0.17251 0.3159125,0.3159125 0 0 0 0.19077,-0.0564 q 0.21325,-0.15504 0.34872,-0.46514 0.13573,-0.31009 0.29077,-0.64902 0.15505,-0.33919 0.50377,-0.41672 l -0.13547,-0.13573 a 7.3466853,7.3466853 0 0 0 0.59108,-0.84296 1.7237604,1.7237604 0 0 0 0.24342,-0.90408 2.0825354,2.0825354 0 0 0 -0.001,-0.0744 q -0.38762,0 -0.6686,-0.18415 a 6.2899395,6.2899395 0 0 1 -0.56198,-0.41672 q -0.28099,-0.23257 -0.58129,-0.43603 a 1.5179146,1.5179146 0 0 0 -0.72681,-0.2421 2.8604104,2.8604104 0 0 1 -0.40693,0.43604 2.8604104,2.8604104 0 0 0 -0.40693,0.43577 1.3985875,1.3985875 0 0 0 -0.24209,0.50403 0.70802499,0.70802499 0 0 0 -0.0206,0.17224 1.11125,1.11125 0 0 0 0.10769,0.44794 1.1308292,1.1308292 0 0 0 -0.60061,0.61039 3.3030583,3.3030583 0 0 0 -0.20346,0.86228 q -0.0484,0.46514 -0.0873,0.93028 -0.0386,0.46487 -0.25189,0.83317 z m 4.88342,-6.12378 a 6.2870291,6.2870291 0 0 0 0.15504,-0.64902 1.6134291,1.6134291 0 0 0 0.0267,-0.28893 1.4099646,1.4099646 0 0 0 -0.0365,-0.32147 q -0.0677,-0.29078 -0.37782,-0.52334 a 0.97419582,0.97419582 0 0 0 -0.34872,0.31988 l -0.27147,0.40693 q -0.13546,0.20346 -0.31961,0.33919 a 0.50799999,0.50799999 0 0 1 -0.31009,0.0947 0.84190416,0.84190416 0 0 1 -0.16484,-0.0175 0.55456666,0.55456666 0 0 0 -0.0484,0.21087 0.29421666,0.29421666 0 0 0 0.0484,0.16722 1.5234708,1.5234708 0 0 0 0.23257,0.2712 q 0.13573,0.12594 0.26167,0.26167 0.12594,0.13573 0.0873,0.34872 0.0775,0.0582 0.21299,0.10663 0.13574,0.0484 0.28099,0.0582 a 0.86783332,0.86783332 0 0 0 0.058,0.002 0.80856666,0.80856666 0 0 0 0.22304,-0.031 0.314325,0.314325 0 0 0 0.19394,-0.13573 2.2018625,2.2018625 0 0 1 0.0968,-0.62018 z m -76.739491,6.41456 -0.251883,0.0386 -0.01932,0.0389 a 2.9752395,2.9752395 0 0 0 -0.591079,0.17436 3.063875,3.063875 0 0 1 -0.571765,0.17436 39.297239,39.297239 0 0 0 -0.484452,0.0775 4.5963416,4.5963416 0 0 0 -0.503766,0.11616 1.5610416,1.5610416 0 0 0 -0.426509,0.19394 0.97234374,0.97234374 0 0 1 -0.445558,0.15504 1.5808854,1.5808854 0 0 1 -0.14314,0.006 1.7068271,1.7068271 0 0 1 -0.292893,-0.0259 2.5537583,2.5537583 0 0 1 -0.436034,-0.11615 0.25929166,0.25929166 0 0 0 -0.09684,-0.0193 0.25929166,0.25929166 0 0 0 -0.0971,0.0193 2.5561396,2.5561396 0 0 0 -0.193675,0.0873 1.927225,1.927225 0 0 1 -0.203465,0.0871 q -0.106627,0.0389 -0.222779,0 a 4.0232541,4.0232541 0 0 1 -0.387614,-0.15505 3.8787916,3.8787916 0 0 0 -0.213255,-0.0775 0.67892082,0.67892082 0 0 0 -0.213254,-0.0386 q -0.07726,0 -0.242094,-0.0582 -0.164835,-0.0582 -0.339195,-0.14525 a 2.9728583,2.9728583 0 0 1 -0.319617,-0.18415 0.53339999,0.53339999 0 0 1 -0.18415,-0.17436 q -0.116417,-0.17436 -0.261673,-0.3003 a 0.97260832,0.97260832 0 0 1 -0.242094,-0.3392 0.65431458,0.65431458 0 0 0 -0.08731,-0.11642 0.18388541,0.18388541 0 0 0 -0.106627,-0.0775 q -0.03863,0 -0.05821,-0.0775 -0.01931,-0.0775 -0.03863,-0.18389 a 2.8553833,2.8553833 0 0 1 -0.0291,-0.19394 l -0.0095,-0.0871 a 3.9301208,3.9301208 0 0 1 -0.068,-0.33919 2.1862521,2.1862521 0 0 1 -0.0291,-0.3392 v -0.38761 a 0.69506041,0.69506041 0 0 0 -0.116152,-0.34872 0.1635125,0.1635125 0 0 1 -0.03493,-0.10002 0.200025,0.200025 0 0 1 0.01561,-0.0743 0.75829582,0.75829582 0 0 1 0.09684,-0.17436 0.47386874,0.47386874 0 0 0 0.125941,-0.19394 q 0.0291,-0.0968 0.03863,-0.19368 a 1.5679208,1.5679208 0 0 1 0.0291,-0.18415 0.28707291,0.28707291 0 0 1 0.135731,-0.16483 0.40666458,0.40666458 0 0 0 0.135731,-0.20347 0.52996041,0.52996041 0 0 0 0.02566,-0.15504 0.34528125,0.34528125 0 0 0 -0.0063,-0.0677 q 0,-0.21325 0.213254,-0.33919 a 1.1091333,1.1091333 0 0 0 0.329406,-0.28099 q 0.116152,-0.15505 0.183886,-0.36804 0.068,-0.21325 0.145521,-0.40693 a 0.56118124,0.56118124 0 0 1 0.222779,-0.24235 q 0.164835,-0.10663 0.339196,-0.21326 a 1.7756187,1.7756187 0 0 0 0.329406,-0.26141 0.82153124,0.82153124 0 0 0 0.213254,-0.40693 0.06932083,0.06932083 0 0 0 0.0064,-0.0312 0.24791458,0.24791458 0 0 0 -0.02593,-0.095 0.28495625,0.28495625 0 0 0 -0.09684,-0.12594 q -0.05821,-0.0386 -0.135731,-0.0871 a 0.65907708,0.65907708 0 0 0 -0.135467,-0.068 0.63791041,0.63791041 0 0 1 -0.261673,-0.26141 0.83925832,0.83925832 0 0 0 -0.242358,-0.28099 q -0.155046,-0.11641 -0.348721,-0.19393 a 0.36247916,0.36247916 0 0 1 -0.232568,-0.29052 2.0171833,2.0171833 0 0 0 -0.116153,-0.30056 0.66622082,0.66622082 0 0 1 -0.07752,-0.26141 q 0,-0.15505 -0.01958,-0.28099 a 1.7189979,1.7189979 0 0 1 -0.01931,-0.26167 0.92524791,0.92524791 0 0 1 -0.01111,-0.14076 0.77443541,0.77443541 0 0 1 0.06932,-0.32438 0.54371874,0.54371874 0 0 0 0.04842,-0.22781 0.76411666,0.76411666 0 0 0 -0.04842,-0.25664 172.22364,172.22364 0 0 1 0.145256,-0.71702 2.1119041,2.1119041 0 0 1 0.242359,-0.67813 q 0.03863,-0.0775 0.125941,-0.17462 a 0.58658124,0.58658124 0 0 1 0.164571,-0.13547 q 0.19394,-0.11642 0.290777,-0.32941 0.09684,-0.17462 0.251884,-0.29077 a 0.73051457,0.73051457 0 0 0 0.261673,-0.3392 q 0.106627,-0.24209 0.145256,-0.41672 0.05821,-0.2323 0.271462,-0.30983 a 0.26934583,0.26934583 0 0 0 0.164571,-0.13573 4.4979166,4.4979166 0 0 0 0.08731,-0.18415 4.0145229,4.0145229 0 0 1 0.07752,-0.16457 0.17647708,0.17647708 0 0 1 0.09684,-0.0971 0.11403542,0.11403542 0 0 0 0.09975,-0.0947 0.08810625,0.08810625 0 0 0 -0.0029,-0.0214 q 0.07752,-0.0582 0.232569,-0.0582 0.07752,0 0.271463,-0.10663 a 9.671579,9.671579 0 0 0 0.290512,-0.16457 l 0.155046,-0.11642 a 0.77972707,0.77972707 0 0 0 0.251883,-0.3294 0.62970833,0.62970833 0 0 1 0.271463,-0.31009 q 0.193675,-0.11616 0.368035,-0.22278 a 2.4000354,2.4000354 0 0 0 0.329407,-0.24236 q 0.0971,-0.0773 0.193939,-0.13547 l 0.193675,-0.11641 a 2.1116396,2.1116396 0 0 1 0.600869,-0.28099 q 0.310092,-0.0871 0.639498,-0.18389 a 0.43709166,0.43709166 0 0 0 0.242094,-0.23257 0.47624999,0.47624999 0 0 1 0.377825,-0.23256 q 0.0971,-0.0196 0.174625,-0.0196 h 0.17436 a 0.17436041,0.17436041 0 0 0 0.135731,-0.0677 0.45852291,0.45852291 0 0 0 0.08705,-0.15504 l 0.05821,-0.17436 q 0.02911,-0.0873 0.06773,-0.10663 0.01931,-0.0193 0.0291,-0.0193 0.0098,0 0.0291,-0.0193 a 12.319264,12.319264 0 0 1 0.474663,-0.0873 1.1607271,1.1607271 0 0 0 0.455612,-0.22278 q 0.193675,-0.11642 0.38735,-0.0775 a 0.3286125,0.3286125 0 0 0 0.06482,0.006 0.46513749,0.46513749 0 0 0 0.322792,-0.1614 0.37676666,0.37676666 0 0 1 0.261673,-0.1307 0.27437291,0.27437291 0 0 1 0.08731,0.0143 0.65219791,0.65219791 0 0 0 0.155046,0.0156 2.1926021,2.1926021 0 0 0 0.348721,-0.0349 q 0.348721,-0.0582 0.523081,-0.0968 a 1.2369271,1.2369271 0 0 0 0.300567,0.0386 0.85328124,0.85328124 0 0 1 0.300302,0.0582 q 0.329406,0.13573 0.561975,0.15504 0.09684,0.0193 0.203464,0.0193 0.106627,0 0.203465,0.0196 a 0.84640207,0.84640207 0 0 0 0.18415,0.12594 0.50085624,0.50085624 0 0 1 0.116152,0.0677 0.68527082,0.68527082 0 0 1 0.0971,0.0968 1.4512396,1.4512396 0 0 1 0.125942,0.19394 q 0.01931,0.0386 0.08705,0.10663 a 2.9889979,2.9889979 0 0 0 0.145256,0.13546 0.66701457,0.66701457 0 0 1 0.116417,0.12595 q 0.03863,0.0582 -0.01932,0.0582 a 0.0904875,0.0904875 0 0 0 -0.03096,0.0868 0.43497499,0.43497499 0 0 0 0.0019,0.0392 3.8017979,3.8017979 0 0 0 0.0291,0.23256 2.0984104,2.0984104 0 0 0 0.04842,0.23257 0.68183124,0.68183124 0 0 1 0.0291,0.14526 0.42677291,0.42677291 0 0 1 0.0077,0.0839 0.71516874,0.71516874 0 0 1 -0.01746,0.1487 0.92207291,0.92207291 0 0 1 -0.06773,0.21325 1.1731625,1.1731625 0 0 0 -0.125942,0.48445 q -0.0098,0.25189 -0.106627,0.50377 a 0.79745416,0.79745416 0 0 1 -0.145521,0.27146 q -0.106362,0.13547 -0.16457,0.2712 -0.09684,0.15505 -0.125942,0.32941 a 2.295525,2.295525 0 0 1 -0.08731,0.34872 0.20611041,0.20611041 0 0 0 -0.0095,0.0656 0.37094583,0.37094583 0 0 0 0.0095,0.0799 0.23124583,0.23124583 0 0 1 0.0066,0.0484 0.02989792,0.02989792 0 0 1 -0.02593,0.0386 0.30559375,0.30559375 0 0 1 -0.106627,0.0484 0.16880416,0.16880416 0 0 0 -0.08705,0.0487 0.23547916,0.23547916 0 0 0 -0.02593,0.14208 1.7777354,1.7777354 0 0 0 0.0063,0.13891 1.8854208,1.8854208 0 0 1 0.0066,0.14949 0.84693124,0.84693124 0 0 1 -0.02593,0.22833 1.0189104,1.0189104 0 0 1 -0.155046,0.25189 5.7901416,5.7901416 0 0 0 -0.18415,0.23256 0.95038332,0.95038332 0 0 0 -0.135466,0.25189 0.37570833,0.37570833 0 0 0 -0.02222,0.12726 0.46434374,0.46434374 0 0 0 0.03175,0.16351 0.15451666,0.15451666 0 0 1 0.005,0.0373 0.13546666,0.13546666 0 0 1 -0.04366,0.0982 0.45481874,0.45481874 0 0 1 -0.155045,0.0968 2.3055791,2.3055791 0 0 1 -0.19394,0.068 q -0.09684,0.0291 -0.154781,0.0484 a 0.87418332,0.87418332 0 0 0 -0.18415,0.13573 2.3664333,2.3664333 0 0 0 -0.213254,0.22278 q -0.106628,0.12594 -0.203465,0.24209 -0.09684,0.11642 -0.155046,0.17462 a 0.50112083,0.50112083 0 0 1 -0.319617,0.19368 0.85513332,0.85513332 0 0 0 -0.35851,0.15505 0.85222291,0.85222291 0 0 1 -0.348985,0.15504 0.33416875,0.33416875 0 0 1 -0.06562,0.006 0.40216666,0.40216666 0 0 1 -0.137848,-0.0257 1.1750146,1.1750146 0 0 1 -0.203465,-0.0971 0.84454999,0.84454999 0 0 1 -0.232568,-0.25188 0.43206458,0.43206458 0 0 1 -0.06773,-0.23257 1.2620625,1.2620625 0 0 1 -0.0024,-0.0786 1.5258521,1.5258521 0 0 1 0.0217,-0.25082 16.60181,16.60181 0 0 1 0.05821,-0.32941 1.3792729,1.3792729 0 0 1 0.06773,-0.25188 1.7327562,1.7327562 0 0 0 0.03889,-0.40693 v -0.40693 a 0.28336875,0.28336875 0 0 1 0.05794,-0.17436 q 0.05821,-0.0775 0.135731,-0.16484 a 4.6402624,4.6402624 0 0 0 0.155046,-0.18415 q 0.07752,-0.0968 0.09684,-0.25188 a 0.23045208,0.23045208 0 0 1 0.116416,-0.15505 0.60907083,0.60907083 0 0 1 0.193675,-0.0775 2.9752395,2.9752395 0 0 0 0.232569,-0.0484 q 0.116152,-0.0291 0.213254,-0.12594 0.155046,-0.15505 0.193675,-0.35851 0.03889,-0.20347 0.213254,-0.35851 a 0.74321457,0.74321457 0 0 1 0.358511,-0.20347 0.74321457,0.74321457 0 0 0 0.35851,-0.20346 8.5624457,8.5624457 0 0 0 0.406929,-0.43603 0.72575207,0.72575207 0 0 0 0.176213,-0.49319 1.0048875,1.0048875 0 0 0 -0.0019,-0.059 v -0.19394 a 0.51831874,0.51831874 0 0 1 0.03863,-0.19367 0.53974999,0.53974999 0 0 1 0.03889,-0.11642 1.8777479,1.8777479 0 0 0 0.06773,-0.20346 0.55165624,0.55165624 0 0 0 0.02196,-0.14341 0.32728958,0.32728958 0 0 0 -0.0024,-0.0405 0.07090833,0.07090833 0 0 0 -0.068,-0.0775 0.90672707,0.90672707 0 0 0 -0.35851,-0.22305 q -0.203465,-0.0677 -0.300302,-0.20346 a 0.28336875,0.28336875 0 0 0 -0.135731,-0.0968 q -0.155046,0.0775 -0.164571,0.16484 -0.0098,0.087 -0.106627,0.18388 a 0.2079625,0.2079625 0 0 1 -0.148432,0.0693 0.20452291,0.20452291 0 0 1 -0.06482,-0.0111 0.21881041,0.21881041 0 0 0 -0.0807,-0.013 0.90064166,0.90064166 0 0 0 -0.258234,0.0519 6.6585041,6.6585041 0 0 1 -0.397404,0.11616 0.9300104,0.9300104 0 0 1 -0.223308,0.0309 0.57890833,0.57890833 0 0 1 -0.04789,-0.002 38.197895,38.197895 0 0 0 -0.242358,-0.0193 1.1086042,1.1086042 0 0 0 -0.08493,-0.003 1.2480396,1.2480396 0 0 0 -0.176742,0.013 0.65087499,0.65087499 0 0 0 -0.290512,0.13573 q -0.135732,0.11615 -0.251884,0.25189 -0.116416,0.15504 -0.290777,0.24235 -0.17436,0.0871 -0.310092,0.22278 -0.07752,0.0775 -0.17436,0.0873 a 0.97313749,0.97313749 0 0 1 -0.09684,0.005 0.97313749,0.97313749 0 0 1 -0.0971,-0.005 0.99774374,0.99774374 0 0 0 -0.09922,-0.005 1.1504083,1.1504083 0 0 0 -0.104246,0.005 q -0.106363,0.01 -0.183886,0.10636 a 1.6488833,1.6488833 0 0 1 -0.193939,0.15504 q -0.135467,0.0971 -0.290513,0.18415 l -0.310091,0.17436 a 1.0768542,1.0768542 0 0 1 -0.232569,0.10663 q -0.213254,0.0775 -0.348985,0.25188 a 0.59557708,0.59557708 0 0 1 -0.251884,0.21326 q -0.116152,0.0386 -0.155046,0.0775 a 0.63923333,0.63923333 0 0 1 -0.271198,0.0484 0.64717083,0.64717083 0 0 0 -0.3683,0.12594 0.42015833,0.42015833 0 0 0 -0.116152,0.13573 4.0116124,4.0116124 0 0 1 -0.09684,0.15505 q -0.155046,0.36803 -0.436033,0.6686 a 1.4859,1.4859 0 0 1 -0.668603,0.41646 q -0.155045,0.0389 -0.242358,0.14552 -0.08705,0.10636 -0.145256,0.25188 l -0.116152,0.29051 a 0.96599374,0.96599374 0 0 1 -0.155046,0.26167 l -0.271463,0.27147 q -0.155045,0.15478 -0.222779,0.30982 -0.06773,0.15505 -0.164835,0.34899 -0.09684,0.19367 -0.203465,0.34872 a 6.9926728,6.9926728 0 0 1 -0.242093,0.32941 q -0.07752,0.0775 -0.125942,0.17436 a 2.5561396,2.5561396 0 0 0 -0.08731,0.19394 0.41460208,0.41460208 0 0 0 -0.03096,0.15504 0.38920208,0.38920208 0 0 0 0.0019,0.0386 2.1531791,2.1531791 0 0 1 0.0098,0.21326 q 0,0.48445 0.09684,0.79454 a 0.73739374,0.73739374 0 0 0 0.658813,0.40693 0.73368957,0.73368957 0 0 1 0.378089,0.19367 q 0.164571,0.15505 0.39714,0.15505 0.213254,0 0.406929,0.0971 a 0.2809875,0.2809875 0 0 0 0.06826,0.008 0.52308124,0.52308124 0 0 0 0.125677,-0.0175 q 0.116152,-0.0291 0.17436,-0.10663 0.135467,-0.13573 0.290513,-0.23256 0.155045,-0.0968 0.310091,-0.21299 0.135732,-0.0971 0.348986,-0.0775 a 0.58499374,0.58499374 0 0 0 0.05292,0.002 0.60854166,0.60854166 0 0 0 0.354013,-0.11879 0.38655625,0.38655625 0 0 1 0.232569,-0.0871 0.31855833,0.31855833 0 0 1 0.07752,0.01 1.8663708,1.8663708 0 0 0 0.53287,-0.0775 1.3057187,1.3057187 0 0 1 0.362744,-0.0619 0.66383957,0.66383957 0 0 1 0.07329,0.004 q 0.17436,0.0389 0.222779,0.16484 a 0.77734582,0.77734582 0 0 1 0.04842,0.28099 1.1308292,1.1308292 0 0 1 -0.04842,0.31961 8.4185124,8.4185124 0 0 1 -0.08731,0.28125 0.04630208,0.04630208 0 0 0 -0.0056,0.0204 0.04365625,0.04365625 0 0 0 0.03466,0.0376 q 0.04842,0.0193 0.08731,0.0193 a 0.09419167,0.09419167 0 0 1 0.04842,0.0196 0.022225,0.022225 0 0 1 0.01243,0.0164 0.03148542,0.03148542 0 0 1 -0.02222,0.0222 0.04947708,0.04947708 0 0 1 -0.01931,0.0484 0.104775,0.104775 0 0 0 -0.03863,0.0484 q -0.155045,0.19394 -0.252147,0.27146 a 1.0977562,1.0977562 0 0 1 -0.193675,0.12594 1.927225,1.927225 0 0 1 -0.203465,0.0871 1.0871729,1.0871729 0 0 0 -0.261673,0.15505 6.402652,6.402652 0 0 1 -0.18415,0.10662 q -0.08705,0.0484 -0.183885,0.0873 a 0.40904583,0.40904583 0 0 1 -0.129911,0.0222 0.352425,0.352425 0 0 1 -0.09313,-0.0127 4.205552,4.205552 0 0 1 -0.222779,-0.0677 4.205552,4.205552 0 0 0 -0.222779,-0.0677 0.33946041,0.33946041 0 0 0 -0.08969,-0.0124 0.30400625,0.30400625 0 0 0 -0.113771,0.022 0.56726666,0.56726666 0 0 0 -0.155046,0.0971 1.8280062,1.8280062 0 0 0 -0.135731,0.11615 0.71993124,0.71993124 0 0 1 -0.3683,0.13573 0.27410833,0.27410833 0 0 0 -0.183886,0.0775 q -0.08731,0.0775 -0.125941,0.17436 a 0.32411458,0.32411458 0 0 1 -0.145521,0.13573 1.939925,1.939925 0 0 1 -0.17436,0.0677 0.57837916,0.57837916 0 0 0 -0.164571,0.0873 q -0.07752,0.0579 -0.135732,0.19367 a 1.793875,1.793875 0 0 1 -0.300302,0.52308 q -0.203464,0.25215 -0.436033,0.4072 -0.155046,0.0968 -0.397404,0.21298 -0.242094,0.11642 -0.339196,0.25189 -0.09684,0.15504 -0.07752,0.38761 a 0.79507291,0.79507291 0 0 1 0.0029,0.0661 0.78263749,0.78263749 0 0 1 -0.09975,0.37968 1.3168312,1.3168312 0 0 1 -0.251884,0.3294 q -0.09684,0.0968 -0.106627,0.18415 a 1.6687271,1.6687271 0 0 0 -0.0095,0.18415 1.946275,1.946275 0 0 1 -0.0098,0.19368 q -0.0098,0.0968 -0.106627,0.19367 a 0.17330208,0.17330208 0 0 0 -0.04604,0.11086 0.18203333,0.18203333 0 0 0 0.05583,0.12171 q 0.106627,0.11642 0.164571,0.25188 a 0.85354582,0.85354582 0 0 1 0.03492,0.2466 1.0937875,1.0937875 0 0 1 -0.01535,0.17991 0.20505208,0.20505208 0 0 0 -0.004,0.0402 0.39899166,0.39899166 0 0 0 0.06191,0.19235 q 0.07752,0.13547 0.203465,0.25188 0.125941,0.11616 0.261672,0.19368 a 0.34845625,0.34845625 0 0 0 0.172244,0.0519 0.25029583,0.25029583 0 0 0 0.07964,-0.013 0.16536458,0.16536458 0 0 1 0.06138,-0.013 0.13467291,0.13467291 0 0 1 0.103452,0.0516 1.3559896,1.3559896 0 0 1 0.106627,0.13573 q 0.116152,0.21326 0.300302,0.20347 0.18415,-0.01 0.39714,-0.0677 a 0.52572708,0.52572708 0 0 1 0.103452,-0.0103 0.58525833,0.58525833 0 0 1 0.284162,0.0781 q 0.19394,0.10663 0.40693,0.10663 a 1.2488333,1.2488333 0 0 0 0.155045,-0.01 1.2488333,1.2488333 0 0 1 0.155046,-0.01 0.58790416,0.58790416 0 0 0 0.174361,-0.0196 0.63208958,0.63208958 0 0 0 0.35851,-0.0968 1.2747625,1.2747625 0 0 0 0.261673,-0.23256 0.2905125,0.2905125 0 0 1 0.18415,-0.0871 q 0.106627,-0.01 0.213254,-0.01 0.106363,0 0.21299,-0.01 0.106627,-0.01 0.18415,-0.10663 a 0.21537083,0.21537083 0 0 1 0.164835,-0.0968 0.49609374,0.49609374 0 0 1 0.183886,0.0389 0.314325,0.314325 0 0 0 0.09975,0.0172 0.250825,0.250825 0 0 0 0.113506,-0.027 q 0.09684,-0.0484 0.17436,-0.10663 0.07752,-0.0579 0.174361,-0.10663 a 0.327025,0.327025 0 0 1 0.148431,-0.0344 0.39422916,0.39422916 0 0 1 0.06482,0.006 q 0.251883,0.0386 0.387614,-0.17462 0.116152,-0.17436 0.329407,-0.18389 a 0.66754374,0.66754374 0 0 0 0.387614,-0.14552 q 0.155046,-0.11615 0.271198,-0.2712 a 0.3063875,0.3063875 0 0 1 0.19394,-0.11641 0.47069374,0.47069374 0 0 1 0.07752,-0.006 0.48762708,0.48762708 0 0 1 0.155045,0.0259 0.75062291,0.75062291 0 0 0 0.146315,0.013 1.2109979,1.2109979 0 0 0 0.08625,-0.003 q 0.135467,-0.01 0.21299,-0.0871 a 2.8836937,2.8836937 0 0 0 0.280987,-0.28098 0.79904166,0.79904166 0 0 1 0.339196,-0.22305 18.275564,18.275564 0 0 1 0.348721,-0.15478 q 0.135731,-0.0582 0.290777,-0.27146 a 0.26061458,0.26061458 0 0 1 0.235215,-0.13838 0.45428958,0.45428958 0 0 1 0.133085,0.0222 0.22595416,0.22595416 0 0 0 0.08414,0.0172 0.2032,0.2032 0 0 0 0.09975,-0.027 q 0.08731,-0.0484 0.155046,-0.10663 0.068,-0.0582 0.145521,-0.12594 a 0.37200416,0.37200416 0 0 1 0.17436,-0.0871 0.64108541,0.64108541 0 0 0 0.445559,-0.3683 0.71252291,0.71252291 0 0 0 0.3683,-0.10663 q 0.116152,-0.087 0.271198,-0.087 a 0.44608749,0.44608749 0 0 0 0.174625,-0.0582 q 0.116152,-0.0582 0.232304,-0.13573 0.116417,-0.0775 0.223044,-0.14526 a 0.36618333,0.36618333 0 0 1 0.145256,-0.068 q 0.09684,-0.0193 0.18415,-0.0193 a 0.49609374,0.49609374 0 0 0 0.18415,-0.0386 0.16298333,0.16298333 0 0 1 0.06033,-0.013 0.11509375,0.11509375 0 0 1 0.09472,0.0516 q 0.05794,0.0775 0.09684,0.15504 a 0.0904875,0.0904875 0 0 1 0.0042,0.0288 0.31538333,0.31538333 0 0 1 -0.05265,0.14552 q -0.068,0.11642 -0.17436,0.23257 a 6.8069353,6.8069353 0 0 1 -0.203729,0.21326 0.47042916,0.47042916 0 0 1 -0.154781,0.11615 0.60272083,0.60272083 0 0 0 -0.174625,0.10663 0.42571458,0.42571458 0 0 0 -0.116152,0.16483 q -0.213255,0.61992 -0.872067,0.77497 a 0.26087916,0.26087916 0 0 0 -0.174361,0.0971 2.0420541,2.0420541 0 0 0 -0.116416,0.17436 q -0.05794,0.0968 -0.116152,0.18415 -0.05821,0.0871 -0.155046,0.14525 -0.271198,0.13574 -0.610394,0.14526 a 0.85275207,0.85275207 0 0 0 -0.571764,0.22304 0.9712854,0.9712854 0 0 0 -0.261673,0.37783 0.66489791,0.66489791 0 0 1 -0.280988,0.33893 0.59689999,0.59689999 0 0 1 -0.312473,0.0873 0.69188541,0.69188541 0 0 1 -0.113771,-0.01 0.61647916,0.61647916 0 0 0 -0.101335,-0.008 0.55562499,0.55562499 0 0 0 -0.324908,0.10557 0.48630416,0.48630416 0 0 0 -0.155046,0.13546 0.77099582,0.77099582 0 0 0 -0.116417,0.19394 q -0.05794,0.0775 -0.164571,0.12594 a 0.49186041,0.49186041 0 0 1 -0.203464,0.0484 q -0.232569,-0.0193 -0.445823,0.0775 a 1.8126604,1.8126604 0 0 1 -0.426244,0.13573 z m 12.654227,-10.52275 0.155046,0.13573 a 1.6295687,1.6295687 0 0 0 -0.649288,0.38762 5.8671353,5.8671353 0 0 0 -0.532871,0.59108 24.512058,24.512058 0 0 0 -0.493977,0.64902 q -0.242358,0.32941 -0.513556,0.56198 -0.135731,0.54266 -0.416719,1.00779 a 70.231793,70.231793 0 0 0 -0.552185,0.93001 q -0.155046,0.29078 -0.223044,0.48446 a 7.5149603,7.5149603 0 0 1 -0.18415,0.46513 q -0.03863,0.0968 -0.08705,0.18415 -0.04842,0.0873 -0.08731,0.18415 -0.116152,0.42625 -0.203465,0.83318 a 1.1972396,1.1972396 0 0 1 -0.455348,0.6977 q 0.05821,0.15505 0.106627,0.29078 0.04842,0.13547 0.18415,0.2712 -0.213254,0.11615 -0.242358,0.28099 a 0.72522291,0.72522291 0 0 0 -0.01085,0.1262 0.87338957,0.87338957 0 0 0 0.03016,0.22252 2.1206354,2.1206354 0 0 0 0.135731,0.3683 0.83449582,0.83449582 0 0 1 0.08731,0.35851 0.77390624,0.77390624 0 0 1 0.426244,0.17436 21.298958,21.298958 0 0 0 0.39714,0.31009 2.0497271,2.0497271 0 0 0 0.397404,0.24236 0.37994166,0.37994166 0 0 0 0.157691,0.0341 0.53604583,0.53604583 0 0 0 0.268552,-0.0828 0.81650416,0.81650416 0 0 0 0.198173,0.0259 0.65404999,0.65404999 0 0 0 0.09261,-0.006 3.8650333,3.8650333 0 0 1 0.271197,-0.0291 0.54107291,0.54107291 0 0 1 0.03863,-10e-4 0.52678541,0.52678541 0 0 1 0.223043,0.0497 q 0.125942,0.0582 0.261673,0.23257 a 0.57176458,0.57176458 0 0 1 0.368036,-0.34899 q 0.232568,-0.0579 0.494241,-0.0579 0.261673,0 0.503767,-0.0193 0.242358,-0.0196 0.416719,-0.23257 a 0.57732083,0.57732083 0 0 0 0.354012,0.1614 0.30347708,0.30347708 0 0 0 0.06271,-0.006 0.80883124,0.80883124 0 0 0 0.34872,-0.17463 15.579725,15.579725 0 0 1 0.339196,-0.27119 0.61621458,0.61621458 0 0 1 0.387615,-0.13573 2.238375,2.238375 0 0 0 0.813858,-0.13547 5.4041145,5.4041145 0 0 0 0.678127,-0.31988 21.936868,21.936868 0 0 1 0.668602,-0.35851 2.7318229,2.7318229 0 0 1 0.785019,-0.25189 q 0.193675,-0.29077 0.455348,-0.41671 a 6.8505916,6.8505916 0 0 1 0.542396,-0.23257 q 0.281252,-0.10637 0.54266,-0.2712 a 1.4962187,1.4962187 0 0 0 0.474927,-0.53287 1.1347979,1.1347979 0 0 0 0.05662,0.001 0.80750832,0.80750832 0 0 0 0.09419,-0.003 1.5647458,1.5647458 0 0 1 0.08176,-0.27966 0.48603958,0.48603958 0 0 1 0.271198,-0.24236 q -0.155046,-0.46514 0.04842,-0.68791 0.203464,-0.22278 0.494241,-0.39714 0.290513,-0.17436 0.542661,-0.38762 a 0.60324999,0.60324999 0 0 0 0.204523,-0.4871 1.1292417,1.1292417 0 0 0 -0.01085,-0.1524 q 0.116152,-0.11641 0.271198,-0.19394 a 12.36345,12.36345 0 0 1 0.300566,-0.14525 q 0.145256,-0.0677 0.280988,-0.14526 0.135466,-0.0775 0.251883,-0.21325 a 0.24235833,0.24235833 0 0 1 -0.126735,-0.18071 0.12964583,0.12964583 0 0 1 7.93e-4,-0.013 0.84216874,0.84216874 0 0 1 0.04842,-0.20346 5.2104395,5.2104395 0 0 1 0.08705,-0.22305 0.27305,0.27305 0 0 0 0.02222,-0.10557 0.28151666,0.28151666 0 0 0 -0.03175,-0.127 1.7854083,1.7854083 0 0 0 0.261673,0.0201 1.3231812,1.3231812 0 0 0 0.658812,-0.16536 13.754629,13.754629 0 0 0 0.75565,-0.45535 2.5093083,2.5093083 0 0 1 0.726811,-0.32941 q 0.368035,-0.0968 0.852487,0.23257 0.03889,0.13547 0.126207,0.39714 a 52.159958,52.159958 0 0 1 0.17436,0.53287 43.934856,43.934856 0 0 1 0.164571,0.52335 q 0.07752,0.25188 0.0971,0.3683 v 0.30983 0.45561 0.45535 0.3294 q 0.561975,0.32941 1.12395,0.39714 a 1.6002,1.6002 0 0 0 0.191823,0.0116 1.8293291,1.8293291 0 0 0 0.932127,-0.27305 q 0.212989,0.19368 0.406929,0.10637 a 3.0546145,3.0546145 0 0 0 0.377825,-0.20347 0.77390624,0.77390624 0 0 1 0.377825,-0.12594 0.22172083,0.22172083 0 0 1 0.01111,-2.6e-4 0.51170416,0.51170416 0 0 1 0.376502,0.32014 1.2498917,1.2498917 0 0 1 0.561975,-0.31988 q 0.290777,-0.0677 0.600868,-0.0775 a 6.3068728,6.3068728 0 0 0 0.610394,-0.0484 q 0.300302,-0.0386 0.591079,-0.25188 a 0.77681666,0.77681666 0 0 1 0.02805,0.20002 0.51831874,0.51831874 0 0 1 -0.08625,0.29422 q -0.135731,0.20346 -0.35851,0.35851 -0.22278,0.15504 -0.484453,0.28099 a 1.8803937,1.8803937 0 0 0 -0.436033,0.28098 16.867452,16.867452 0 0 1 -1.579298,0.28099 45.204591,45.204591 0 0 0 -1.559983,0.22278 1.4343062,1.4343062 0 0 1 -0.218281,0.0172 1.2046479,1.2046479 0 0 1 -0.256646,-0.027 1.51765,1.51765 0 0 0 -0.323321,-0.0344 1.5898812,1.5898812 0 0 0 -0.132027,0.006 3.044825,3.044825 0 0 1 -0.251883,-0.01 0.93292082,0.93292082 0 0 0 -0.07752,-0.003 0.94138749,0.94138749 0 0 0 -0.155046,0.013 0.66198749,0.66198749 0 0 0 -0.58129,0.3003 q -0.135731,0.26168 -0.223043,0.60061 a 4.6389395,4.6389395 0 0 1 -0.21299,0.63949 0.75485624,0.75485624 0 0 1 -0.532871,0.41672 0.1825625,0.1825625 0 0 0 -0.01429,0.068 0.15901458,0.15901458 0 0 0 0.04313,0.10636 1.3559896,1.3559896 0 0 1 0.106627,0.13573 q -0.329406,0.0968 -0.436034,0.34873 a 5.2726166,5.2726166 0 0 0 -0.18415,0.50403 1.2152312,1.2152312 0 0 1 -0.222779,0.42624 0.45111458,0.45111458 0 0 1 -0.365125,0.1307 1.3305896,1.3305896 0 0 1 -0.18706,-0.0145 4.8254708,4.8254708 0 0 1 -1.414727,1.0369 q -0.813859,0.39714 -1.685925,0.51356 -0.155046,-0.0775 -0.300302,-0.19394 -0.145521,-0.11615 -0.290777,-0.21299 -0.145257,-0.0971 -0.310092,-0.14552 a 0.69876457,0.69876457 0 0 0 -0.197908,-0.0267 1.0070042,1.0070042 0 0 0 -0.179917,0.0172 2.2246166,2.2246166 0 0 0 -0.164835,-0.75592 q -0.145257,-0.34872 -0.377825,-0.65881 a 1.4615583,1.4615583 0 0 1 -0.009,-0.1614 1.2483042,1.2483042 0 0 1 0.09631,-0.48789 16.343841,16.343841 0 0 1 0.261673,-0.59081 4.0983958,4.0983958 0 0 0 0.160338,-0.39529 4.6426437,4.6426437 0 0 0 -0.315384,0.4146 q -0.17436,-0.0582 -0.300566,0.0386 a 0.94456249,0.94456249 0 0 0 -0.22278,0.25188 q -0.213254,0.0775 -0.436033,0.16484 a 3.230827,3.230827 0 0 0 -0.426244,0.20346 1.9364854,1.9364854 0 0 0 -0.3683,0.2712 0.92207291,0.92207291 0 0 0 -0.242093,0.38762 q -0.3683,0.0193 -0.639498,0.14552 a 9.8723978,9.8723978 0 0 0 -0.523346,0.26141 q -0.251884,0.13573 -0.542661,0.22304 a 1.3575771,1.3575771 0 0 1 -0.390525,0.0521 2.1756687,2.1756687 0 0 1 -0.306916,-0.0233 0.29924375,0.29924375 0 0 1 -0.195527,0.28152 0.10530417,0.10530417 0 0 1 -0.0079,-5.3e-4 0.70749582,0.70749582 0 0 1 -0.261673,-0.0773 q -0.135731,-0.068 -0.271198,-0.0775 a 0.12197292,0.12197292 0 0 0 -0.0087,-5.3e-4 0.29606875,0.29606875 0 0 0 -0.204523,0.28151 4.2272479,4.2272479 0 0 1 -0.280987,-0.01 2.1134916,2.1134916 0 0 0 -0.140494,-0.005 1.7062979,1.7062979 0 0 0 -0.130969,0.005 0.57123541,0.57123541 0 0 0 -0.232304,0.0677 0.38152916,0.38152916 0 0 0 -0.164835,0.21325 q -0.561975,0 -1.182159,0.0775 a 9.912879,9.912879 0 0 1 -1.230577,0.0775 4.7789041,4.7789041 0 0 1 -1.181894,-0.14526 q -0.571764,-0.14552 -1.017587,-0.59108 -0.155046,-0.15504 -0.251883,-0.31009 -0.09684,-0.15505 -0.21299,-0.34899 -0.05821,-0.0968 -0.116416,-0.18388 a 1.9005021,1.9005021 0 0 1 -0.116152,-0.20347 2.0132146,2.0132146 0 0 1 -0.174625,-0.71702 9.3389978,9.3389978 0 0 1 -0.0127,-0.49106 9.3305311,9.3305311 0 0 1 0.0032,-0.24554 q 0.0095,-0.36803 0.0095,-0.72654 a 1.9370146,1.9370146 0 0 0 -0.135467,-0.70723 1.1961812,1.1961812 0 0 1 0.145256,-0.59108 6.1444187,6.1444187 0 0 1 0.319881,-0.51356 q 0.174361,-0.25188 0.329407,-0.51356 0.155046,-0.26167 0.17436,-0.57176 -0.135731,-0.32941 0.01932,-0.6395 0.155046,-0.31009 0.310091,-0.58129 a 2.0185062,2.0185062 0 0 0 0.106627,-0.20346 6.6865499,6.6865499 0 0 1 0.106627,-0.22278 1.2133792,1.2133792 0 0 1 0.155046,-0.23257 q 0.09684,-0.11642 0.17436,-0.21325 a 30.887193,30.887193 0 0 1 0.503767,-0.67813 30.887193,30.887193 0 0 0 0.503767,-0.67839 q 0.174625,-0.23257 0.339196,-0.46514 a 8.9812811,8.9812811 0 0 0 0.319881,-0.48445 3.1167916,3.1167916 0 0 0 0.155046,-0.26168 1.5790333,1.5790333 0 0 1 0.154781,-0.24209 q 0.0971,-0.11642 0.329671,-0.26167 a 11.573139,11.573139 0 0 1 0.368035,-0.22278 3.2482895,3.2482895 0 0 1 0.833438,-0.28099 2.3719896,2.3719896 0 0 1 0.455612,-0.0463 1.9214041,1.9214041 0 0 1 0.377561,0.0365 q 0.387614,0.0775 0.687916,0.35851 0.300302,0.28099 0.397404,0.80434 a 2.6074687,2.6074687 0 0 1 0.03096,0.39687 2.4336375,2.4336375 0 0 1 -0.0021,0.0971 3.014927,3.014927 0 0 0 -0.0024,0.12065 2.8535312,2.8535312 0 0 0 0.02196,0.35428 q 0.0291,0.23257 0.125942,0.43603 a 0.9998604,0.9998604 0 0 0 0.348721,0.37783 4.2719624,4.2719624 0 0 0 -0.358511,0.67812 11.146102,11.146102 0 0 1 -0.319616,0.69771 0.19288125,0.19288125 0 0 1 0.168539,0.18177 0.23706666,0.23706666 0 0 1 -0.004,0.041 1.0789708,1.0789708 0 0 0 -0.01746,0.18733 0.79983541,0.79983541 0 0 0 0.0079,0.11324 q -0.271462,0.21299 -0.3683,0.52308 a 5.2702354,5.2702354 0 0 0 -0.155045,0.62997 q -0.05821,0.31962 -0.145257,0.60061 a 0.88159166,0.88159166 0 0 1 -0.319881,0.45534 1.184275,1.184275 0 0 1 0.02196,0.21776 0.58869791,0.58869791 0 0 1 -0.409575,0.59637 1.0003896,1.0003896 0 0 1 -0.338403,0.0825 0.20716875,0.20716875 0 0 1 -0.12647,-0.0341 q -0.116417,-0.0873 -0.164836,-0.25214 -0.04842,-0.16457 -0.125941,-0.31962 a 0.33152291,0.33152291 0 0 0 -0.329407,-0.15505 10.491787,10.491787 0 0 0 0.06773,-0.47466 3.8438666,3.8438666 0 0 1 0.08731,-0.47493 1.8790708,1.8790708 0 0 1 0.174361,-0.44555 q 0.116152,-0.21326 0.329406,-0.38762 a 0.25003125,0.25003125 0 0 1 -0.142611,-0.22992 0.37703125,0.37703125 0 0 1 0.0069,-0.0704 q 0.03889,-0.20373 0,-0.37809 a 3.983302,3.983302 0 0 1 0.406929,-0.81386 8.8309978,8.8309978 0 0 0 0.484452,-0.86228 2.8355395,2.8355395 0 0 0 0.271462,-0.88185 1.2104687,1.2104687 0 0 0 0.01032,-0.15663 1.3184187,1.3184187 0 0 0 -0.223573,-0.71544 0.59954583,0.59954583 0 0 0 -0.222779,-0.19367 q -0.145256,-0.0775 -0.280988,-0.0775 a 0.31723541,0.31723541 0 0 0 -0.232568,0.0968 0.32887708,0.32887708 0 0 0 -0.0807,0.24236 0.75035832,0.75035832 0 0 0 0.0032,0.0677 z m 7.65466,10.23197 0.426244,-0.29078 a 0.31088541,0.31088541 0 0 1 0.125941,0.11642 0.17065625,0.17065625 0 0 1 0.02699,0.0921 0.22145625,0.22145625 0 0 1 -0.0172,0.0823 q 0.155046,-0.15505 0.348721,-0.24236 a 2.2182666,2.2182666 0 0 1 0.397404,-0.13547 9.1424124,9.1424124 0 0 1 0.406929,-0.0873 2.1510625,2.1510625 0 0 0 0.39714,-0.11615 1.11125,1.11125 0 0 0 0.506677,0.17251 0.3159125,0.3159125 0 0 0 0.191029,-0.0564 q 0.21299,-0.15504 0.348721,-0.46514 0.135731,-0.31009 0.290777,-0.64902 0.155046,-0.33919 0.503767,-0.41672 l -0.135732,-0.13573 a 7.3466853,7.3466853 0 0 0 0.59108,-0.84296 1.7237604,1.7237604 0 0 0 0.243681,-0.90408 2.0825354,2.0825354 0 0 0 -0.0013,-0.0744 q -0.387615,0 -0.668602,-0.18415 a 6.2899395,6.2899395 0 0 1 -0.561975,-0.41672 q -0.280988,-0.23257 -0.58129,-0.43603 a 1.5179146,1.5179146 0 0 0 -0.72681,-0.2421 2.8604104,2.8604104 0 0 1 -0.406929,0.43604 2.8604104,2.8604104 0 0 0 -0.40693,0.43577 1.3985875,1.3985875 0 0 0 -0.242358,0.50403 0.70802499,0.70802499 0 0 0 -0.02064,0.17224 1.11125,1.11125 0 0 0 0.10795,0.44794 1.1308292,1.1308292 0 0 0 -0.600869,0.61039 3.3030583,3.3030583 0 0 0 -0.203465,0.86228 q -0.04842,0.46514 -0.08705,0.93028 -0.03889,0.46487 -0.251883,0.83317 z m 4.883415,-6.12378 a 6.2870291,6.2870291 0 0 0 0.155045,-0.64902 1.6134291,1.6134291 0 0 0 0.02672,-0.28893 1.4099646,1.4099646 0 0 0 -0.03651,-0.32147 q -0.06773,-0.29078 -0.377825,-0.52334 a 0.97419582,0.97419582 0 0 0 -0.348986,0.31988 l -0.271197,0.40693 q -0.135732,0.20346 -0.319617,0.33919 a 0.50799999,0.50799999 0 0 1 -0.310092,0.0947 0.84190416,0.84190416 0 0 1 -0.164835,-0.0175 0.55456666,0.55456666 0 0 0 -0.04842,0.21087 0.29421666,0.29421666 0 0 0 0.04842,0.16722 1.5234708,1.5234708 0 0 0 0.232569,0.2712 q 0.135731,0.12594 0.261672,0.26167 0.125942,0.13573 0.08705,0.34872 0.07752,0.0582 0.213255,0.10663 0.135731,0.0484 0.280987,0.0582 a 0.86783332,0.86783332 0 0 0 0.05768,0.002 0.80856666,0.80856666 0 0 0 0.223309,-0.031 0.314325,0.314325 0 0 0 0.193939,-0.13573 2.2018625,2.2018625 0 0 1 0.09684,-0.62018 z m 17.731316,0.23257 -0.15505,-0.19368 -0.73633,0.58129 a 0.31723541,0.31723541 0 0 0 -0.31009,-0.20346 1.6197791,1.6197791 0 0 0 -0.0675,-0.001 2.2119166,2.2119166 0 0 0 -0.44609,0.0497 q -0.28099,0.0582 -0.56197,0.13573 a 1.4766396,1.4766396 0 0 1 -0.38127,0.0619 0.67124791,0.67124791 0 0 1 -0.0741,-0.004 q -0.0775,0.13546 -0.2421,0.14525 a 1.0895542,1.0895542 0 0 1 -0.064,0.002 0.68712291,0.68712291 0 0 1 -0.21696,-0.0309 1.7750896,1.7750896 0 0 0 -0.36883,-0.0437 1.1181292,1.1181292 0 0 0 -0.1061,0.005 2.6852562,2.6852562 0 0 0 -0.39714,0.0677 l -0.38761,0.0968 a 2.7066875,2.7066875 0 0 1 -0.44583,0.068 0.58896249,0.58896249 0 0 0 -0.28416,-0.0775 0.53789791,0.53789791 0 0 0 -0.14208,0.0193 35.916658,35.916658 0 0 0 -0.41672,0.11615 0.83952291,0.83952291 0 0 1 -0.23019,0.0349 0.60060416,0.60060416 0 0 1 -0.13785,-0.0154 0.52704999,0.52704999 0 0 1 -0.30056,-0.32967 0.24394583,0.24394583 0 0 1 -0.22278,0.13573 q -0.14526,0 -0.28099,-0.0193 a 1.514475,1.514475 0 0 1 -0.003,-0.0945 1.3194771,1.3194771 0 0 1 0.0902,-0.48683 0.55244999,0.55244999 0 0 1 0.47467,-0.32967 11.126787,11.126787 0 0 1 0.41672,-0.0677 11.126787,11.126787 0 0 0 0.41671,-0.0677 q 0.6395,-0.13573 1.36605,-0.31009 0.72681,-0.17436 1.40494,-0.0775 a 2.4587729,2.4587729 0 0 1 0.76543,-0.23256 4.0774937,4.0774937 0 0 1 0.5641,-0.0386 4.3365208,4.3365208 0 0 1 0.28866,0.01 q 0.43603,0.0291 0.85275,0.14552 0.41645,0.11615 0.72654,0.32941 a 2.4696208,2.4696208 0 0 0 -0.15504,0.3294 q -0.0579,0.15505 -0.23257,0.29052 z m 41.974293,-5.94916 0.96891,-1.12395 a 1.0927292,1.0927292 0 0 1 0.3683,0.19368 1.1750146,1.1750146 0 0 1 0.23257,0.27146 5.1456166,5.1456166 0 0 1 0.18388,0.31962 3.921125,3.921125 0 0 0 0.20347,0.33919 q -0.34872,0.13573 -0.38735,0.40693 a 3.1540979,3.1540979 0 0 0 -0.0312,0.44662 3.4665708,3.4665708 0 0 0 0.002,0.11536 3.4438166,3.4438166 0 0 1 0.002,0.11482 2.814902,2.814902 0 0 1 -0.031,0.42784 q -0.0389,0.25188 -0.38762,0.3294 a 2.1455062,2.1455062 0 0 0 -0.33919,-0.43603 23.324079,23.324079 0 0 1 -0.39714,-0.40693 q -0.19394,-0.20346 -0.31009,-0.43603 a 0.89058749,0.89058749 0 0 1 -0.0873,-0.40323 1.3586354,1.3586354 0 0 1 0.01,-0.15875 z"
       id="path1"
       style="font-size:12px;fill:#1d9ecf;fill-opacity:1;fill-rule:nonzero;stroke:#1d9ecf;stroke-width:0.132292;stroke-linecap:round;stroke-opacity:1" />
  </g>
</svg>
