<svg width="372.589" height="73.577" viewBox="0 0 372.589 73.577" xmlns="http://www.w3.org/2000/svg"><g id="svgGroup" stroke-linecap="round" fill-rule="nonzero" font-size="9pt" stroke="#000000" stroke-width=".5" fill="#000000" style="stroke:#000000;stroke-width:.5;fill:#000000"><path d="M 290.61 67.31 L 289.951 66.943 A 0.503 0.503 0 0 0 289.746 66.914 A 4.429 4.429 0 0 0 289.109 66.98 Q 288.413 67.09 287.498 67.419 A 8.309 8.309 0 0 0 285.703 68.335 Q 284.824 68.921 284.312 69.873 L 284.019 69.8 A 5.28 5.28 0 0 0 282.653 69.62 A 5.443 5.443 0 0 0 281.785 69.69 A 14.014 14.014 0 0 1 279.551 69.873 A 10.707 10.707 0 0 1 278.884 69.895 A 4.515 4.515 0 0 1 276.108 69.177 Q 275.01 68.335 273.765 65.991 A 7.56 7.56 0 0 1 273.252 64.893 Q 273.032 64.307 272.886 63.721 L 272.886 63.428 A 1.944 1.944 0 0 0 273.984 61.853 A 9.087 9.087 0 0 0 274.009 61.182 A 10.716 10.716 0 0 0 273.911 59.766 A 22.032 22.032 0 0 1 273.728 57.642 A 2.478 2.478 0 0 1 273.726 57.553 A 1.975 1.975 0 0 1 274.497 55.957 A 2.893 2.893 0 0 1 274.302 54.937 A 2.612 2.612 0 0 1 274.607 53.723 A 137.461 137.461 0 0 1 275.669 51.709 A 3.862 3.862 0 0 0 276.182 49.878 Q 276.182 48.999 274.57 48.047 Q 272.886 48.706 271.384 49.695 Q 269.883 50.684 268.381 51.746 A 222.397 222.397 0 0 1 265.378 53.833 A 15.917 15.917 0 0 1 262.192 55.518 Q 260.654 57.202 258.97 58.411 A 55.189 55.189 0 0 0 255.71 60.938 A 19.341 19.341 0 0 0 252.854 63.904 Q 251.572 65.552 250.913 67.969 Q 250.547 67.529 250.181 67.383 A 7.602 7.602 0 0 0 249.229 67.09 Q 248.423 66.87 248.057 66.614 A 11.99 11.99 0 0 1 247.104 65.845 L 247.178 65.698 A 49.174 49.174 0 0 1 248.716 61.816 Q 249.595 59.839 249.595 57.861 A 5.911 5.911 0 0 0 249.448 56.506 A 5.911 5.911 0 0 1 249.302 55.151 A 6.451 6.451 0 0 1 249.741 52.734 Q 250.181 51.636 250.73 50.684 Q 251.279 49.731 251.755 48.816 Q 252.231 47.9 252.231 46.875 A 3.865 3.865 0 0 0 251.865 45.264 A 4.691 4.691 0 0 0 250.913 43.872 A 5.932 5.932 0 0 0 250.518 43.859 A 5.027 5.027 0 0 0 248.862 44.128 A 20.712 20.712 0 0 0 246.958 44.897 A 17.473 17.473 0 0 1 244.98 45.667 A 5.769 5.769 0 0 1 243.204 45.936 A 6.753 6.753 0 0 1 242.783 45.923 Q 241.245 47.461 239.634 48.962 A 356 356 0 0 1 236.411 51.929 A 143.209 143.209 0 0 0 229.856 58.154 Q 226.67 61.377 224.766 65.479 Q 224.399 66.284 224.143 67.126 Q 223.887 67.969 223.521 68.774 A 0.422 0.422 0 0 1 223.374 69.067 L 223.008 69.067 A 1.129 1.129 0 0 0 221.946 69.507 Q 221.689 69.946 221.58 70.496 A 13.508 13.508 0 0 1 221.323 71.558 Q 221.177 72.07 220.664 72.217 A 1.364 1.364 0 0 1 220.332 72.259 A 1.432 1.432 0 0 1 219.529 71.997 A 6.001 6.001 0 0 1 218.613 71.265 L 218.54 71.191 A 5.082 5.082 0 0 1 217.734 68.774 A 7.688 7.688 0 0 1 217.721 68.323 A 7.576 7.576 0 0 1 217.991 66.321 Q 218.32 65.112 218.943 63.94 Q 219.565 62.769 220.151 61.743 A 43.468 43.468 0 0 0 221.799 58.557 A 8.129 8.129 0 0 0 222.568 55.078 A 5.07 5.07 0 0 0 222.385 53.65 Q 222.202 53.027 222.056 52.368 L 223.667 51.27 A 1.95 1.95 0 0 1 223.264 50.354 A 4.348 4.348 0 0 1 223.246 49.96 A 3.771 3.771 0 0 1 223.264 49.585 A 63.801 63.801 0 0 1 223.337 48.889 A 1.206 1.206 0 0 0 223.345 48.756 A 1.513 1.513 0 0 0 223.228 48.193 L 223.228 47.974 L 223.813 47.314 A 75.294 75.294 0 0 1 223.667 42.773 A 12.723 12.723 0 0 0 222.788 38.306 A 2.004 2.004 0 0 1 224.123 37.671 A 1.424 1.424 0 0 1 224.766 37.83 A 24.783 24.783 0 0 1 226.67 38.892 L 226.67 38.965 L 226.743 39.038 Q 227.329 39.917 227.769 41.162 A 17.669 17.669 0 0 1 228.464 43.762 Q 228.721 45.117 228.867 46.436 A 21.482 21.482 0 0 1 229.014 48.779 A 3.889 3.889 0 0 1 228.977 49.329 A 3.889 3.889 0 0 0 228.94 49.878 L 228.501 50.317 A 12.03 12.03 0 0 0 229.307 51.05 A 1.203 1.203 0 0 0 230.09 51.355 A 1.193 1.193 0 0 0 230.259 51.343 A 2.618 2.618 0 0 1 231.65 49.622 Q 232.603 49.219 233.591 48.999 Q 234.58 48.779 235.349 48.376 A 1.76 1.76 0 0 0 236.118 46.655 Q 236.118 46.362 236.045 46.216 L 236.191 46.069 A 41.906 41.906 0 0 1 240.403 42.371 A 15.854 15.854 0 0 1 244.944 39.917 A 12.967 12.967 0 0 1 249.129 39.235 A 14.128 14.128 0 0 1 249.924 39.258 A 14.79 14.79 0 0 1 255.527 40.869 L 255.674 40.942 L 256.479 43.945 L 255.967 44.458 A 3.108 3.108 0 0 1 256.553 46.31 A 3.947 3.947 0 0 1 256.516 46.838 Q 256.333 48.193 255.894 49.512 Q 255.454 50.83 255.088 51.965 A 3.001 3.001 0 0 0 254.921 52.869 A 1.105 1.105 0 0 0 255.161 53.613 A 1.281 1.281 0 0 0 256.279 54.062 A 3.218 3.218 0 0 0 256.516 54.053 Q 257.505 53.979 258.091 53.906 A 4.944 4.944 0 0 1 259.739 52.515 A 43.957 43.957 0 0 1 261.863 51.416 A 14.544 14.544 0 0 0 263.73 50.354 Q 264.536 49.805 264.609 49.146 A 4.728 4.728 0 0 0 265.477 49.233 A 2.51 2.51 0 0 0 266.514 49.036 A 2.722 2.722 0 0 0 267.686 48.047 A 11.427 11.427 0 0 0 268.491 46.619 Q 268.857 45.85 269.333 45.154 A 3.157 3.157 0 0 1 270.542 44.092 A 2.912 2.912 0 0 1 271.85 43.83 A 5.746 5.746 0 0 1 272.52 43.872 Q 274.204 42.188 276.511 41.418 Q 278.818 40.649 281.162 40.576 A 4.907 4.907 0 0 1 281.375 40.571 A 2.306 2.306 0 0 1 283.506 41.565 A 4.695 4.695 0 0 1 284.165 44.092 A 8.089 8.089 0 0 1 283.286 47.754 Q 282.407 49.512 281.309 51.343 A 35.109 35.109 0 0 0 279.331 55.151 A 10.703 10.703 0 0 0 278.452 59.546 L 278.452 60.315 Q 278.452 60.864 278.525 61.414 Q 278.599 61.963 278.708 62.439 A 0.992 0.992 0 0 0 279.038 63.062 Q 279.331 63.208 279.551 63.281 L 279.185 63.574 A 18.522 18.522 0 0 1 282.188 64.197 Q 283.506 64.6 285.044 63.94 Q 285.483 63.794 285.959 63.721 Q 286.436 63.647 286.875 63.501 Q 287.534 63.428 287.681 62.952 Q 287.827 62.476 288.23 62 Q 288.633 61.523 289.548 61.121 Q 290.464 60.718 292.588 60.718 L 292.588 59.546 A 9.039 9.039 0 0 0 295.078 58.411 A 39.02 39.02 0 0 1 297.092 57.129 A 7.96 7.96 0 0 1 298.605 56.444 A 5.467 5.467 0 0 0 298.447 55.811 A 2.325 2.325 0 0 0 299.436 54.785 Q 299.692 54.199 299.802 53.577 A 5.914 5.914 0 0 1 300.132 52.405 A 1.837 1.837 0 0 1 301.157 51.489 Q 300.571 49.731 301.34 48.889 Q 302.109 48.047 303.208 47.388 Q 304.307 46.729 305.259 45.923 A 2.28 2.28 0 0 0 306.032 44.082 A 4.268 4.268 0 0 0 305.991 43.506 Q 306.431 43.066 307.017 42.773 A 46.728 46.728 0 0 1 308.152 42.224 Q 308.701 41.968 309.214 41.675 Q 309.727 41.382 310.166 40.869 A 0.916 0.916 0 0 1 309.687 40.186 A 0.49 0.49 0 0 1 309.69 40.137 A 3.183 3.183 0 0 1 309.873 39.368 A 19.693 19.693 0 0 1 310.203 38.525 A 1.032 1.032 0 0 0 310.286 38.126 A 1.064 1.064 0 0 0 310.166 37.646 A 6.748 6.748 0 0 0 311.155 37.722 A 5.001 5.001 0 0 0 313.645 37.097 A 51.986 51.986 0 0 0 316.501 35.376 A 9.484 9.484 0 0 1 319.248 34.131 Q 320.64 33.765 322.471 35.01 Q 322.617 35.522 322.947 36.511 A 197.14 197.14 0 0 1 323.606 38.525 A 166.053 166.053 0 0 1 324.229 40.503 Q 324.521 41.455 324.595 41.895 L 324.595 43.066 L 324.595 44.788 L 324.595 46.509 L 324.595 47.754 Q 326.719 48.999 328.843 49.255 A 6.048 6.048 0 0 0 329.568 49.299 A 6.914 6.914 0 0 0 333.091 48.267 Q 333.896 48.999 334.629 48.669 A 11.545 11.545 0 0 0 336.057 47.9 A 2.925 2.925 0 0 1 337.485 47.424 A 0.838 0.838 0 0 1 337.527 47.423 A 1.934 1.934 0 0 1 338.95 48.633 A 4.724 4.724 0 0 1 341.074 47.424 Q 342.173 47.168 343.345 47.131 A 23.837 23.837 0 0 0 343.651 47.12 A 31.825 31.825 0 0 0 344.517 46.289 A 18.782 18.782 0 0 0 345.688 46.252 A 4.623 4.623 0 0 1 345.977 46.243 A 3.859 3.859 0 0 1 346.787 46.326 A 1.875 1.875 0 0 1 347.178 46.45 A 4.817 4.817 0 0 0 347.886 45.996 A 2.936 2.936 0 0 1 347.992 46.752 A 1.959 1.959 0 0 1 347.96 47.137 A 2.289 2.289 0 0 1 348.252 47.827 A 5.845 5.845 0 0 1 348.457 49.286 A 3.149 3.149 0 0 1 347.996 51.013 A 19.525 19.525 0 0 1 346.274 53.32 Q 345.322 54.419 344.736 55.591 Q 344.15 56.763 345.029 58.594 A 1.129 1.129 0 0 0 343.967 59.033 Q 343.711 59.473 343.601 60.022 A 5.354 5.354 0 0 1 343.271 61.084 A 1.351 1.351 0 0 1 342.393 61.816 A 2.256 2.256 0 0 1 342.869 63.354 Q 342.905 64.453 343.088 65.442 A 3.456 3.456 0 0 0 343.748 67.017 Q 344.224 67.603 345.542 67.09 Q 346.494 67.896 347.849 67.749 A 16.073 16.073 0 0 1 349.574 67.651 A 12.853 12.853 0 0 1 350.376 67.676 Q 351.401 67.017 352.134 66.98 A 4.848 4.848 0 0 1 352.376 66.974 A 4.275 4.275 0 0 1 353.525 67.126 Q 354.185 67.31 354.917 67.456 A 2.253 2.253 0 0 0 355.359 67.498 A 3.962 3.962 0 0 0 356.675 67.236 Q 356.968 65.991 357.7 65.771 Q 358.433 65.552 359.165 65.515 A 4.768 4.768 0 0 0 360.52 65.259 A 1.707 1.707 0 0 0 361.362 63.794 Q 361.948 63.062 362.754 62.952 A 45.509 45.509 0 0 0 364.402 62.695 Q 365.244 62.549 365.94 62.073 A 2.888 2.888 0 0 0 366.929 60.205 Q 368.174 59.253 368.723 58.777 Q 369.272 58.301 369.639 58.008 A 10.253 10.253 0 0 1 370.591 57.349 Q 371.177 56.982 372.568 56.104 A 12.24 12.24 0 0 1 372.582 56.658 A 4.06 4.06 0 0 1 372.312 58.374 Q 371.982 59.033 371.543 59.436 Q 371.104 59.839 370.774 60.315 Q 370.444 60.791 370.444 61.963 A 29.396 29.396 0 0 1 367.734 64.636 A 14.799 14.799 0 0 1 365.757 66.028 A 226.137 226.137 0 0 1 363.633 67.236 Q 362.461 67.896 360.41 69.287 L 359.897 69.36 A 1.521 1.521 0 0 1 359.128 70.642 A 3.928 3.928 0 0 1 357.883 70.825 A 6.227 6.227 0 0 0 356.528 70.972 Q 355.869 71.118 355.43 72.217 A 6.571 6.571 0 0 1 353.609 72.522 A 3.651 3.651 0 0 1 353.306 72.51 A 28.404 28.404 0 0 0 351.035 72.437 Q 350.596 72.437 349.9 72.363 A 4.172 4.172 0 0 0 349.465 72.339 A 2.223 2.223 0 0 0 348.765 72.437 A 1.414 1.414 0 0 0 348.142 72.839 Q 347.813 73.169 347.446 73.389 A 1.211 1.211 0 0 1 346.818 73.577 A 1.051 1.051 0 0 1 346.714 73.572 A 0.945 0.945 0 0 1 346.055 72.949 A 3.472 3.472 0 0 1 345.212 73.059 A 2.662 2.662 0 0 1 344.443 72.949 A 4.249 4.249 0 0 1 343.052 72.217 Q 342.393 71.704 341.843 71.008 A 33.037 33.037 0 0 0 340.781 69.727 Q 340.415 69.287 339.976 68.921 A 12.03 12.03 0 0 1 339.17 68.188 A 4.722 4.722 0 0 1 337.998 66.138 Q 337.632 64.893 337.559 63.574 A 15.842 15.842 0 0 1 337.534 62.695 A 15.906 15.906 0 0 1 337.632 60.938 A 14.344 14.344 0 0 1 338.071 58.594 A 3.574 3.574 0 0 0 338.987 57.092 A 19.726 19.726 0 0 0 339.426 55.371 A 19.726 19.726 0 0 1 339.866 53.65 A 3.574 3.574 0 0 1 340.781 52.148 A 4.599 4.599 0 0 1 340.793 51.772 A 63.751 63.751 0 0 1 336.863 52.405 A 170.852 170.852 0 0 0 330.967 53.247 A 5.421 5.421 0 0 1 330.142 53.312 A 4.553 4.553 0 0 1 329.172 53.21 A 5.736 5.736 0 0 0 327.95 53.08 A 6.009 6.009 0 0 0 327.451 53.101 A 11.508 11.508 0 0 1 326.499 53.064 A 3.526 3.526 0 0 0 326.206 53.052 A 3.558 3.558 0 0 0 325.62 53.101 A 2.502 2.502 0 0 0 323.423 54.236 Q 322.91 55.225 322.581 56.506 A 17.533 17.533 0 0 1 321.775 58.923 A 2.853 2.853 0 0 1 319.761 60.498 A 0.69 0.69 0 0 0 319.707 60.755 A 0.601 0.601 0 0 0 319.871 61.157 A 5.125 5.125 0 0 1 320.273 61.67 Q 319.028 62.036 318.625 62.988 A 19.928 19.928 0 0 0 317.93 64.893 A 4.593 4.593 0 0 1 317.087 66.504 A 1.705 1.705 0 0 1 315.707 66.998 A 5.029 5.029 0 0 1 315 66.943 A 18.238 18.238 0 0 1 309.653 70.862 Q 306.577 72.363 303.281 72.803 Q 302.695 72.51 302.146 72.07 Q 301.597 71.631 301.047 71.265 Q 300.498 70.898 299.875 70.715 A 2.641 2.641 0 0 0 299.127 70.614 A 3.806 3.806 0 0 0 298.447 70.679 A 8.408 8.408 0 0 0 297.825 67.822 Q 297.275 66.504 296.396 65.332 A 5.524 5.524 0 0 1 296.362 64.722 A 4.718 4.718 0 0 1 296.726 62.878 A 61.772 61.772 0 0 1 296.978 62.286 A 2.131 2.131 0 0 1 296.873 62.329 A 4.15 4.15 0 0 1 295.371 62.549 Q 295.371 62.769 294.602 63.464 A 133.096 133.096 0 0 1 292.954 64.929 Q 292.075 65.698 291.343 66.394 A 2.234 2.234 0 0 0 290.61 67.31 Z M 301.67 68.042 L 303.281 66.943 A 1.175 1.175 0 0 1 303.757 67.383 A 0.645 0.645 0 0 1 303.859 67.731 A 0.837 0.837 0 0 1 303.794 68.042 Q 304.38 67.456 305.112 67.126 A 8.384 8.384 0 0 1 306.614 66.614 A 34.554 34.554 0 0 1 308.152 66.284 A 8.13 8.13 0 0 0 309.653 65.845 A 4.2 4.2 0 0 0 311.569 66.497 A 1.194 1.194 0 0 0 312.29 66.284 Q 313.096 65.698 313.608 64.526 Q 314.121 63.354 314.707 62.073 Q 315.293 60.791 316.611 60.498 L 316.099 59.985 A 27.767 27.767 0 0 0 318.333 56.799 A 6.515 6.515 0 0 0 319.253 53.382 A 7.871 7.871 0 0 0 319.248 53.101 Q 317.783 53.101 316.721 52.405 A 23.773 23.773 0 0 1 314.597 50.83 Q 313.535 49.951 312.4 49.182 A 5.737 5.737 0 0 0 309.653 48.267 A 10.811 10.811 0 0 1 308.115 49.915 A 10.811 10.811 0 0 0 306.577 51.562 A 5.286 5.286 0 0 0 305.662 53.467 A 2.676 2.676 0 0 0 305.584 54.118 A 4.2 4.2 0 0 0 305.991 55.811 A 4.274 4.274 0 0 0 303.721 58.118 A 12.484 12.484 0 0 0 302.952 61.377 Q 302.769 63.135 302.622 64.893 Q 302.476 66.65 301.67 68.042 Z M 320.127 44.897 A 23.762 23.762 0 0 0 320.713 42.444 A 6.098 6.098 0 0 0 320.814 41.352 A 5.329 5.329 0 0 0 320.676 40.137 Q 320.42 39.038 319.248 38.159 A 3.682 3.682 0 0 0 317.93 39.368 L 316.904 40.906 Q 316.392 41.675 315.696 42.188 A 1.92 1.92 0 0 1 314.524 42.546 A 3.182 3.182 0 0 1 313.901 42.48 A 2.096 2.096 0 0 0 313.718 43.277 A 1.112 1.112 0 0 0 313.901 43.909 A 5.758 5.758 0 0 0 314.78 44.934 Q 315.293 45.41 315.769 45.923 Q 316.245 46.436 316.099 47.241 Q 316.392 47.461 316.904 47.644 Q 317.417 47.827 317.966 47.864 A 3.28 3.28 0 0 0 318.185 47.871 A 3.056 3.056 0 0 0 319.028 47.754 A 1.188 1.188 0 0 0 319.761 47.241 A 8.322 8.322 0 0 1 320.127 44.897 Z M 30.088 69.141 L 29.136 69.287 L 29.063 69.434 A 11.245 11.245 0 0 0 26.829 70.093 A 11.58 11.58 0 0 1 24.668 70.752 A 148.525 148.525 0 0 0 22.837 71.045 A 17.372 17.372 0 0 0 20.933 71.484 A 5.9 5.9 0 0 0 19.321 72.217 A 3.675 3.675 0 0 1 17.637 72.803 A 5.975 5.975 0 0 1 17.096 72.827 A 6.451 6.451 0 0 1 15.989 72.729 A 9.652 9.652 0 0 1 14.341 72.29 A 0.98 0.98 0 0 0 13.975 72.217 A 0.98 0.98 0 0 0 13.608 72.29 A 9.661 9.661 0 0 0 12.876 72.62 A 7.284 7.284 0 0 1 12.107 72.949 Q 11.704 73.096 11.265 72.949 A 15.206 15.206 0 0 1 9.8 72.363 A 14.66 14.66 0 0 0 8.994 72.07 A 2.566 2.566 0 0 0 8.188 71.924 Q 7.896 71.924 7.273 71.704 Q 6.65 71.484 5.991 71.155 A 11.236 11.236 0 0 1 4.783 70.459 A 2.016 2.016 0 0 1 4.087 69.8 Q 3.647 69.141 3.098 68.665 A 3.676 3.676 0 0 1 2.183 67.383 A 2.473 2.473 0 0 0 1.853 66.943 A 0.695 0.695 0 0 0 1.45 66.65 Q 1.304 66.65 1.23 66.357 Q 1.157 66.064 1.084 65.662 A 10.792 10.792 0 0 1 0.974 64.929 L 0.938 64.6 A 14.854 14.854 0 0 1 0.681 63.318 A 8.263 8.263 0 0 1 0.571 62.036 L 0.571 60.571 A 2.627 2.627 0 0 0 0.132 59.253 A 0.618 0.618 0 0 1 0 58.875 A 0.756 0.756 0 0 1 0.059 58.594 A 2.866 2.866 0 0 1 0.425 57.935 A 1.791 1.791 0 0 0 0.901 57.202 Q 1.011 56.836 1.047 56.47 A 5.926 5.926 0 0 1 1.157 55.774 A 1.085 1.085 0 0 1 1.67 55.151 A 1.537 1.537 0 0 0 2.183 54.382 A 2.003 2.003 0 0 0 2.28 53.796 A 1.305 1.305 0 0 0 2.256 53.54 Q 2.256 52.734 3.062 52.258 A 4.192 4.192 0 0 0 4.307 51.196 Q 4.746 50.61 5.002 49.805 Q 5.259 48.999 5.552 48.267 A 2.121 2.121 0 0 1 6.394 47.351 Q 7.017 46.948 7.676 46.545 A 6.711 6.711 0 0 0 8.921 45.557 A 3.105 3.105 0 0 0 9.727 44.019 A 0.262 0.262 0 0 0 9.751 43.901 A 0.937 0.937 0 0 0 9.653 43.542 A 1.077 1.077 0 0 0 9.287 43.066 Q 9.067 42.92 8.774 42.737 A 2.491 2.491 0 0 0 8.262 42.48 A 2.411 2.411 0 0 1 7.273 41.492 A 3.172 3.172 0 0 0 6.357 40.43 Q 5.771 39.99 5.039 39.697 A 1.37 1.37 0 0 1 4.16 38.599 A 7.624 7.624 0 0 0 3.721 37.463 A 2.518 2.518 0 0 1 3.428 36.475 Q 3.428 35.889 3.354 35.413 A 6.497 6.497 0 0 1 3.281 34.424 A 3.497 3.497 0 0 1 3.239 33.892 A 2.927 2.927 0 0 1 3.501 32.666 A 2.055 2.055 0 0 0 3.684 31.805 A 2.888 2.888 0 0 0 3.501 30.835 A 650.924 650.924 0 0 1 4.05 28.125 A 7.982 7.982 0 0 1 4.966 25.562 Q 5.112 25.269 5.442 24.902 A 2.217 2.217 0 0 1 6.064 24.39 Q 6.797 23.95 7.163 23.145 Q 7.529 22.485 8.115 22.046 A 2.761 2.761 0 0 0 9.104 20.764 Q 9.507 19.849 9.653 19.189 Q 9.873 18.311 10.679 18.018 A 1.018 1.018 0 0 0 11.301 17.505 A 17 17 0 0 0 11.631 16.809 A 15.173 15.173 0 0 1 11.924 16.187 A 0.667 0.667 0 0 1 12.29 15.82 A 0.431 0.431 0 0 0 12.667 15.462 A 0.333 0.333 0 0 0 12.656 15.381 Q 12.949 15.161 13.535 15.161 Q 13.828 15.161 14.561 14.758 A 36.554 36.554 0 0 0 15.659 14.136 L 16.245 13.696 A 2.947 2.947 0 0 0 17.197 12.451 A 2.38 2.38 0 0 1 18.223 11.279 Q 18.955 10.84 19.614 10.437 A 9.071 9.071 0 0 0 20.859 9.521 Q 21.226 9.229 21.592 9.009 L 22.324 8.569 A 7.981 7.981 0 0 1 24.595 7.507 Q 25.767 7.178 27.012 6.812 A 1.652 1.652 0 0 0 27.927 5.933 A 1.8 1.8 0 0 1 29.355 5.054 Q 29.722 4.98 30.015 4.98 L 30.674 4.98 A 0.659 0.659 0 0 0 31.187 4.724 A 1.733 1.733 0 0 0 31.516 4.138 L 31.736 3.479 Q 31.846 3.149 31.992 3.076 Q 32.065 3.003 32.102 3.003 Q 32.139 3.003 32.212 2.93 A 46.561 46.561 0 0 1 34.006 2.6 A 4.387 4.387 0 0 0 35.728 1.758 Q 36.46 1.318 37.192 1.465 A 1.242 1.242 0 0 0 37.437 1.489 A 1.758 1.758 0 0 0 38.657 0.879 A 1.424 1.424 0 0 1 39.646 0.385 A 1.037 1.037 0 0 1 39.976 0.439 A 2.465 2.465 0 0 0 40.562 0.498 A 8.287 8.287 0 0 0 41.88 0.366 Q 43.198 0.146 43.857 0 A 4.675 4.675 0 0 0 44.993 0.146 A 3.225 3.225 0 0 1 46.128 0.366 Q 47.373 0.879 48.252 0.952 Q 48.618 1.025 49.021 1.025 Q 49.424 1.025 49.79 1.099 A 3.199 3.199 0 0 0 50.486 1.575 A 1.893 1.893 0 0 1 50.925 1.831 A 2.59 2.59 0 0 1 51.292 2.197 A 5.485 5.485 0 0 1 51.768 2.93 Q 51.841 3.076 52.097 3.333 A 11.297 11.297 0 0 0 52.646 3.845 A 2.521 2.521 0 0 1 53.086 4.321 Q 53.232 4.541 53.013 4.541 A 0.342 0.342 0 0 0 52.896 4.869 A 1.644 1.644 0 0 0 52.903 5.017 A 14.369 14.369 0 0 0 53.013 5.896 A 7.931 7.931 0 0 0 53.196 6.775 A 2.577 2.577 0 0 1 53.306 7.324 A 1.613 1.613 0 0 1 53.335 7.641 A 2.703 2.703 0 0 1 53.269 8.203 A 3.485 3.485 0 0 1 53.013 9.009 A 4.434 4.434 0 0 0 52.537 10.84 Q 52.5 11.792 52.134 12.744 A 3.014 3.014 0 0 1 51.584 13.77 Q 51.182 14.282 50.962 14.795 Q 50.596 15.381 50.486 16.04 A 8.676 8.676 0 0 1 50.156 17.358 A 0.779 0.779 0 0 0 50.12 17.606 A 1.402 1.402 0 0 0 50.156 17.908 A 0.874 0.874 0 0 1 50.181 18.091 A 0.113 0.113 0 0 1 50.083 18.237 A 1.155 1.155 0 0 1 49.68 18.42 A 0.638 0.638 0 0 0 49.351 18.604 A 0.89 0.89 0 0 0 49.253 19.141 A 6.719 6.719 0 0 0 49.277 19.666 A 7.126 7.126 0 0 1 49.302 20.231 A 3.201 3.201 0 0 1 49.204 21.094 A 3.851 3.851 0 0 1 48.618 22.046 A 21.884 21.884 0 0 0 47.922 22.925 A 3.592 3.592 0 0 0 47.41 23.877 A 1.42 1.42 0 0 0 47.326 24.358 A 1.755 1.755 0 0 0 47.446 24.976 A 0.584 0.584 0 0 1 47.465 25.117 A 0.512 0.512 0 0 1 47.3 25.488 A 1.719 1.719 0 0 1 46.714 25.854 A 8.714 8.714 0 0 1 45.981 26.111 Q 45.615 26.221 45.396 26.294 A 3.304 3.304 0 0 0 44.7 26.807 A 8.944 8.944 0 0 0 43.894 27.649 Q 43.491 28.125 43.125 28.564 Q 42.759 29.004 42.539 29.224 A 1.894 1.894 0 0 1 41.331 29.956 A 3.232 3.232 0 0 0 39.976 30.542 A 3.221 3.221 0 0 1 38.657 31.128 A 1.263 1.263 0 0 1 38.409 31.152 A 1.52 1.52 0 0 1 37.888 31.055 A 4.441 4.441 0 0 1 37.119 30.688 A 3.192 3.192 0 0 1 36.24 29.736 A 1.633 1.633 0 0 1 35.984 28.857 A 4.77 4.77 0 0 1 35.975 28.56 A 5.767 5.767 0 0 1 36.057 27.612 A 62.747 62.747 0 0 1 36.277 26.367 A 5.213 5.213 0 0 1 36.533 25.415 A 6.549 6.549 0 0 0 36.68 23.877 L 36.68 22.339 A 1.071 1.071 0 0 1 36.899 21.68 Q 37.119 21.387 37.412 21.057 A 17.538 17.538 0 0 0 37.998 20.361 Q 38.291 19.995 38.364 19.409 A 0.871 0.871 0 0 1 38.804 18.823 A 2.302 2.302 0 0 1 39.536 18.53 A 11.245 11.245 0 0 0 40.415 18.347 Q 40.854 18.237 41.221 17.871 Q 41.807 17.285 41.953 16.516 Q 42.1 15.747 42.759 15.161 A 2.809 2.809 0 0 1 44.114 14.392 A 2.809 2.809 0 0 0 45.469 13.623 A 32.362 32.362 0 0 0 47.007 11.975 A 2.743 2.743 0 0 0 47.673 10.111 A 3.798 3.798 0 0 0 47.666 9.888 L 47.666 9.155 A 1.959 1.959 0 0 1 47.812 8.423 A 2.04 2.04 0 0 1 47.959 7.983 A 7.097 7.097 0 0 0 48.215 7.214 A 2.085 2.085 0 0 0 48.298 6.672 A 1.237 1.237 0 0 0 48.289 6.519 A 0.268 0.268 0 0 0 48.032 6.226 A 3.427 3.427 0 0 0 46.677 5.383 Q 45.908 5.127 45.542 4.614 A 1.071 1.071 0 0 0 45.029 4.248 Q 44.443 4.541 44.407 4.871 Q 44.37 5.2 44.004 5.566 A 0.786 0.786 0 0 1 43.443 5.828 A 0.773 0.773 0 0 1 43.198 5.786 A 0.827 0.827 0 0 0 42.893 5.737 A 3.404 3.404 0 0 0 41.917 5.933 A 25.166 25.166 0 0 1 40.415 6.372 A 3.515 3.515 0 0 1 39.571 6.489 A 2.188 2.188 0 0 1 39.39 6.482 A 144.37 144.37 0 0 0 38.474 6.409 A 4.19 4.19 0 0 0 38.153 6.396 A 4.717 4.717 0 0 0 37.485 6.445 A 2.46 2.46 0 0 0 36.387 6.958 Q 35.874 7.397 35.435 7.91 Q 34.995 8.496 34.336 8.826 Q 33.677 9.155 33.164 9.668 Q 32.871 9.961 32.505 9.998 A 3.678 3.678 0 0 1 32.139 10.016 A 3.678 3.678 0 0 1 31.772 9.998 A 3.771 3.771 0 0 0 31.397 9.979 A 4.348 4.348 0 0 0 31.003 9.998 Q 30.601 10.034 30.308 10.4 A 6.232 6.232 0 0 1 29.575 10.986 Q 29.063 11.353 28.477 11.682 L 27.305 12.341 A 4.07 4.07 0 0 1 26.426 12.744 Q 25.62 13.037 25.107 13.696 A 2.251 2.251 0 0 1 24.155 14.502 Q 23.716 14.648 23.569 14.795 A 2.416 2.416 0 0 1 22.544 14.978 A 2.446 2.446 0 0 0 21.152 15.454 A 1.588 1.588 0 0 0 20.713 15.967 A 15.162 15.162 0 0 1 20.347 16.553 Q 19.761 17.944 18.699 19.08 A 5.616 5.616 0 0 1 16.172 20.654 Q 15.586 20.801 15.256 21.204 Q 14.927 21.606 14.707 22.156 L 14.268 23.254 A 3.651 3.651 0 0 1 13.682 24.243 L 12.656 25.269 Q 12.07 25.854 11.814 26.44 Q 11.558 27.026 11.191 27.759 Q 10.825 28.491 10.422 29.077 A 26.429 26.429 0 0 1 9.507 30.322 Q 9.214 30.615 9.031 30.981 A 9.661 9.661 0 0 0 8.701 31.714 A 1.567 1.567 0 0 0 8.584 32.3 A 1.471 1.471 0 0 0 8.591 32.446 A 8.138 8.138 0 0 1 8.628 33.252 Q 8.628 35.083 8.994 36.255 A 2.787 2.787 0 0 0 11.484 37.793 A 2.773 2.773 0 0 1 12.913 38.525 Q 13.535 39.111 14.414 39.111 Q 15.22 39.111 15.952 39.478 A 1.062 1.062 0 0 0 16.21 39.507 A 1.977 1.977 0 0 0 16.685 39.441 Q 17.124 39.331 17.344 39.038 Q 17.856 38.525 18.442 38.159 Q 19.028 37.793 19.614 37.354 Q 20.127 36.987 20.933 37.061 A 2.211 2.211 0 0 0 21.133 37.07 A 2.3 2.3 0 0 0 22.471 36.621 A 1.461 1.461 0 0 1 23.35 36.292 A 1.204 1.204 0 0 1 23.643 36.328 A 7.054 7.054 0 0 0 25.657 36.035 A 4.935 4.935 0 0 1 27.028 35.801 A 2.509 2.509 0 0 1 27.305 35.815 Q 27.964 35.962 28.147 36.438 A 2.938 2.938 0 0 1 28.33 37.5 A 4.274 4.274 0 0 1 28.147 38.708 A 31.818 31.818 0 0 1 27.817 39.771 A 0.175 0.175 0 0 0 27.796 39.848 A 0.165 0.165 0 0 0 27.927 39.99 Q 28.11 40.063 28.257 40.063 A 0.356 0.356 0 0 1 28.44 40.137 A 0.084 0.084 0 0 1 28.487 40.199 A 0.119 0.119 0 0 1 28.403 40.283 A 0.187 0.187 0 0 1 28.33 40.466 A 0.396 0.396 0 0 0 28.184 40.649 Q 27.598 41.382 27.231 41.675 A 4.149 4.149 0 0 1 26.499 42.151 A 7.284 7.284 0 0 1 25.73 42.48 A 4.109 4.109 0 0 0 24.741 43.066 A 24.199 24.199 0 0 1 24.045 43.469 Q 23.716 43.652 23.35 43.799 A 1.546 1.546 0 0 1 22.859 43.883 A 1.332 1.332 0 0 1 22.507 43.835 A 15.895 15.895 0 0 1 21.665 43.579 A 15.895 15.895 0 0 0 20.823 43.323 A 1.283 1.283 0 0 0 20.484 43.276 A 1.149 1.149 0 0 0 20.054 43.359 A 2.144 2.144 0 0 0 19.468 43.726 A 6.909 6.909 0 0 0 18.955 44.165 A 2.721 2.721 0 0 1 17.563 44.678 A 1.036 1.036 0 0 0 16.868 44.971 Q 16.538 45.264 16.392 45.63 A 1.225 1.225 0 0 1 15.842 46.143 A 7.332 7.332 0 0 1 15.183 46.399 A 2.186 2.186 0 0 0 14.561 46.729 Q 14.268 46.948 14.048 47.461 A 6.78 6.78 0 0 1 12.913 49.438 Q 12.144 50.391 11.265 50.977 Q 10.679 51.343 9.763 51.782 Q 8.848 52.222 8.481 52.734 Q 8.115 53.32 8.188 54.199 A 3.005 3.005 0 0 1 8.199 54.449 A 2.958 2.958 0 0 1 7.822 55.884 A 4.977 4.977 0 0 1 6.87 57.129 Q 6.504 57.495 6.467 57.825 A 6.307 6.307 0 0 0 6.431 58.521 A 7.356 7.356 0 0 1 6.394 59.253 Q 6.357 59.619 5.991 59.985 A 0.655 0.655 0 0 0 5.817 60.404 A 0.688 0.688 0 0 0 6.028 60.864 Q 6.431 61.304 6.65 61.816 A 3.226 3.226 0 0 1 6.782 62.748 A 4.134 4.134 0 0 1 6.724 63.428 A 0.775 0.775 0 0 0 6.709 63.58 A 1.508 1.508 0 0 0 6.943 64.307 Q 7.236 64.819 7.712 65.259 Q 8.188 65.698 8.701 65.991 A 1.317 1.317 0 0 0 9.352 66.187 A 0.946 0.946 0 0 0 9.653 66.138 A 0.625 0.625 0 0 1 9.885 66.089 A 0.509 0.509 0 0 1 10.276 66.284 A 5.125 5.125 0 0 1 10.679 66.797 Q 11.118 67.603 11.814 67.566 Q 12.51 67.529 13.315 67.31 A 1.987 1.987 0 0 1 13.706 67.271 A 2.212 2.212 0 0 1 14.78 67.566 Q 15.513 67.969 16.318 67.969 A 4.72 4.72 0 0 0 16.904 67.932 A 4.72 4.72 0 0 1 17.49 67.896 A 2.222 2.222 0 0 0 18.149 67.822 A 2.389 2.389 0 0 0 19.504 67.456 A 4.818 4.818 0 0 0 20.493 66.577 A 1.098 1.098 0 0 1 21.189 66.248 Q 21.592 66.211 21.995 66.211 Q 22.397 66.211 22.8 66.174 Q 23.203 66.138 23.496 65.771 A 0.814 0.814 0 0 1 24.119 65.405 A 1.875 1.875 0 0 1 24.814 65.552 A 1.188 1.188 0 0 0 25.191 65.617 A 0.948 0.948 0 0 0 25.62 65.515 Q 25.986 65.332 26.279 65.112 Q 26.572 64.893 26.938 64.709 A 1.236 1.236 0 0 1 27.499 64.579 A 1.49 1.49 0 0 1 27.744 64.6 Q 28.696 64.746 29.209 63.94 Q 29.648 63.281 30.454 63.245 A 2.523 2.523 0 0 0 31.919 62.695 Q 32.505 62.256 32.944 61.67 A 1.158 1.158 0 0 1 33.677 61.23 A 1.779 1.779 0 0 1 33.97 61.206 A 1.843 1.843 0 0 1 34.556 61.304 A 2.837 2.837 0 0 0 35.109 61.353 A 4.577 4.577 0 0 0 35.435 61.34 Q 35.947 61.304 36.24 61.011 A 10.899 10.899 0 0 0 37.302 59.949 A 3.02 3.02 0 0 1 38.584 59.106 A 69.073 69.073 0 0 1 39.902 58.521 Q 40.415 58.301 41.001 57.495 A 0.985 0.985 0 0 1 41.89 56.972 A 1.717 1.717 0 0 1 42.393 57.056 A 0.854 0.854 0 0 0 42.711 57.121 A 0.768 0.768 0 0 0 43.088 57.019 Q 43.418 56.836 43.674 56.616 Q 43.931 56.396 44.224 56.14 A 1.406 1.406 0 0 1 44.883 55.811 A 2.423 2.423 0 0 0 46.567 54.419 A 2.693 2.693 0 0 0 47.959 54.016 Q 48.398 53.687 48.984 53.687 A 1.686 1.686 0 0 0 49.644 53.467 Q 50.083 53.247 50.522 52.954 Q 50.962 52.661 51.365 52.405 A 1.384 1.384 0 0 1 51.914 52.148 Q 52.28 52.075 52.61 52.075 A 1.875 1.875 0 0 0 53.306 51.929 A 0.616 0.616 0 0 1 53.534 51.88 A 0.435 0.435 0 0 1 53.892 52.075 Q 54.111 52.368 54.258 52.661 A 0.342 0.342 0 0 1 54.274 52.77 A 1.192 1.192 0 0 1 54.075 53.32 Q 53.818 53.76 53.416 54.199 A 25.727 25.727 0 0 1 52.646 55.005 A 1.778 1.778 0 0 1 52.061 55.444 A 2.278 2.278 0 0 0 51.401 55.847 A 1.609 1.609 0 0 0 50.962 56.47 Q 50.156 58.813 47.666 59.399 A 0.986 0.986 0 0 0 47.007 59.766 A 7.718 7.718 0 0 0 46.567 60.425 Q 46.348 60.791 46.128 61.121 Q 45.908 61.45 45.542 61.67 Q 44.517 62.183 43.235 62.219 A 3.223 3.223 0 0 0 41.074 63.062 A 3.671 3.671 0 0 0 40.085 64.49 A 2.513 2.513 0 0 1 39.023 65.771 A 2.256 2.256 0 0 1 37.842 66.101 A 2.615 2.615 0 0 1 37.412 66.064 A 2.33 2.33 0 0 0 37.029 66.032 A 2.1 2.1 0 0 0 35.801 66.431 A 1.838 1.838 0 0 0 35.215 66.943 A 2.914 2.914 0 0 0 34.775 67.676 Q 34.556 67.969 34.153 68.152 A 1.859 1.859 0 0 1 33.384 68.335 Q 32.505 68.262 31.699 68.628 A 6.851 6.851 0 0 1 30.088 69.141 Z M 77.915 29.37 L 78.501 29.883 A 6.159 6.159 0 0 0 76.047 31.348 A 22.175 22.175 0 0 0 74.033 33.582 A 92.644 92.644 0 0 0 72.166 36.035 Q 71.25 37.28 70.225 38.159 Q 69.712 40.21 68.65 41.968 A 265.443 265.443 0 0 0 66.563 45.483 Q 65.977 46.582 65.72 47.314 A 28.403 28.403 0 0 1 65.024 49.072 Q 64.878 49.438 64.695 49.768 Q 64.512 50.098 64.365 50.464 Q 63.926 52.075 63.596 53.613 A 4.525 4.525 0 0 1 61.875 56.25 Q 62.095 56.836 62.278 57.349 Q 62.461 57.861 62.974 58.374 Q 62.168 58.813 62.058 59.436 A 2.741 2.741 0 0 0 62.017 59.913 A 3.301 3.301 0 0 0 62.131 60.754 A 8.015 8.015 0 0 0 62.644 62.146 A 3.154 3.154 0 0 1 62.974 63.501 A 2.925 2.925 0 0 1 64.585 64.16 A 80.5 80.5 0 0 0 66.086 65.332 A 7.747 7.747 0 0 0 67.588 66.248 A 1.436 1.436 0 0 0 68.184 66.377 A 2.026 2.026 0 0 0 69.199 66.064 A 3.086 3.086 0 0 0 69.948 66.162 A 2.472 2.472 0 0 0 70.298 66.138 A 14.608 14.608 0 0 1 71.323 66.028 A 2.045 2.045 0 0 1 71.469 66.023 A 1.991 1.991 0 0 1 72.312 66.211 Q 72.788 66.431 73.301 67.09 A 2.161 2.161 0 0 1 74.692 65.771 Q 75.571 65.552 76.56 65.552 Q 77.549 65.552 78.464 65.479 Q 79.38 65.405 80.039 64.6 A 2.182 2.182 0 0 0 81.377 65.21 A 1.147 1.147 0 0 0 81.614 65.186 A 3.057 3.057 0 0 0 82.932 64.526 A 58.884 58.884 0 0 1 84.214 63.501 A 2.329 2.329 0 0 1 85.679 62.988 A 8.46 8.46 0 0 0 88.755 62.476 A 20.425 20.425 0 0 0 91.318 61.267 A 82.911 82.911 0 0 1 93.845 59.912 A 10.325 10.325 0 0 1 96.812 58.96 Q 97.544 57.861 98.533 57.385 A 25.892 25.892 0 0 1 100.583 56.506 Q 101.646 56.104 102.634 55.481 A 5.655 5.655 0 0 0 104.429 53.467 A 4.289 4.289 0 0 0 104.643 53.472 A 3.052 3.052 0 0 0 104.999 53.462 A 5.914 5.914 0 0 1 105.308 52.405 A 1.837 1.837 0 0 1 106.333 51.489 Q 105.747 49.731 106.516 48.889 Q 107.285 48.047 108.384 47.388 Q 109.482 46.729 110.435 45.923 A 2.28 2.28 0 0 0 111.208 44.082 A 4.268 4.268 0 0 0 111.167 43.506 Q 111.606 43.066 112.192 42.773 A 46.728 46.728 0 0 1 113.328 42.224 Q 113.877 41.968 114.39 41.675 Q 114.902 41.382 115.342 40.869 A 0.916 0.916 0 0 1 114.863 40.186 A 0.49 0.49 0 0 1 114.866 40.137 A 3.183 3.183 0 0 1 115.049 39.368 A 19.693 19.693 0 0 1 115.378 38.525 A 1.032 1.032 0 0 0 115.462 38.126 A 1.064 1.064 0 0 0 115.342 37.646 A 6.748 6.748 0 0 0 116.331 37.722 A 5.001 5.001 0 0 0 118.821 37.097 A 51.986 51.986 0 0 0 121.677 35.376 A 9.484 9.484 0 0 1 124.424 34.131 Q 125.815 33.765 127.646 35.01 Q 127.793 35.522 128.123 36.511 A 197.14 197.14 0 0 1 128.782 38.525 A 166.053 166.053 0 0 1 129.404 40.503 Q 129.697 41.455 129.771 41.895 L 129.771 43.066 L 129.771 44.788 L 129.771 46.509 L 129.771 47.754 Q 131.895 48.999 134.019 49.255 A 6.048 6.048 0 0 0 134.744 49.299 A 6.914 6.914 0 0 0 138.267 48.267 Q 139.072 48.999 139.805 48.669 A 11.545 11.545 0 0 0 141.233 47.9 A 2.925 2.925 0 0 1 142.661 47.424 A 0.838 0.838 0 0 1 142.703 47.423 A 1.934 1.934 0 0 1 144.126 48.633 A 4.724 4.724 0 0 1 146.25 47.424 Q 147.349 47.168 148.521 47.131 A 23.837 23.837 0 0 0 150.828 46.948 Q 151.963 46.802 153.062 45.996 A 2.936 2.936 0 0 1 153.168 46.752 A 1.959 1.959 0 0 1 152.842 47.864 Q 152.329 48.633 151.487 49.219 Q 150.645 49.805 149.656 50.281 A 7.107 7.107 0 0 0 148.008 51.343 A 63.751 63.751 0 0 1 142.039 52.405 A 170.852 170.852 0 0 0 136.143 53.247 A 5.421 5.421 0 0 1 135.318 53.312 A 4.553 4.553 0 0 1 134.348 53.21 A 5.736 5.736 0 0 0 133.126 53.08 A 6.009 6.009 0 0 0 132.627 53.101 A 11.508 11.508 0 0 1 131.675 53.064 A 3.526 3.526 0 0 0 131.382 53.052 A 3.558 3.558 0 0 0 130.796 53.101 A 2.502 2.502 0 0 0 128.599 54.236 Q 128.086 55.225 127.756 56.506 A 17.533 17.533 0 0 1 126.951 58.923 A 2.853 2.853 0 0 1 124.937 60.498 A 0.69 0.69 0 0 0 124.883 60.755 A 0.601 0.601 0 0 0 125.046 61.157 A 5.125 5.125 0 0 1 125.449 61.67 Q 124.204 62.036 123.801 62.988 A 19.928 19.928 0 0 0 123.105 64.893 A 4.593 4.593 0 0 1 122.263 66.504 A 1.705 1.705 0 0 1 120.883 66.998 A 5.029 5.029 0 0 1 120.176 66.943 A 18.238 18.238 0 0 1 114.829 70.862 Q 111.753 72.363 108.457 72.803 Q 107.871 72.51 107.322 72.07 Q 106.772 71.631 106.223 71.265 Q 105.674 70.898 105.051 70.715 A 2.641 2.641 0 0 0 104.303 70.614 A 3.806 3.806 0 0 0 103.623 70.679 A 8.408 8.408 0 0 0 103 67.822 Q 102.451 66.504 101.572 65.332 A 5.524 5.524 0 0 1 101.538 64.722 A 4.718 4.718 0 0 1 101.902 62.878 A 61.772 61.772 0 0 1 102.891 60.645 A 15.49 15.49 0 0 0 103.497 59.151 A 17.547 17.547 0 0 0 102.305 60.718 Q 101.646 60.498 101.169 60.864 A 3.57 3.57 0 0 0 100.327 61.816 Q 99.521 62.109 98.679 62.439 A 12.211 12.211 0 0 0 97.068 63.208 A 7.319 7.319 0 0 0 95.676 64.233 A 3.485 3.485 0 0 0 94.761 65.698 Q 93.369 65.771 92.344 66.248 A 37.313 37.313 0 0 0 90.366 67.236 Q 89.414 67.749 88.315 68.079 A 5.131 5.131 0 0 1 86.839 68.276 A 8.223 8.223 0 0 1 85.679 68.188 A 1.131 1.131 0 0 1 84.94 69.252 A 0.398 0.398 0 0 1 84.91 69.25 A 2.674 2.674 0 0 1 83.921 68.958 Q 83.408 68.701 82.896 68.665 A 0.461 0.461 0 0 0 82.863 68.663 A 1.119 1.119 0 0 0 82.09 69.727 A 15.977 15.977 0 0 1 81.028 69.69 A 7.988 7.988 0 0 0 80.497 69.672 A 6.449 6.449 0 0 0 80.002 69.69 A 2.159 2.159 0 0 0 79.124 69.946 A 1.442 1.442 0 0 0 78.501 70.752 Q 76.377 70.752 74.033 71.045 A 37.466 37.466 0 0 1 69.382 71.338 A 18.062 18.062 0 0 1 64.915 70.789 Q 62.754 70.239 61.069 68.555 Q 60.483 67.969 60.117 67.383 Q 59.751 66.797 59.312 66.064 Q 59.092 65.698 58.872 65.369 A 7.183 7.183 0 0 1 58.433 64.6 A 7.609 7.609 0 0 1 57.773 61.89 A 35.297 35.297 0 0 1 57.725 60.034 A 35.265 35.265 0 0 1 57.737 59.106 Q 57.773 57.715 57.773 56.36 A 7.321 7.321 0 0 0 57.261 53.687 A 4.521 4.521 0 0 1 57.81 51.453 A 23.223 23.223 0 0 1 59.019 49.512 Q 59.678 48.56 60.264 47.571 Q 60.85 46.582 60.923 45.41 Q 60.41 44.165 60.996 42.993 Q 61.582 41.821 62.168 40.796 A 7.629 7.629 0 0 0 62.571 40.027 A 25.272 25.272 0 0 1 62.974 39.185 A 4.586 4.586 0 0 1 63.56 38.306 Q 63.926 37.866 64.219 37.5 A 116.739 116.739 0 0 1 66.123 34.937 A 116.739 116.739 0 0 0 68.027 32.373 Q 68.687 31.494 69.309 30.615 A 33.945 33.945 0 0 0 70.518 28.784 A 11.78 11.78 0 0 0 71.104 27.795 A 5.968 5.968 0 0 1 71.689 26.88 Q 72.056 26.44 72.935 25.891 A 43.741 43.741 0 0 1 74.326 25.049 A 12.277 12.277 0 0 1 77.476 23.987 A 8.965 8.965 0 0 1 79.198 23.812 A 7.262 7.262 0 0 1 80.625 23.95 Q 82.09 24.243 83.225 25.305 Q 84.36 26.367 84.727 28.345 A 9.855 9.855 0 0 1 84.844 29.845 A 9.198 9.198 0 0 1 84.836 30.212 A 11.395 11.395 0 0 0 84.827 30.668 A 10.785 10.785 0 0 0 84.91 32.007 Q 85.02 32.886 85.386 33.655 A 3.779 3.779 0 0 0 86.704 35.083 A 16.146 16.146 0 0 0 85.349 37.646 A 42.127 42.127 0 0 1 84.141 40.283 A 0.729 0.729 0 0 1 84.778 40.97 A 0.896 0.896 0 0 1 84.763 41.125 A 4.078 4.078 0 0 0 84.697 41.833 A 3.023 3.023 0 0 0 84.727 42.261 Q 83.701 43.066 83.335 44.238 A 19.919 19.919 0 0 0 82.749 46.619 Q 82.529 47.827 82.2 48.889 A 3.332 3.332 0 0 1 80.991 50.61 A 4.476 4.476 0 0 1 81.074 51.433 A 2.225 2.225 0 0 1 79.526 53.687 A 3.781 3.781 0 0 1 78.247 53.999 A 0.783 0.783 0 0 1 77.769 53.87 Q 77.329 53.54 77.146 52.917 Q 76.963 52.295 76.67 51.709 A 1.253 1.253 0 0 0 75.425 51.123 A 39.654 39.654 0 0 0 75.681 49.329 A 14.528 14.528 0 0 1 76.011 47.534 A 7.102 7.102 0 0 1 76.67 45.85 Q 77.109 45.044 77.915 44.385 A 0.945 0.945 0 0 1 77.376 43.516 A 1.425 1.425 0 0 1 77.402 43.25 Q 77.549 42.48 77.402 41.821 A 15.055 15.055 0 0 1 78.94 38.745 A 33.377 33.377 0 0 0 80.771 35.486 A 10.717 10.717 0 0 0 81.797 32.153 A 4.575 4.575 0 0 0 81.836 31.561 A 4.983 4.983 0 0 0 80.991 28.857 A 2.266 2.266 0 0 0 80.149 28.125 Q 79.6 27.832 79.087 27.832 A 1.199 1.199 0 0 0 78.208 28.198 A 1.243 1.243 0 0 0 77.903 29.114 A 2.836 2.836 0 0 0 77.915 29.37 Z M 106.846 68.042 L 108.457 66.943 A 1.175 1.175 0 0 1 108.933 67.383 A 0.645 0.645 0 0 1 109.035 67.731 A 0.837 0.837 0 0 1 108.97 68.042 Q 109.556 67.456 110.288 67.126 A 8.384 8.384 0 0 1 111.79 66.614 A 34.554 34.554 0 0 1 113.328 66.284 A 8.13 8.13 0 0 0 114.829 65.845 A 4.2 4.2 0 0 0 116.744 66.497 A 1.194 1.194 0 0 0 117.466 66.284 Q 118.271 65.698 118.784 64.526 Q 119.297 63.354 119.883 62.073 Q 120.469 60.791 121.787 60.498 L 121.274 59.985 A 27.767 27.767 0 0 0 123.508 56.799 A 6.515 6.515 0 0 0 124.429 53.382 A 7.871 7.871 0 0 0 124.424 53.101 Q 122.959 53.101 121.897 52.405 A 23.773 23.773 0 0 1 119.773 50.83 Q 118.711 49.951 117.576 49.182 A 5.737 5.737 0 0 0 114.829 48.267 A 10.811 10.811 0 0 1 113.291 49.915 A 10.811 10.811 0 0 0 111.753 51.562 A 5.286 5.286 0 0 0 110.837 53.467 A 2.676 2.676 0 0 0 110.759 54.118 A 4.2 4.2 0 0 0 111.167 55.811 A 4.274 4.274 0 0 0 108.896 58.118 A 12.484 12.484 0 0 0 108.127 61.377 Q 107.944 63.135 107.798 64.893 Q 107.651 66.65 106.846 68.042 Z M 125.303 44.897 A 23.762 23.762 0 0 0 125.889 42.444 A 6.098 6.098 0 0 0 125.99 41.352 A 5.329 5.329 0 0 0 125.852 40.137 Q 125.596 39.038 124.424 38.159 A 3.682 3.682 0 0 0 123.105 39.368 L 122.08 40.906 Q 121.567 41.675 120.872 42.188 A 1.92 1.92 0 0 1 119.7 42.546 A 3.182 3.182 0 0 1 119.077 42.48 A 2.096 2.096 0 0 0 118.894 43.277 A 1.112 1.112 0 0 0 119.077 43.909 A 5.758 5.758 0 0 0 119.956 44.934 Q 120.469 45.41 120.945 45.923 Q 121.421 46.436 121.274 47.241 Q 121.567 47.461 122.08 47.644 Q 122.593 47.827 123.142 47.864 A 3.28 3.28 0 0 0 123.36 47.871 A 3.056 3.056 0 0 0 124.204 47.754 A 1.188 1.188 0 0 0 124.937 47.241 A 8.322 8.322 0 0 1 125.303 44.897 Z M 192.319 45.776 L 191.733 45.044 L 188.95 47.241 A 1.199 1.199 0 0 0 187.778 46.472 A 6.122 6.122 0 0 0 187.523 46.467 A 8.36 8.36 0 0 0 185.837 46.655 Q 184.775 46.875 183.713 47.168 A 5.581 5.581 0 0 1 182.272 47.402 A 2.537 2.537 0 0 1 181.992 47.388 Q 181.699 47.9 181.077 47.937 A 4.118 4.118 0 0 1 180.835 47.944 A 2.597 2.597 0 0 1 180.015 47.827 A 6.709 6.709 0 0 0 178.621 47.662 A 4.226 4.226 0 0 0 178.22 47.681 A 10.149 10.149 0 0 0 176.719 47.937 L 175.254 48.303 A 10.23 10.23 0 0 1 173.569 48.56 A 2.226 2.226 0 0 0 172.495 48.267 A 2.033 2.033 0 0 0 171.958 48.34 A 135.748 135.748 0 0 0 170.383 48.779 A 3.173 3.173 0 0 1 169.513 48.911 A 2.27 2.27 0 0 1 168.992 48.853 A 1.992 1.992 0 0 1 167.856 47.607 A 0.922 0.922 0 0 1 167.014 48.12 Q 166.465 48.12 165.952 48.047 A 5.724 5.724 0 0 1 165.941 47.69 A 4.987 4.987 0 0 1 166.282 45.85 A 2.088 2.088 0 0 1 168.076 44.604 A 42.054 42.054 0 0 1 169.651 44.348 A 42.054 42.054 0 0 0 171.226 44.092 Q 173.643 43.579 176.389 42.92 Q 179.136 42.261 181.699 42.627 A 9.293 9.293 0 0 1 184.592 41.748 A 15.411 15.411 0 0 1 186.724 41.602 A 16.39 16.39 0 0 1 187.815 41.638 Q 189.463 41.748 191.038 42.188 Q 192.612 42.627 193.784 43.433 A 9.334 9.334 0 0 0 193.198 44.678 Q 192.979 45.264 192.319 45.776 Z M 350.962 23.291 L 354.624 19.043 A 4.13 4.13 0 0 1 356.016 19.775 A 4.441 4.441 0 0 1 356.895 20.801 A 19.448 19.448 0 0 1 357.59 22.009 A 14.82 14.82 0 0 0 358.359 23.291 Q 357.041 23.804 356.895 24.829 A 11.921 11.921 0 0 0 356.777 26.517 A 13.102 13.102 0 0 0 356.785 26.953 A 13.016 13.016 0 0 1 356.792 27.387 A 10.639 10.639 0 0 1 356.675 29.004 Q 356.528 29.956 355.21 30.249 A 8.109 8.109 0 0 0 353.928 28.601 A 88.154 88.154 0 0 1 352.427 27.063 Q 351.694 26.294 351.255 25.415 A 3.366 3.366 0 0 1 350.925 23.891 A 5.135 5.135 0 0 1 350.962 23.291 Z"/></g></svg>