<?xml version="1.0" encoding="UTF-8" standalone="no"?>
<!-- Created with Inkscape (http://www.inkscape.org/) -->

<svg
   width="600"
   height="3000"
   viewBox="0 0 158.75 793.75"
   version="1.1"
   id="svg1"
   inkscape:version="1.4.2 (1:1.4.2+202505120737+ebf0e940d0)"
   sodipodi:docname="src_blog.svg"
   xmlns:inkscape="http://www.inkscape.org/namespaces/inkscape"
   xmlns:sodipodi="http://sodipodi.sourceforge.net/DTD/sodipodi-0.dtd"
   xmlns="http://www.w3.org/2000/svg"
   xmlns:svg="http://www.w3.org/2000/svg">
  <sodipodi:namedview
     id="namedview1"
     pagecolor="#ffffff"
     bordercolor="#000000"
     borderopacity="0.25"
     inkscape:showpageshadow="2"
     inkscape:pageopacity="0.0"
     inkscape:pagecheckerboard="0"
     inkscape:deskcolor="#d1d1d1"
     inkscape:document-units="px"
     inkscape:zoom="0.78484147"
     inkscape:cx="397.53251"
     inkscape:cy="561.25984"
     inkscape:window-width="1854"
     inkscape:window-height="1131"
     inkscape:window-x="0"
     inkscape:window-y="0"
     inkscape:window-maximized="1"
     inkscape:current-layer="layer1" />
  <defs
     id="defs1">
    <rect
       x="124.86598"
       y="558.07449"
       width="322.35809"
       height="40.772565"
       id="rect11" />
    <rect
       x="118.49527"
       y="214.05597"
       width="351.66337"
       height="107.02798"
       id="rect2" />
    <rect
       x="16.563855"
       y="14.015569"
       width="212.78182"
       height="62.43299"
       id="rect1" />
  </defs>
  <g
     inkscape:label="Layer 1"
     inkscape:groupmode="layer"
     id="layer1">
    <ellipse
       id="path3"
       style="fill:#1d9ecf;fill-opacity:1;stroke:#0000ff;stroke-width:0.265137"
       cx="190.2854"
       cy="160.77054"
       rx="0.0016901382"
       ry="0.00090448954"
       transform="matrix(0.99946502,-0.03270594,0.12373645,0.99231512,0,0)"
       inkscape:export-filename="ecomoi.svg"
       inkscape:export-xdpi="96"
       inkscape:export-ydpi="96" />
    <ellipse
       id="path5"
       style="fill:#1d9ecf;fill-opacity:1;stroke:#0000ff;stroke-width:0.265137"
       cx="198.02559"
       cy="158.59758"
       rx="0.0016901382"
       ry="0.00090448954"
       transform="matrix(0.99946502,-0.03270594,0.12373645,0.99231512,0,0)" />
    <ellipse
       id="path6"
       style="fill:#1d9ecf;fill-opacity:1;stroke:#0000ff;stroke-width:0.265137"
       cx="198.02559"
       cy="158.59758"
       rx="0.0016901382"
       ry="0.00090448954"
       transform="matrix(0.99946502,-0.03270594,0.12373645,0.99231512,0,0)" />
    <rect
       style="fill:none;stroke:none;stroke-width:0.264582;stroke-linejoin:round"
       id="rect12"
       width="105.51759"
       height="35.734386"
       x="22.923944"
       y="124.73326"
       inkscape:export-filename="ecomoi.svg"
       inkscape:export-xdpi="96"
       inkscape:export-ydpi="96" />
    <text
       xml:space="preserve"
       transform="scale(0.26458333)"
       id="text1"
       style="font-size:16px;line-height:normal;font-family:'Liberation Mono';-inkscape-font-specification:'Liberation Mono';text-align:start;text-decoration-color:#000000;white-space:pre;shape-inside:url(#rect1);display:inline;fill:#000000;stroke-width:1;-inkscape-stroke:none;stop-color:#000000"
       x="-18.566406"
       y="0"><tspan
         x="16.564453"
         y="28.252066"
         id="tspan4">src_blog.svg</tspan></text>
    <text
       xml:space="preserve"
       transform="scale(0.26458333)"
       id="text2"
       style="font-size:16px;line-height:normal;font-family:'Noto Kufi Arabic';-inkscape-font-specification:'Noto Kufi Arabic';text-align:center;text-decoration-color:#000000;white-space:pre;shape-inside:url(#rect2);fill:#000000;stroke-width:1;-inkscape-stroke:none;stop-color:#000000;font-weight:normal;font-style:normal;font-stretch:normal;font-variant:normal"><tspan
         x="264.46317"
         y="228.61464"
         id="tspan5">Eco-Moi</tspan></text>
    <path
       style="fill:#1d9ecf;fill-opacity:1;stroke:#0000ff;stroke-width:0.0264583;stroke-linejoin:round"
       id="path2"
       d="m 193.25474,136.98818 c 0.0521,0.38467 0.0843,0.77381 0.24179,1.14691 0.12391,0.2936 0.25374,0.46991 0.43219,0.7463 0.4452,0.64334 1.06884,1.1339 1.90822,1.52227 1.27997,0.50628 1.99142,0.76562 3.32521,0.81678 0.34219,0.0199 0.67834,-0.006 1.01497,-0.0448 0.0739,-0.008 0.15383,-0.003 0.22165,-0.0263 0.0837,-0.0277 0.14655,-0.0799 0.21982,-0.11986 0.40289,-0.37013 0.90632,-0.67843 1.38017,-1.0015 0.39776,-0.28127 0.67559,-0.55511 0.88094,-0.92711 0.21729,-0.40412 0.23885,-0.8515 0.21788,-1.28056 -0.067,-0.33345 -0.29632,-0.66357 -0.73885,-0.82167 -0.56974,-0.20355 -1.14985,-0.39191 -1.72478,-0.58786 -0.57544,-0.0892 -1.16882,-0.0652 -1.75163,-0.0415 -0.74295,0.0345 -1.38505,0.28267 -2.00037,0.55784 -0.10782,0.0543 -0.22409,0.10098 -0.32347,0.1629 -0.24662,0.15366 -0.45299,0.33776 -0.69469,0.49533 -0.42651,0.27807 -0.87614,0.53835 -1.30734,0.81283 -0.54818,0.35916 -1.13843,0.72293 -1.52236,1.18651 -0.0613,0.074 -0.10502,0.15477 -0.15753,0.23215 -0.26451,0.39137 -0.34042,0.81521 -0.35961,1.24428 0.0285,0.52098 0.17853,0.84613 0.60367,1.26724 0.36117,0.33161 0.78184,0.61888 1.2748,0.84751 1.0762,0.4283 2.19316,0.80528 3.36456,1.07718 0.49175,0.13809 0.98947,0.26874 1.51066,0.33542 0.2852,0.0131 0.52303,-0.092 0.78104,-0.15669 0.96873,-0.29754 0.84117,-0.0513 -0.96233,-0.75606 -0.5475,0.0942 -1.08926,0.20411 -1.62325,0.3317 -0.61816,0.1719 -1.20815,0.39468 -1.73911,0.67806 -0.63699,0.37194 -1.27906,0.7437 -1.88196,1.14364 -0.68952,0.44654 -1.23402,0.97688 -1.5833,1.59159 -0.14783,0.36178 -0.33557,0.73629 -0.20852,1.118 0.0291,0.0875 0.0789,0.17083 0.11842,0.25624 0.36056,0.54568 0.90494,1.01287 1.45136,1.46832 0.43193,0.35642 0.87506,0.70952 1.41644,0.98264 0.94264,0.38073 1.91329,0.81312 3.0025,0.92275 0.5214,0.0416 1.04312,0.0396 1.56536,0.0156 0.45079,-0.0264 0.90162,-0.0521 1.35286,-0.0744 0.48224,-0.018 0.79242,-0.0167 1.15874,-0.26434 0.26042,-0.23536 0.24559,-0.5468 0.24719,-0.83296 -0.0214,-0.2201 -0.0324,-0.42861 0.0967,-0.63184 0.17954,-0.2057 0.45267,-0.35467 0.65211,-0.55111 0.0232,-0.0318 0.0464,-0.0637 0.0696,-0.0954 0,0 -1.50568,-0.53343 -1.50568,-0.53343 v 0 c -0.0175,0.0265 -0.0351,0.0529 -0.0526,0.0795 -0.20715,0.20199 -0.49939,0.35177 -0.67139,0.57187 -0.14636,0.23621 -0.15844,0.42403 -0.12135,0.67992 0.008,0.25057 0.0427,0.53526 -0.18645,0.74246 -0.31186,0.18745 -0.70859,0.18202 -1.10021,0.19829 -0.44939,0.0249 -0.89856,0.0519 -1.34819,0.0748 -0.51388,0.0213 -1.02928,0.0155 -1.54025,-0.0364 -0.23832,-0.0339 -0.27558,-0.0336 -0.50393,-0.0876 -0.5363,-0.12682 -1.66055,-0.54153 0.71436,0.28944 0.0858,0.03 -0.16767,-0.0655 -0.2515,-0.0982 -0.56605,-0.24961 -1.00951,-0.60142 -1.44666,-0.95567 -0.54163,-0.44656 -1.0909,-0.89713 -1.4697,-1.42628 -0.0405,-0.0779 -0.0901,-0.15362 -0.12144,-0.23356 -0.142,-0.36185 0.0295,-0.71775 0.16204,-1.06529 0.33048,-0.61131 0.85132,-1.11255 1.53789,-1.54893 0.6123,-0.38923 1.24399,-0.76487 1.88859,-1.12658 0.52985,-0.2675 1.10707,-0.48553 1.71795,-0.64493 0.54644,-0.12735 1.10119,-0.2309 1.66116,-0.32305 -1.581,-0.6925 -0.965,-0.73833 -1.9441,-0.47158 -0.23661,0.0665 -0.46209,0.14373 -0.72525,0.10369 -0.5066,-0.0792 -0.992,-0.2078 -1.47711,-0.33746 -0.33749,-0.0833 -0.67108,-0.17231 -1.00128,-0.26966 -0.10873,-0.032 -0.42834,-0.13854 -0.32441,-0.0992 0.31649,0.11987 1.77761,0.63313 0.90171,0.32508 -0.50634,-0.20953 -0.93412,-0.48389 -1.30466,-0.80789 -0.14309,-0.1301 -0.25467,-0.2185 -0.36193,-0.36479 -0.18615,-0.25391 -0.25156,-0.54515 -0.27403,-0.82691 0.008,-0.4136 0.0702,-0.8235 0.31944,-1.20272 0.37118,-0.55483 0.98175,-0.98686 1.62358,-1.38858 0.43071,-0.27736 0.87917,-0.53905 1.31276,-0.81394 0.24047,-0.15244 0.45277,-0.32713 0.70083,-0.47329 0.0999,-0.0589 0.21394,-0.10426 0.32091,-0.15638 0.60841,-0.26094 1.23593,-0.49035 1.96533,-0.5042 0.57438,-0.0159 1.1634,-0.0399 1.72021,0.0847 -2.82311,-1.04428 -1.06161,-0.4492 -0.78006,-0.24811 0.19757,0.14111 0.3083,0.31609 0.3579,0.50971 0.0389,0.41349 0.0138,0.84356 -0.19484,1.23374 -0.18619,0.34986 -0.47418,0.61954 -0.84358,0.88387 -0.46112,0.32404 -0.94456,0.63369 -1.37194,0.98081 -0.0621,0.025 -0.11885,0.0583 -0.18629,0.0749 -0.0701,0.0172 -0.14655,0.0172 -0.22,0.025 -0.32798,0.0346 -0.6573,0.0453 -0.98877,0.0264 -0.28865,-0.0178 -0.5708,-0.0412 -0.85418,-0.0869 -0.55946,-0.09 -1.74704,-0.45891 0.48165,0.27791 -0.87711,-0.36376 -1.48372,-0.82199 -1.9603,-1.46403 -0.1813,-0.26699 -0.31371,-0.43701 -0.43867,-0.72162 -0.15842,-0.3608 -0.19233,-0.73902 -0.20039,-1.11375 z" />
    <path
       style="fill:#1d9ecf;fill-opacity:1;stroke:#0000ff;stroke-width:0.0264582;stroke-linejoin:round"
       id="path4"
       d="m 202.96152,144.97062 c -0.31854,0.10958 -0.68619,0.15264 -0.98995,0.28567 -0.11823,0.0518 -0.36645,0.21248 -0.47331,0.2794 -0.53051,0.37623 -0.84069,0.86861 -1.11069,1.36129 -0.16112,0.38009 -0.33569,0.75912 -0.44885,1.1487 -0.11518,0.35756 -0.16661,0.72226 -0.17892,1.08887 -0.014,0.38254 0.0931,0.75483 0.28258,1.1106 0.18695,0.31148 0.40944,0.616 0.6666,0.90076 0.29149,0.29689 0.64516,0.55408 1.03526,0.7827 0.81931,0.42692 1.73406,0.81234 2.74686,0.88683 0.34567,-0.005 0.70071,0.0147 1.04476,-0.0174 0.21792,-0.0203 0.43366,-0.0687 0.64437,-0.11007 0.56531,-0.10834 1.12262,-0.24361 1.64939,-0.42736 0.32223,-0.13487 0.64796,-0.26149 0.90406,-0.45905 0.22308,-0.27238 0.37337,-0.57919 0.51016,-0.88013 0.071,-0.17948 0.0935,-0.36508 0.10808,-0.55066 0,0 -1.50942,-0.48678 -1.50942,-0.48678 v 0 c -0.008,0.17607 -0.0224,0.3525 -0.0866,0.52333 -0.12195,0.28478 -0.26166,0.57774 -0.48034,0.83023 -0.24888,0.18034 -0.56578,0.2982 -0.86923,0.42452 -0.51841,0.17607 -1.05978,0.31594 -1.61707,0.41419 -0.54954,0.0921 -1.10873,0.12521 -1.67295,0.0828 -0.17752,-0.0197 -0.24573,-0.0227 -0.41984,-0.0612 -0.0701,-0.0154 -0.27114,-0.0795 -0.20656,-0.0544 2.31901,0.90052 1.28697,0.49407 0.80907,0.26391 -0.39269,-0.21836 -0.74984,-0.45948 -1.04753,-0.74774 -0.27062,-0.27239 -0.48389,-0.57687 -0.68388,-0.8781 -0.1993,-0.33946 -0.31892,-0.69462 -0.30462,-1.0656 0.007,-0.36007 0.0459,-0.71928 0.16366,-1.07006 0.10691,-0.38435 0.27829,-0.75829 0.42874,-1.13436 0.24636,-0.4806 0.54703,-0.95588 1.07838,-1.30809 0.144,-0.0884 0.28266,-0.1825 0.44981,-0.24921 0.30636,-0.12228 0.66267,-0.17916 0.99345,-0.25509 z" />
    <path
       style="fill:#1d9ecf;fill-opacity:1;stroke:#0000ff;stroke-width:0.0264583;stroke-linejoin:round"
       id="path7"
       d="m 218.63921,144.1502 c -0.70332,0.13255 -1.28968,0.46221 -1.87824,0.75205 -0.45873,0.22354 -0.92624,0.44255 -1.34072,0.70798 -0.19182,0.12284 -0.42186,0.29903 -0.60055,0.43211 -0.43054,0.44513 -0.83834,0.90537 -1.21126,1.37661 -0.33076,0.44554 -0.40511,0.94802 -0.39712,1.44519 0.0187,0.34078 0.075,0.68063 0.25022,1.00139 0.1179,0.21588 0.23518,0.35304 0.39077,0.55578 0.50953,0.57505 1.17612,1.06301 1.87887,1.51829 0.5592,0.28785 1.14412,0.55388 1.76476,0.76959 1.86289,0.64751 1.20524,0.48755 2.20072,0.70892 0.71714,0.1439 1.4258,0.0866 2.12691,-0.0588 0.6521,-0.17988 1.35057,-0.36066 1.90856,-0.67122 0.12178,-0.0677 0.22655,-0.14973 0.33982,-0.2246 0.73789,-0.51694 1.053,-1.10195 1.26589,-1.80826 0.22352,-0.81408 0.25373,-1.64691 0.20791,-2.47419 -0.0114,-0.71933 -0.31664,-1.28856 -0.86781,-1.88039 -0.49397,-0.45794 -1.04825,-0.88263 -1.66315,-1.25878 -0.35648,-0.20645 -0.73711,-0.38848 -1.15277,-0.52855 -1.05984,-0.35716 -1.59707,-0.60675 -2.59325,-0.73266 -0.4025,-0.0463 -0.91107,-0.001 -1.25626,0.16797 -0.20241,0.0993 -0.25112,0.18821 -0.37604,0.33168 -0.31345,0.48029 -0.15141,0.83877 0.21346,1.27299 0.19837,0.19367 0.42506,0.37975 0.73145,0.48999 1.314,0.47277 1.37408,0.5854 2.41358,0.68197 0.60473,0.0542 1.18541,-0.0876 1.73896,-0.24418 0.64335,-0.18125 1.15245,-0.50985 1.69529,-0.80351 0.56984,-0.24267 1.19065,-0.43056 1.82648,-0.56729 0.42744,-0.0752 0.86183,-0.12623 1.28148,-0.22225 0,0 -1.43065,-0.61334 -1.43065,-0.61334 v 0 c -0.41906,0.0886 -0.84947,0.1431 -1.26995,0.22783 -0.64496,0.14999 -1.27789,0.3431 -1.84862,0.60541 -0.52993,0.29303 -1.04734,0.60114 -1.68621,0.76885 -0.54232,0.14659 -1.09841,0.26809 -1.68597,0.19576 -0.79256,-0.0959 -1.25671,-0.32897 0.53887,0.33263 0.096,0.0354 -0.19628,-0.0659 -0.28598,-0.10887 -0.2243,-0.10751 -0.29573,-0.18517 -0.47226,-0.32922 -0.38895,-0.4153 -0.56278,-0.66568 -0.27991,-1.14946 0.0459,-0.0512 0.0819,-0.10764 0.13754,-0.15365 0.33047,-0.27333 0.92729,-0.28189 1.38507,-0.22863 0.11538,0.0175 0.23189,0.0315 0.34614,0.0525 0.12124,0.0223 0.46405,0.12654 0.35973,0.0771 -0.32905,-0.15605 -0.70149,-0.2599 -1.04332,-0.40125 -0.1288,-0.0533 0.27275,0.0857 0.40339,0.13663 0.31461,0.12261 0.46856,0.21395 0.75623,0.36484 0.62436,0.36189 1.16973,0.78585 1.67922,1.22908 0.57339,0.57271 0.89102,1.11256 0.92024,1.82587 0.0611,0.81729 0.0302,1.64098 -0.19676,2.44487 -0.21951,0.70939 -0.48622,1.21942 -1.2288,1.74134 -0.1098,0.0689 -0.21238,0.14404 -0.3294,0.2066 -0.55708,0.29782 -1.23924,0.47607 -1.88964,0.63802 -0.69259,0.12174 -1.3826,0.16188 -2.07607,10e-4 -0.75344,-0.1858 -0.37967,-0.10719 0.71229,0.30682 0.13996,0.0531 -0.28541,-0.0985 -0.4254,-0.15152 -0.38434,-0.14559 -0.54325,-0.21838 -0.91133,-0.38564 -0.14784,-0.0672 -0.29421,-0.13596 -0.44131,-0.20395 -0.70412,-0.44266 -1.36913,-0.92146 -1.89168,-1.48058 -0.39516,-0.49251 -0.65371,-0.92455 -0.65972,-1.50083 -0.0206,-0.47751 0.0458,-0.9597 0.36465,-1.38766 0.35853,-0.46512 0.74813,-0.92278 1.17908,-1.35502 0.57681,-0.4298 1.21537,-0.80548 1.9273,-1.11875 0.57828,-0.28516 1.16212,-0.60746 1.8731,-0.69517 z" />
    <path
       style="fill:#1d9ecf;fill-opacity:1;stroke:#0000ff;stroke-width:0.0264583;stroke-linejoin:round"
       id="path8"
       d="m 229.9435,148.66325 c 1.00049,0.009 2.00045,0.0141 3.00096,0.005 0.62799,-0.0237 0.33095,-0.009 0.89128,-0.041 0,0 -1.39129,-0.62564 -1.39129,-0.62564 v 0 c -0.54054,0.0354 -0.25319,0.0197 -0.86231,0.0445 -1.01577,0.0108 -2.0317,0.004 -3.04669,-0.0347 z" />
    <path
       style="fill:#1d9ecf;fill-opacity:1;stroke:#0000ff;stroke-width:0.0264583;stroke-linejoin:round"
       id="path9"
       d="m 234.08048,149.19077 c -0.0264,0.68532 0.50284,1.2883 0.96728,1.84367 0.23467,0.24447 0.46926,0.49462 0.77028,0.6945 0.53951,0.35825 1.58508,0.64628 2.05878,0.81939 0.61124,0.11229 0.93475,0.004 1.42054,-0.27698 0.78353,-0.47647 1.42794,-1.05778 2.01841,-1.67349 0.49666,-0.50776 0.85126,-1.07782 0.95879,-1.71419 0.0243,-0.14366 0.0286,-0.28898 0.0429,-0.43347 0.0143,-0.79246 0.0386,-1.59986 -0.15457,-2.38347 -0.0422,-0.17118 -0.10434,-0.33915 -0.15651,-0.50872 -0.0572,-0.16352 -0.10979,-0.32803 -0.17169,-0.49055 -0.1361,-0.35736 -0.2975,-0.70751 -0.43739,-1.06393 -0.17082,-0.34316 -0.23178,-0.70907 -0.36721,-1.05941 -0.0751,-0.19426 -0.17117,-0.38339 -0.25676,-0.57509 -0.47039,-1.02268 -1.01517,-2.02483 -1.43077,-3.06173 -0.19308,-0.57892 -0.40652,-1.16604 -0.41067,-1.76794 -0.002,-0.33644 0.0265,-0.38284 0.0993,-0.70349 0.14505,-0.51902 0.55937,-0.92349 1.0262,-1.29452 0.41037,-0.29737 0.93307,-0.42711 1.46946,-0.524 0.47958,-0.0308 0.94716,0.10825 1.37744,0.26123 0.13512,0.048 0.5335,0.20307 0.39694,0.15753 -0.31778,-0.10595 -0.62742,-0.22598 -0.94113,-0.33898 0.79774,0.36816 1.49689,0.84327 2.17974,1.3259 0.61697,0.43685 1.11147,0.85122 1.4439,1.44732 0.14854,0.32529 0.25942,0.65927 0.33384,0.99886 0.0428,0.25686 0.1223,0.50897 0.18366,0.76342 0.48188,0.18684 0.93471,0.42787 1.44561,0.56054 0.0958,0.0249 0.65864,-1.10437 0.70485,-1.19075 0.20946,-0.36203 0.43302,-0.72866 0.74662,-1.04557 0.18505,-0.18699 0.28059,-0.24099 0.50008,-0.39533 0.26923,-0.15765 0.76879,-0.39749 1.12958,-0.36333 0.0785,0.007 0.15079,0.0373 0.22619,0.056 -0.35412,-0.12805 -0.69829,-0.27409 -1.06234,-0.38416 -0.11613,-0.0351 0.21222,0.10161 0.31359,0.15779 0.0962,0.0533 0.19317,0.10683 0.27843,0.17025 0.50919,0.37869 0.85139,0.88544 1.21462,1.34482 0.78728,1.00704 1.58097,2.01373 2.13951,3.11033 0.32287,0.69447 0.20993,1.32782 -0.0602,2.01232 -0.26677,0.62182 -0.63369,1.20743 -1.08647,1.75949 -0.52005,0.56574 -1.01221,1.14899 -1.43346,1.76206 -0.38406,0.54624 -0.81838,1.06959 -1.23378,1.60149 -0.41486,0.38709 -0.77003,0.80192 -1.06478,1.25007 -0.16574,0.29004 -0.32118,0.6314 -0.20025,0.95215 0.0257,0.0682 0.0725,0.13076 0.10872,0.19614 0.5688,0.57557 1.35034,0.98986 2.17343,1.32088 1.10945,0.44421 1.86638,0.83 3.06109,0.68511 0.13833,-0.0167 0.28317,-0.024 0.41036,-0.0689 0.19259,-0.0681 0.35634,-0.17657 0.5345,-0.26485 1.42679,-0.9923 2.1924,-2.3707 2.83372,-3.73805 0.10997,-0.29052 0.27913,-0.66583 0.30577,-0.97871 0.01,-0.1141 -0.0235,-0.22813 -0.0353,-0.34219 0,0 -1.38723,-0.4566 -1.38723,-0.4566 v 0 c 0.0236,0.10647 0.0715,0.21149 0.0709,0.31943 -0.002,0.3059 -0.16047,0.69119 -0.25521,0.9743 -0.49698,1.12565 -1.1401,2.35225 -2.20953,3.23149 -0.18713,0.15385 -0.40622,0.28257 -0.60933,0.42385 -0.17857,0.0734 -0.34688,0.16401 -0.53571,0.22027 -0.34517,0.10281 -0.89412,0.0914 -1.25212,0.0431 -0.14671,-0.0198 -0.55166,-0.15372 -0.43376,-0.0832 0.27931,0.167 0.62399,0.25566 0.93599,0.3835 -0.82021,-0.30749 -1.5781,-0.70475 -2.17843,-1.24158 -0.0403,-0.0553 -0.0908,-0.10688 -0.12107,-0.16583 -0.14929,-0.29065 0.0109,-0.61614 0.15126,-0.88551 0.28415,-0.45025 0.65287,-0.85346 1.05738,-1.24362 0.40303,-0.53923 0.83018,-1.06757 1.22121,-1.61225 0.41923,-0.61043 0.90892,-1.19108 1.4255,-1.75492 0.46396,-0.55941 0.83882,-1.15349 1.11202,-1.78512 0.27816,-0.72134 0.40487,-1.35358 0.082,-2.08951 -0.57674,-1.1066 -1.39215,-2.11848 -2.18045,-3.14177 -0.32372,-0.4308 -0.67669,-0.99315 -1.12285,-1.36167 -0.57491,-0.47487 -1.60562,-0.69405 -2.24186,-0.98165 -0.0867,-0.008 -0.17287,-0.0248 -0.26005,-0.0232 -0.4174,0.008 -0.85087,0.24142 -1.15874,0.43287 -0.22345,0.16681 -0.31747,0.22464 -0.50945,0.42167 -0.31647,0.3248 -0.55155,0.69394 -0.75805,1.06594 -0.14904,0.27264 -0.27929,0.55698 -0.45059,0.82189 -0.0395,0.0611 -0.0825,0.12117 -0.13337,0.17701 -0.0187,0.0204 -0.10047,0.0361 -0.073,0.0497 0.4154,0.20633 0.86286,0.37126 1.2943,0.55689 -0.0601,-0.25484 -0.1522,-0.5054 -0.18909,-0.76315 -0.0756,-0.35007 -0.19371,-0.69281 -0.33961,-1.02966 -0.32634,-0.62954 -0.80501,-1.04174 -1.4456,-1.50179 -0.68053,-0.48618 -1.37252,-0.97023 -2.16391,-1.34826 -0.57334,-0.22988 -1.14487,-0.46247 -1.71999,-0.68964 -0.57092,-0.22552 -1.20306,-0.43584 -1.85483,-0.36087 -0.55519,0.11396 -1.09256,0.26223 -1.50735,0.58305 -0.48073,0.39198 -0.90244,0.82116 -1.04684,1.36344 -0.0258,0.11577 -0.0612,0.23046 -0.0773,0.34729 -0.10223,0.74129 0.1448,1.4722 0.39041,2.18334 0.41169,1.04203 0.96197,2.0465 1.44411,3.06999 0.0836,0.18747 0.17747,0.37241 0.25076,0.56239 0.13599,0.35254 0.201,0.71984 0.36415,1.06696 0.20153,0.51512 0.44742,1.02065 0.60877,1.545 0.0522,0.16587 0.11372,0.33021 0.15669,0.49762 0.19866,0.77404 0.1738,1.57249 0.15735,2.35619 -0.0157,0.1395 -0.0234,0.2797 -0.0472,0.41851 -0.10589,0.6199 -0.43742,1.17386 -0.91989,1.67161 -0.5823,0.60837 -1.23104,1.17709 -2.02364,1.6291 -0.48722,0.24609 -0.78359,0.3134 -1.35502,0.17523 2.72309,1.08143 0.90862,0.39667 0.6417,0.24064 -0.31738,-0.18553 -0.55584,-0.43439 -0.80036,-0.67289 -0.44932,-0.51721 -0.97892,-1.08847 -0.97315,-1.73401 z" />
    <path
       style="fill:#1d9ecf;fill-opacity:1;stroke:#0000ff;stroke-width:0.0264583;stroke-linejoin:round"
       id="path10"
       d="m 260.06567,146.28628 c -0.0528,-0.008 -0.10494,-0.0234 -0.15852,-0.0225 -0.4542,0.008 -1.02889,0.34191 -1.39128,0.54416 -0.61523,0.3501 -0.86414,0.67487 -1.00795,1.27004 -0.12815,0.63316 0.1273,1.22027 0.46399,1.78067 0.30288,0.48872 0.76679,0.88338 1.19229,1.29899 0.41863,0.43188 0.84181,0.80566 1.40891,1.1054 0.66265,0.16488 1.24596,0.60243 1.93803,0.74762 0.23898,0.0501 0.48138,0.0565 0.72599,0.0623 0.66238,-0.0283 1.30647,-0.18494 1.93669,-0.34403 0.66709,-0.1861 1.01349,-0.50733 1.42021,-0.95442 0.50253,-0.53604 0.80937,-1.15235 1.05298,-1.79281 0.17174,-0.68764 0.32675,-1.37909 0.4455,-2.07461 0.0594,-0.4287 0.10273,-0.86454 0.0243,-1.29338 -0.18147,-0.50677 -0.61468,-0.74246 -1.15223,-0.98005 -0.6683,-0.0676 -1.20274,-0.58542 -1.87074,-0.72365 -0.64023,-0.13248 -1.37236,-0.10757 -2.02786,-0.11433 -0.81262,-0.003 -1.62375,0.0308 -2.43413,0.0727 -0.79953,0.0642 -1.55252,0.26843 -2.24856,0.58989 -0.16793,0.10091 -0.41888,0.2227 -0.4749,0.40672 -0.0644,0.21151 0.0977,0.40493 0.21515,0.57843 0.15659,0.17362 0.33179,0.34695 0.57212,0.44674 0.94122,0.39078 1.21021,0.58718 2.02608,0.67002 0.71333,0.0366 1.4108,-0.019 2.08831,-0.202 0.42225,-0.15771 0.76687,-0.41349 1.19654,-0.55874 0.44641,-0.11572 0.88413,-0.2565 1.31779,-0.40192 0.47779,-0.16689 0.98537,-0.2526 1.49747,-0.31192 0.38921,-0.041 0.78146,-0.0567 1.17303,-0.0755 0.5869,-0.0484 1.17717,-0.0282 1.76607,-0.0263 0.43416,0.006 0.86113,0.0231 1.26244,-0.12654 0.3594,-0.21141 0.48161,-0.58002 0.6663,-0.89456 0.0693,-0.18309 0.34147,-0.41371 0.38617,-0.59639 0.009,-0.0358 -0.002,-0.073 -0.003,-0.10959 -0.27755,-0.42417 -1.08805,-0.49145 -1.55833,-0.58321 -0.087,-0.017 -0.14367,0.51457 -0.15035,0.56972 -0.0357,0.58625 0.0174,1.17287 0.0593,1.75816 0.0326,0.51542 0.17823,1.01766 0.2898,1.52379 0.0826,0.39091 0.12689,0.78605 0.16634,1.18101 0.0292,0.31097 0.0518,0.62228 0.077,0.93347 0.0237,0.28961 0.0451,0.57932 0.0669,0.86903 -0.011,0.39597 0.20563,0.72543 0.47698,1.04098 0.31,0.29409 0.63464,0.59121 1.04406,0.7927 1.27039,0.54634 1.27949,0.62839 2.35685,0.5835 0.4773,0.008 0.869,-0.14341 1.24713,-0.36466 0.36335,-0.24386 0.67097,-0.53641 0.98543,-0.82079 0.12926,-0.10121 0.22183,-0.21754 0.30466,-0.34569 0,0 -1.30041,-0.53397 -1.30041,-0.53397 v 0 c -0.0767,0.11928 -0.16565,0.22694 -0.28299,0.32299 -0.29986,0.28296 -0.60535,0.5663 -0.96767,0.79702 -0.38251,0.21274 -0.73837,0.31415 -1.20784,0.30603 -0.18909,0.005 -0.37974,0.0125 -0.56861,-0.004 -0.5123,-0.0439 -1.21994,-0.42178 0.81609,0.41912 -0.43398,-0.16514 -0.75479,-0.46345 -1.07749,-0.74651 -0.27744,-0.28905 -0.50601,-0.59336 -0.49124,-0.97225 -0.025,-0.29018 -0.0501,-0.58036 -0.072,-0.87072 -0.0244,-0.31219 -0.0488,-0.6244 -0.0788,-0.93629 -0.0396,-0.39965 -0.0932,-0.79836 -0.17005,-1.19461 -0.10957,-0.50497 -0.26925,-1.00307 -0.3116,-1.51645 -0.0425,-0.57743 -0.0877,-1.15699 -0.0522,-1.73517 0.0148,-0.11955 0.0256,-0.2702 0.0675,-0.38827 0.0105,-0.0296 0.0822,-0.0665 0.0502,-0.0827 -1.94496,-0.9798 -1.57903,-0.63302 -1.07255,-0.45816 0.0155,0.0124 0.0464,0.0196 0.0464,0.0374 3.7e-4,0.10536 -0.33487,0.47719 -0.37146,0.5985 -0.161,0.28833 -0.28062,0.63856 -0.62336,0.81475 -0.38978,0.11927 -0.80688,0.0895 -1.21712,0.0944 -0.5954,-0.002 -1.19132,-0.009 -1.78553,0.0252 -0.3922,0.0201 -0.78524,0.0416 -1.17419,0.0878 -0.51545,0.0709 -1.02464,0.16857 -1.50587,0.33928 -0.44007,0.14318 -0.88711,0.27097 -1.33413,0.39868 -0.41135,0.15956 -0.75007,0.4133 -1.17205,0.55634 -0.66798,0.17292 -1.36208,0.21394 -2.06019,0.15275 -0.63563,-0.0917 -1.11411,-0.35398 0.54276,0.34727 0.0754,0.0319 -0.15435,-0.0591 -0.2246,-0.0981 -0.15569,-0.0865 -0.24498,-0.18003 -0.37064,-0.29264 -0.0843,-0.11249 -0.294,-0.31392 -0.26583,-0.46228 0.0309,-0.16267 0.2887,-0.2704 0.4225,-0.35723 0.68203,-0.31467 1.42159,-0.50739 2.20796,-0.54865 0.80154,-0.0399 1.60387,-0.0785 2.40748,-0.0763 0.53754,0.007 1.08048,0.008 1.61286,0.0817 0.13931,0.0194 0.27749,0.046 0.41266,0.0799 0.10508,0.0264 0.40247,0.14416 0.3061,0.10069 -0.31804,-0.14345 -0.64841,-0.26755 -0.97262,-0.40132 0.49673,0.20642 0.98597,0.41805 1.18588,0.87507 0.1025,0.41622 0.0472,0.84706 0.009,1.26692 -0.0988,0.69246 -0.25568,1.37805 -0.42486,2.06068 -0.23355,0.63042 -0.54465,1.23056 -1.04846,1.75023 -0.37958,0.41634 -0.74601,0.73117 -1.37045,0.89266 -0.62369,0.15282 -1.2645,0.30547 -1.92102,0.30423 -0.24312,-0.0152 -0.47499,-0.0329 -0.70926,-0.0928 -0.47059,-0.12054 -1.36177,-0.54995 0.61563,0.28959 -0.21512,-0.10231 -0.30854,-0.13838 -0.5068,-0.26824 -0.34998,-0.22926 -0.63,-0.52039 -0.91563,-0.80035 -0.42169,-0.41597 -0.90121,-0.79705 -1.21654,-1.27841 -0.35244,-0.5448 -0.60585,-1.07871 -0.49203,-1.706 0.133,-0.57124 0.36143,-0.85653 0.95188,-1.19049 0.44673,-0.24101 0.95685,-0.54333 1.51925,-0.42551 z" />
    <path
       style="fill:#1d9ecf;fill-opacity:1;stroke:#0000ff;stroke-width:0.0264583;stroke-linejoin:round"
       id="path11"
       d="m 268.61356,139.33562 c -0.15258,0.42107 -0.13676,0.69797 0.0139,1.1172 0.13876,0.31509 0.33861,0.60696 0.65687,0.81033 1.12537,0.49859 1.16495,0.72778 2.03241,0.3164 0.37903,-0.2025 0.72045,-0.45569 1.03381,-0.72731 0.35831,-0.34194 0.45703,-0.77717 0.49928,-1.22109 0.0401,-0.37191 -0.0317,-0.72562 -0.26469,-1.04277 -0.11489,-0.11611 -0.24671,-0.22877 -0.40905,-0.29637 -0.84495,-0.3519 -0.98971,-0.51839 -1.66682,-0.5655 -0.34857,0.0272 -0.75507,0.0317 -1.04903,0.21907 -0.0687,0.0438 -0.12177,0.10294 -0.18265,0.1545 -0.31515,0.28974 -0.47753,0.65644 -0.68128,1.00342 -0.076,0.11148 -0.14847,0.22464 -0.22165,0.33746 0,0 1.15317,0.49424 1.15317,0.49424 v 0 c 0.0696,-0.11581 0.14047,-0.23107 0.21551,-0.3444 0.18942,-0.3388 0.34554,-0.69375 0.65393,-0.9716 0.0553,-0.042 0.1039,-0.0916 0.16583,-0.12613 0.29125,-0.16244 0.68368,-0.1599 1.01684,-0.16293 0.52859,0.0651 0.92403,0.31996 -0.62637,-0.37282 -0.0489,-0.0218 0.10056,0.0391 0.14821,0.0628 0.14027,0.07 0.16015,0.0949 0.28121,0.18761 0.26136,0.28276 0.33865,0.62035 0.30762,0.97652 -0.0352,0.41992 -0.11452,0.83198 -0.46134,1.15222 -0.30704,0.26393 -0.64745,0.5051 -1.02266,0.69523 -0.14241,0.0618 -0.28848,0.13377 -0.45011,0.15258 -0.42607,0.0495 -1.24891,-0.48317 0.75161,0.42036 -0.34539,-0.16009 -0.54962,-0.44094 -0.7014,-0.74441 -0.15251,-0.37274 -0.19585,-0.66043 -0.0296,-1.03756 z" />
    <text
       xml:space="preserve"
       transform="matrix(0.85989222,0,0,0.62643629,-172.07757,-201.88573)"
       id="text11"
       style="font-size:16px;line-height:normal;font-family:'Liberation Mono';-inkscape-font-specification:'Liberation Mono';text-align:center;text-decoration-color:#000000;white-space:pre;shape-inside:url(#rect11);fill:#1d9ecf;fill-opacity:1;stroke-width:0.360497;-inkscape-stroke:none;stop-color:#000000"><tspan
         x="228.43555"
         y="572.31066"
         id="tspan6">The eco blog</tspan></text>
    <path
       d="m 103.54859,144.57711 -0.17436,-0.0971 a 0.13308541,0.13308541 0 0 0 -0.0542,-0.008 1.1718396,1.1718396 0 0 0 -0.16854,0.0175 q -0.18415,0.0291 -0.42624,0.11615 a 2.1984229,2.1984229 0 0 0 -0.47493,0.24236 q -0.23257,0.15505 -0.36804,0.40693 l -0.0775,-0.0193 a 1.397,1.397 0 0 0 -0.36142,-0.0476 1.4401271,1.4401271 0 0 0 -0.22966,0.0185 3.7078708,3.7078708 0 0 1 -0.59108,0.0484 2.8328937,2.8328937 0 0 1 -0.17647,0.006 1.1945937,1.1945937 0 0 1 -0.734493,-0.18997 q -0.29051,-0.22278 -0.61992,-0.84296 a 2.00025,2.00025 0 0 1 -0.13573,-0.29051 q -0.0582,-0.15505 -0.0968,-0.31009 v -0.0775 a 0.51434999,0.51434999 0 0 0 0.29051,-0.41672 2.4042687,2.4042687 0 0 0 0.007,-0.17753 2.835275,2.835275 0 0 0 -0.0259,-0.37465 5.8292999,5.8292999 0 0 1 -0.0484,-0.56198 0.65563749,0.65563749 0 0 1 -5.2e-4,-0.0235 0.52255208,0.52255208 0 0 1 0.20399,-0.42228 0.76543957,0.76543957 0 0 1 -0.0516,-0.26987 0.69109166,0.69109166 0 0 1 0.0807,-0.32121 36.369889,36.369889 0 0 1 0.28099,-0.53287 1.0218208,1.0218208 0 0 0 0.13573,-0.48445 q 0,-0.23257 -0.42651,-0.48445 -0.44555,0.17436 -0.84296,0.43603 -0.39714,0.26167 -0.79454,0.54266 a 58.842539,58.842539 0 0 1 -0.79455,0.55219 4.2113729,4.2113729 0 0 1 -0.84296,0.44582 q -0.40693,0.44556 -0.85249,0.76544 a 14.602089,14.602089 0 0 0 -0.86254,0.6686 5.1173062,5.1173062 0 0 0 -0.75565,0.78475 q -0.33919,0.43604 -0.51355,1.07554 -0.0968,-0.11642 -0.19368,-0.15505 a 2.0113625,2.0113625 0 0 0 -0.25188,-0.0775 q -0.21326,-0.0582 -0.31009,-0.12595 a 3.1723541,3.1723541 0 0 1 -0.25215,-0.20346 l 0.0196,-0.0389 a 13.010621,13.010621 0 0 1 0.40693,-1.02712 q 0.23256,-0.52308 0.23256,-1.04642 a 1.5639521,1.5639521 0 0 0 -0.0389,-0.35851 1.5639521,1.5639521 0 0 1 -0.0386,-0.35851 1.7068271,1.7068271 0 0 1 0.11615,-0.6395 q 0.11642,-0.29051 0.26168,-0.5424 0.14525,-0.25215 0.27119,-0.49424 0.12595,-0.24236 0.12595,-0.51356 a 1.0226146,1.0226146 0 0 0 -0.0968,-0.42624 1.2411604,1.2411604 0 0 0 -0.25188,-0.3683 1.5695083,1.5695083 0 0 0 -0.10451,-0.003 1.3300604,1.3300604 0 0 0 -0.43815,0.0712 5.4800499,5.4800499 0 0 0 -0.50377,0.20347 4.6230645,4.6230645 0 0 1 -0.52335,0.20373 1.5263812,1.5263812 0 0 1 -0.4699,0.0712 1.7867312,1.7867312 0 0 1 -0.11139,-0.003 q -0.40693,0.40693 -0.83317,0.80407 a 94.191665,94.191665 0 0 1 -0.85275,0.78502 37.890714,37.890714 0 0 0 -1.73435,1.64703 q -0.84296,0.85275 -1.34672,1.93807 -0.0971,0.21299 -0.16484,0.43577 -0.0677,0.22305 -0.16457,0.43603 a 0.11165417,0.11165417 0 0 1 -0.0389,0.0775 h -0.0968 a 0.29871458,0.29871458 0 0 0 -0.28099,0.11641 q -0.068,0.11616 -0.0968,0.26168 a 3.5739916,3.5739916 0 0 1 -0.068,0.28098 q -0.0386,0.13547 -0.17436,0.17437 a 0.36089166,0.36089166 0 0 1 -0.0878,0.0111 0.37888333,0.37888333 0 0 1 -0.21246,-0.0693 1.5877646,1.5877646 0 0 1 -0.24236,-0.19368 l -0.0193,-0.0196 a 1.3446125,1.3446125 0 0 1 -0.21325,-0.6395 2.0341166,2.0341166 0 0 1 -0.003,-0.11932 2.0044833,2.0044833 0 0 1 0.0714,-0.5297 q 0.0871,-0.31988 0.25189,-0.62997 0.16457,-0.30983 0.31961,-0.58129 a 11.500908,11.500908 0 0 0 0.43604,-0.84296 2.1507979,2.1507979 0 0 0 0.20346,-0.92049 1.3414375,1.3414375 0 0 0 -0.0484,-0.37782 q -0.0484,-0.16484 -0.0871,-0.3392 l 0.42625,-0.29051 a 0.51593749,0.51593749 0 0 1 -0.10663,-0.24236 1.1504083,1.1504083 0 0 1 -0.005,-0.10425 0.99774374,0.99774374 0 0 1 0.005,-0.0992 16.880681,16.880681 0 0 1 0.0193,-0.18415 0.3190875,0.3190875 0 0 0 0.002,-0.0352 0.40031458,0.40031458 0 0 0 -0.031,-0.14896 v -0.0579 l 0.15478,-0.17462 a 19.921537,19.921537 0 0 1 -0.0386,-1.20148 3.3662937,3.3662937 0 0 0 -0.23257,-1.18189 0.53022499,0.53022499 0 0 1 0.35322,-0.16801 0.37676666,0.37676666 0 0 1 0.17013,0.0421 6.5571687,6.5571687 0 0 1 0.50376,0.28099 v 0.0193 l 0.0193,0.0193 q 0.15504,0.23257 0.27146,0.56198 a 4.6749229,4.6749229 0 0 1 0.18388,0.68792 q 0.068,0.35851 0.10663,0.70749 a 5.6837791,5.6837791 0 0 1 0.0389,0.61992 1.0289646,1.0289646 0 0 1 -0.01,0.14552 1.0289646,1.0289646 0 0 0 -0.01,0.14526 l -0.11616,0.11615 a 3.1829375,3.1829375 0 0 0 0.21326,0.19394 0.31829375,0.31829375 0 0 0 0.20717,0.0807 0.31564791,0.31564791 0 0 0 0.0447,-0.003 0.69267916,0.69267916 0 0 1 0.36804,-0.45535 q 0.25214,-0.10662 0.51355,-0.16483 0.26168,-0.0582 0.46514,-0.16484 a 0.46566666,0.46566666 0 0 0 0.20347,-0.45534 q 0,-0.0775 -0.0193,-0.11616 l 0.0386,-0.0389 a 11.087629,11.087629 0 0 1 1.11442,-0.97843 4.1947041,4.1947041 0 0 1 1.20148,-0.64929 3.430852,3.430852 0 0 1 1.10728,-0.18044 3.7380333,3.7380333 0 0 1 0.21034,0.006 3.9131875,3.9131875 0 0 1 1.48246,0.42625 l 0.0389,0.0193 0.21299,0.79455 -0.13547,0.13573 a 0.82232499,0.82232499 0 0 1 0.15505,0.49 1.0443104,1.0443104 0 0 1 -0.01,0.1397 q -0.0484,0.35852 -0.16457,0.7075 -0.11642,0.34872 -0.21326,0.64902 a 0.79401457,0.79401457 0 0 0 -0.0442,0.23919 0.29236458,0.29236458 0 0 0 0.0635,0.19685 0.33893125,0.33893125 0 0 0 0.2958,0.11879 0.85142916,0.85142916 0 0 0 0.0627,-0.002 q 0.26167,-0.0196 0.41671,-0.0389 a 1.3081,1.3081 0 0 1 0.43604,-0.36804 11.630289,11.630289 0 0 1 0.56197,-0.29077 3.8481,3.8481 0 0 0 0.49398,-0.28099 q 0.21325,-0.14526 0.23257,-0.31962 a 1.25095,1.25095 0 0 0 0.22966,0.023 0.66410416,0.66410416 0 0 0 0.27437,-0.0521 0.72019582,0.72019582 0 0 0 0.31009,-0.26167 3.0233937,3.0233937 0 0 0 0.21299,-0.37783 q 0.0968,-0.20346 0.22278,-0.38761 a 0.83528957,0.83528957 0 0 1 0.31988,-0.28099 0.77046666,0.77046666 0 0 1 0.34608,-0.0693 1.5202958,1.5202958 0 0 1 0.17727,0.0111 q 0.44556,-0.44556 1.05595,-0.64929 0.610393,-0.20346 1.230583,-0.22278 a 1.2983104,1.2983104 0 0 1 0.0564,-0.001 0.61012916,0.61012916 0 0 1 0.56383,0.263 1.2422187,1.2422187 0 0 1 0.17436,0.6686 2.1402146,2.1402146 0 0 1 -0.23257,0.9689 q -0.23257,0.46514 -0.52308,0.94959 a 9.2892561,9.2892561 0 0 0 -0.52335,1.00754 2.8318354,2.8318354 0 0 0 -0.23256,1.16284 v 0.20346 q 0,0.14526 0.0193,0.29078 0.0196,0.14526 0.0484,0.2712 a 0.26246666,0.26246666 0 0 0 0.0873,0.16483 q 0.0775,0.0386 0.13573,0.0579 l -0.0968,0.0775 a 4.9006124,4.9006124 0 0 1 0.79454,0.16484 q 0.34872,0.10662 0.75565,-0.068 0.11615,-0.0386 0.24209,-0.0579 0.12621,-0.0196 0.24236,-0.0582 0.17436,-0.0193 0.21326,-0.14526 0.0386,-0.12594 0.14525,-0.25188 0.10663,-0.12621 0.34872,-0.23257 0.24236,-0.10663 0.80434,-0.10663 v -0.31009 a 2.3915687,2.3915687 0 0 0 0.65881,-0.3003 10.324042,10.324042 0 0 1 0.53287,-0.3392 2.1060833,2.1060833 0 0 1 0.40031,-0.18124 1.4464771,1.4464771 0 0 0 -0.0418,-0.16748 0.61515624,0.61515624 0 0 0 0.26167,-0.27146 q 0.0677,-0.15505 0.0968,-0.31962 a 1.5647458,1.5647458 0 0 1 0.0873,-0.31009 0.48603958,0.48603958 0 0 1 0.2712,-0.24236 q -0.15505,-0.46514 0.0484,-0.68791 0.20346,-0.22278 0.49424,-0.39714 0.29078,-0.17436 0.54266,-0.38762 a 0.60324999,0.60324999 0 0 0 0.20452,-0.4871 1.1292417,1.1292417 0 0 0 -0.0108,-0.1524 q 0.11641,-0.11641 0.27146,-0.19394 a 12.36345,12.36345 0 0 1 0.3003,-0.14525 q 0.14526,-0.0677 0.28099,-0.14526 0.13573,-0.0775 0.25188,-0.21325 a 0.24235833,0.24235833 0 0 1 -0.12673,-0.18071 0.12964583,0.12964583 0 0 1 7.9e-4,-0.013 0.84216874,0.84216874 0 0 1 0.0484,-0.20346 5.2104395,5.2104395 0 0 1 0.0873,-0.22305 0.27305,0.27305 0 0 0 0.022,-0.10557 0.28151666,0.28151666 0 0 0 -0.0318,-0.127 1.7854083,1.7854083 0 0 0 0.26167,0.0201 1.3231812,1.3231812 0 0 0 0.65882,-0.16536 13.754629,13.754629 0 0 0 0.75565,-0.45535 2.5093083,2.5093083 0 0 1 0.72681,-0.32941 q 0.3683,-0.0968 0.85275,0.23257 0.0386,0.13547 0.12594,0.39714 a 52.159958,52.159958 0 0 1 0.17436,0.53287 43.934856,43.934856 0 0 1 0.16484,0.52335 q 0.0773,0.25188 0.0968,0.3683 v 0.30983 0.45561 0.45535 0.3294 q 0.56198,0.32941 1.12395,0.39714 a 1.6002,1.6002 0 0 0 0.19183,0.0116 1.8293291,1.8293291 0 0 0 0.93212,-0.27305 q 0.21299,0.19368 0.40693,0.10637 a 3.0546145,3.0546145 0 0 0 0.37783,-0.20347 0.77390624,0.77390624 0 0 1 0.37782,-0.12594 0.22172083,0.22172083 0 0 1 0.0111,-2.6e-4 0.51170416,0.51170416 0 0 1 0.3765,0.32014 1.2498917,1.2498917 0 0 1 0.56197,-0.31988 q 0.29078,-0.0677 0.60087,-0.0775 a 6.3068728,6.3068728 0 0 0 0.081,-0.003 8.4203645,8.4203645 0 0 0 0.22913,-0.21987 4.9694041,4.9694041 0 0 0 0.30983,-0.01 1.2231687,1.2231687 0 0 1 0.0765,-0.002 1.0210271,1.0210271 0 0 1 0.21431,0.022 0.49609374,0.49609374 0 0 1 0.10345,0.0328 1.2744979,1.2744979 0 0 0 0.18732,-0.12012 0.77681666,0.77681666 0 0 1 0.0281,0.20002 0.51831874,0.51831874 0 0 1 -0.008,0.10187 0.60563124,0.60563124 0 0 1 0.0773,0.18256 1.5464896,1.5464896 0 0 1 0.0542,0.38602 0.83317291,0.83317291 0 0 1 -0.12197,0.45694 5.1659895,5.1659895 0 0 1 -0.45561,0.61039 q -0.25189,0.29078 -0.40693,0.60087 -0.15505,0.31009 0.0775,0.79455 a 0.29871458,0.29871458 0 0 0 -0.28099,0.11615 q -0.0677,0.11642 -0.0968,0.26167 a 1.4165791,1.4165791 0 0 1 -0.0873,0.28099 0.35745208,0.35745208 0 0 1 -0.2323,0.19367 0.59689999,0.59689999 0 0 1 0.12594,0.40693 q 0.01,0.29078 0.0579,0.55245 a 0.91439999,0.91439999 0 0 0 0.17463,0.41672 q 0.12594,0.15505 0.47466,0.0193 0.25188,0.21325 0.6104,0.17436 a 4.2526479,4.2526479 0 0 1 0.4564,-0.0259 3.4006895,3.4006895 0 0 1 0.2122,0.007 q 0.2712,-0.17436 0.46513,-0.18415 a 1.2827,1.2827 0 0 1 0.064,-0.002 1.1310937,1.1310937 0 0 1 0.30401,0.0402 q 0.17463,0.0487 0.3683,0.0873 a 0.59610624,0.59610624 0 0 0 0.11695,0.0111 1.0482792,1.0482792 0 0 0 0.34819,-0.0693 q 0.0775,-0.32941 0.2712,-0.38762 0.19394,-0.0579 0.38761,-0.0677 a 1.2615333,1.2615333 0 0 0 0.35851,-0.0677 0.45164374,0.45164374 0 0 0 0.22278,-0.38761 q 0.15505,-0.19368 0.3683,-0.22278 a 12.040923,12.040923 0 0 0 0.43603,-0.068 q 0.22278,-0.0386 0.40693,-0.16457 a 0.76411666,0.76411666 0 0 0 0.26168,-0.49424 q 0.3294,-0.25188 0.47466,-0.37782 0.14525,-0.12595 0.24236,-0.20347 a 2.7127729,2.7127729 0 0 1 0.25188,-0.17436 q 0.15505,-0.0971 0.52308,-0.32941 a 3.2385,3.2385 0 0 1 0.004,0.14658 1.0742083,1.0742083 0 0 1 -0.0714,0.45403 q -0.0873,0.17436 -0.20347,0.28099 -0.11615,0.10662 -0.20346,0.23256 -0.0873,0.12595 -0.0873,0.43604 a 7.7776916,7.7776916 0 0 1 -0.71703,0.70723 3.9155687,3.9155687 0 0 1 -0.52308,0.3683 59.83208,59.83208 0 0 1 -0.56197,0.31962 q -0.31009,0.17462 -0.85275,0.54266 l -0.13573,0.0193 a 0.40243124,0.40243124 0 0 1 -0.20347,0.3392 1.0392833,1.0392833 0 0 1 -0.32941,0.0484 1.6475604,1.6475604 0 0 0 -0.35851,0.0389 q -0.17436,0.0386 -0.29051,0.32941 a 1.7385771,1.7385771 0 0 1 -0.4818,0.0807 0.96599374,0.96599374 0 0 1 -0.0802,-0.003 7.5152249,7.5152249 0 0 0 -0.60087,-0.0193 q -0.11615,0 -0.3003,-0.0196 a 1.1038417,1.1038417 0 0 0 -0.1151,-0.006 0.58816874,0.58816874 0 0 0 -0.18521,0.0259 0.37412083,0.37412083 0 0 0 -0.16483,0.10637 q -0.0871,0.0873 -0.18415,0.14552 a 0.32041041,0.32041041 0 0 1 -0.16616,0.0497 0.27807708,0.27807708 0 0 1 -0.0275,-0.001 0.25003125,0.25003125 0 0 1 -0.17436,-0.16484 0.91863332,0.91863332 0 0 1 -0.22304,0.0291 0.70432082,0.70432082 0 0 1 -0.20347,-0.0291 1.1242146,1.1242146 0 0 1 -0.36803,-0.19367 q -0.17436,-0.13574 -0.31988,-0.31989 a 8.7410395,8.7410395 0 0 0 -0.28099,-0.33893 q -0.0968,-0.11641 -0.21299,-0.21325 a 3.1829375,3.1829375 0 0 1 -0.21325,-0.19394 1.2493625,1.2493625 0 0 1 -0.3101,-0.5424 q -0.0968,-0.3294 -0.11615,-0.67839 a 4.1915291,4.1915291 0 0 1 -0.007,-0.23257 4.2084624,4.2084624 0 0 1 0.0259,-0.46487 3.7951833,3.7951833 0 0 1 0.11615,-0.62018 0.94562082,0.94562082 0 0 0 0.24236,-0.39741 5.2191708,5.2191708 0 0 0 0.11615,-0.45535 5.2191708,5.2191708 0 0 1 0.11642,-0.45534 0.94562082,0.94562082 0 0 1 0.24209,-0.39741 1.2168187,1.2168187 0 0 1 0.003,-0.0995 16.867452,16.867452 0 0 1 -1.03982,0.16748 45.204591,45.204591 0 0 0 -1.55998,0.22278 1.4343062,1.4343062 0 0 1 -0.21828,0.0172 1.2046479,1.2046479 0 0 1 -0.25665,-0.027 1.51765,1.51765 0 0 0 -0.32332,-0.0344 1.5898812,1.5898812 0 0 0 -0.13203,0.006 3.044825,3.044825 0 0 1 -0.25188,-0.01 0.93292082,0.93292082 0 0 0 -0.0775,-0.003 0.94138749,0.94138749 0 0 0 -0.15505,0.013 0.66198749,0.66198749 0 0 0 -0.58129,0.3003 q -0.13573,0.26168 -0.22278,0.60061 a 4.6389395,4.6389395 0 0 1 -0.21325,0.63949 0.75485624,0.75485624 0 0 1 -0.53287,0.41672 0.1825625,0.1825625 0 0 0 -0.0143,0.068 0.15901458,0.15901458 0 0 0 0.0434,0.10636 1.3559896,1.3559896 0 0 1 0.10637,0.13573 q -0.32941,0.0968 -0.43604,0.34873 a 5.2726166,5.2726166 0 0 0 -0.18388,0.50403 1.2152312,1.2152312 0 0 1 -0.22305,0.42624 0.45111458,0.45111458 0 0 1 -0.36512,0.1307 1.3305896,1.3305896 0 0 1 -0.18706,-0.0145 4.8254708,4.8254708 0 0 1 -1.41473,1.0369 q -0.81386,0.39714 -1.68592,0.51356 -0.15505,-0.0775 -0.30031,-0.19394 -0.14525,-0.11615 -0.29077,-0.21299 -0.14526,-0.0971 -0.3101,-0.14552 a 0.69876457,0.69876457 0 0 0 -0.1979,-0.0267 1.0070042,1.0070042 0 0 0 -0.17992,0.0172 2.2246166,2.2246166 0 0 0 -0.16457,-0.75592 q -0.14552,-0.34872 -0.37809,-0.65881 a 1.4615583,1.4615583 0 0 1 -0.009,-0.1614 1.2483042,1.2483042 0 0 1 0.0963,-0.48789 16.343841,16.343841 0 0 1 0.0667,-0.15663 0.56382708,0.56382708 0 0 1 -0.0278,0.0114 1.0980208,1.0980208 0 0 1 -0.39741,0.0582 q 0,0.0582 -0.20346,0.2421 a 35.214983,35.214983 0 0 1 -0.43604,0.38761 q -0.23257,0.20347 -0.42624,0.38762 a 0.59107916,0.59107916 0 0 0 -0.19394,0.24235 z m 2.92629,0.19368 0.42625,-0.29078 a 0.31088541,0.31088541 0 0 1 0.12594,0.11642 0.17065625,0.17065625 0 0 1 0.027,0.0921 0.22145625,0.22145625 0 0 1 -0.0172,0.0823 q 0.15504,-0.15505 0.34872,-0.24236 a 2.2182666,2.2182666 0 0 1 0.3974,-0.13547 9.1424124,9.1424124 0 0 1 0.40693,-0.0873 2.1510625,2.1510625 0 0 0 0.39714,-0.11615 1.11125,1.11125 0 0 0 0.50694,0.17251 0.3159125,0.3159125 0 0 0 0.19077,-0.0564 q 0.21325,-0.15504 0.34872,-0.46514 0.13573,-0.31009 0.29077,-0.64902 0.15505,-0.33919 0.50377,-0.41672 l -0.13547,-0.13573 a 7.3466853,7.3466853 0 0 0 0.59108,-0.84296 1.7237604,1.7237604 0 0 0 0.24342,-0.90408 2.0825354,2.0825354 0 0 0 -0.001,-0.0744 q -0.38762,0 -0.6686,-0.18415 a 6.2899395,6.2899395 0 0 1 -0.56198,-0.41672 q -0.28099,-0.23257 -0.58129,-0.43603 a 1.5179146,1.5179146 0 0 0 -0.72681,-0.2421 2.8604104,2.8604104 0 0 1 -0.40693,0.43604 2.8604104,2.8604104 0 0 0 -0.40693,0.43577 1.3985875,1.3985875 0 0 0 -0.24209,0.50403 0.70802499,0.70802499 0 0 0 -0.0206,0.17224 1.11125,1.11125 0 0 0 0.10769,0.44794 1.1308292,1.1308292 0 0 0 -0.60061,0.61039 3.3030583,3.3030583 0 0 0 -0.20346,0.86228 q -0.0484,0.46514 -0.0873,0.93028 -0.0386,0.46487 -0.25189,0.83317 z m 4.88342,-6.12378 a 6.2870291,6.2870291 0 0 0 0.15504,-0.64902 1.6134291,1.6134291 0 0 0 0.0267,-0.28893 1.4099646,1.4099646 0 0 0 -0.0365,-0.32147 q -0.0677,-0.29078 -0.37782,-0.52334 a 0.97419582,0.97419582 0 0 0 -0.34872,0.31988 l -0.27147,0.40693 q -0.13546,0.20346 -0.31961,0.33919 a 0.50799999,0.50799999 0 0 1 -0.31009,0.0947 0.84190416,0.84190416 0 0 1 -0.16484,-0.0175 0.55456666,0.55456666 0 0 0 -0.0484,0.21087 0.29421666,0.29421666 0 0 0 0.0484,0.16722 1.5234708,1.5234708 0 0 0 0.23257,0.2712 q 0.13573,0.12594 0.26167,0.26167 0.12594,0.13573 0.0873,0.34872 0.0775,0.0582 0.21299,0.10663 0.13574,0.0484 0.28099,0.0582 a 0.86783332,0.86783332 0 0 0 0.058,0.002 0.80856666,0.80856666 0 0 0 0.22304,-0.031 0.314325,0.314325 0 0 0 0.19394,-0.13573 2.2018625,2.2018625 0 0 1 0.0968,-0.62018 z m -76.739491,6.41456 -0.251883,0.0386 -0.01932,0.0389 a 2.9752395,2.9752395 0 0 0 -0.591079,0.17436 3.063875,3.063875 0 0 1 -0.571765,0.17436 39.297239,39.297239 0 0 0 -0.484452,0.0775 4.5963416,4.5963416 0 0 0 -0.503766,0.11616 1.5610416,1.5610416 0 0 0 -0.426509,0.19394 0.97234374,0.97234374 0 0 1 -0.445558,0.15504 1.5808854,1.5808854 0 0 1 -0.14314,0.006 1.7068271,1.7068271 0 0 1 -0.292893,-0.0259 2.5537583,2.5537583 0 0 1 -0.436034,-0.11615 0.25929166,0.25929166 0 0 0 -0.09684,-0.0193 0.25929166,0.25929166 0 0 0 -0.0971,0.0193 2.5561396,2.5561396 0 0 0 -0.193675,0.0873 1.927225,1.927225 0 0 1 -0.203465,0.0871 q -0.106627,0.0389 -0.222779,0 a 4.0232541,4.0232541 0 0 1 -0.387614,-0.15505 3.8787916,3.8787916 0 0 0 -0.213255,-0.0775 0.67892082,0.67892082 0 0 0 -0.213254,-0.0386 q -0.07726,0 -0.242094,-0.0582 -0.164835,-0.0582 -0.339195,-0.14525 a 2.9728583,2.9728583 0 0 1 -0.319617,-0.18415 0.53339999,0.53339999 0 0 1 -0.18415,-0.17436 q -0.116417,-0.17436 -0.261673,-0.3003 a 0.97260832,0.97260832 0 0 1 -0.242094,-0.3392 0.65431458,0.65431458 0 0 0 -0.08731,-0.11642 0.18388541,0.18388541 0 0 0 -0.106627,-0.0775 q -0.03863,0 -0.05821,-0.0775 -0.01931,-0.0775 -0.03863,-0.18389 a 2.8553833,2.8553833 0 0 1 -0.0291,-0.19394 l -0.0095,-0.0871 a 3.9301208,3.9301208 0 0 1 -0.068,-0.33919 2.1862521,2.1862521 0 0 1 -0.0291,-0.3392 v -0.38761 a 0.69506041,0.69506041 0 0 0 -0.116152,-0.34872 0.1635125,0.1635125 0 0 1 -0.03493,-0.10002 0.200025,0.200025 0 0 1 0.01561,-0.0743 0.75829582,0.75829582 0 0 1 0.09684,-0.17436 0.47386874,0.47386874 0 0 0 0.125941,-0.19394 q 0.0291,-0.0968 0.03863,-0.19368 a 1.5679208,1.5679208 0 0 1 0.0291,-0.18415 0.28707291,0.28707291 0 0 1 0.135731,-0.16483 0.40666458,0.40666458 0 0 0 0.135731,-0.20347 0.52996041,0.52996041 0 0 0 0.02566,-0.15504 0.34528125,0.34528125 0 0 0 -0.0063,-0.0677 q 0,-0.21325 0.213254,-0.33919 a 1.1091333,1.1091333 0 0 0 0.329406,-0.28099 q 0.116152,-0.15505 0.183886,-0.36804 0.068,-0.21325 0.145521,-0.40693 a 0.56118124,0.56118124 0 0 1 0.222779,-0.24235 q 0.164835,-0.10663 0.339196,-0.21326 a 1.7756187,1.7756187 0 0 0 0.329406,-0.26141 0.82153124,0.82153124 0 0 0 0.213254,-0.40693 0.06932083,0.06932083 0 0 0 0.0064,-0.0312 0.24791458,0.24791458 0 0 0 -0.02593,-0.095 0.28495625,0.28495625 0 0 0 -0.09684,-0.12594 q -0.05821,-0.0386 -0.135731,-0.0871 a 0.65907708,0.65907708 0 0 0 -0.135467,-0.068 0.63791041,0.63791041 0 0 1 -0.261673,-0.26141 0.83925832,0.83925832 0 0 0 -0.242358,-0.28099 q -0.155046,-0.11641 -0.348721,-0.19393 a 0.36247916,0.36247916 0 0 1 -0.232568,-0.29052 2.0171833,2.0171833 0 0 0 -0.116153,-0.30056 0.66622082,0.66622082 0 0 1 -0.07752,-0.26141 q 0,-0.15505 -0.01958,-0.28099 a 1.7189979,1.7189979 0 0 1 -0.01931,-0.26167 0.92524791,0.92524791 0 0 1 -0.01111,-0.14076 0.77443541,0.77443541 0 0 1 0.06932,-0.32438 0.54371874,0.54371874 0 0 0 0.04842,-0.22781 0.76411666,0.76411666 0 0 0 -0.04842,-0.25664 172.22364,172.22364 0 0 1 0.145256,-0.71702 2.1119041,2.1119041 0 0 1 0.242359,-0.67813 q 0.03863,-0.0775 0.125941,-0.17462 a 0.58658124,0.58658124 0 0 1 0.164571,-0.13547 q 0.19394,-0.11642 0.290777,-0.32941 0.09684,-0.17462 0.251884,-0.29077 a 0.73051457,0.73051457 0 0 0 0.261673,-0.3392 q 0.106627,-0.24209 0.145256,-0.41672 0.05821,-0.2323 0.271462,-0.30983 a 0.26934583,0.26934583 0 0 0 0.164571,-0.13573 4.4979166,4.4979166 0 0 0 0.08731,-0.18415 4.0145229,4.0145229 0 0 1 0.07752,-0.16457 0.17647708,0.17647708 0 0 1 0.09684,-0.0971 0.11403542,0.11403542 0 0 0 0.09975,-0.0947 0.08810625,0.08810625 0 0 0 -0.0029,-0.0214 q 0.07752,-0.0582 0.232569,-0.0582 0.07752,0 0.271463,-0.10663 a 9.671579,9.671579 0 0 0 0.290512,-0.16457 l 0.155046,-0.11642 a 0.77972707,0.77972707 0 0 0 0.251883,-0.3294 0.62970833,0.62970833 0 0 1 0.271463,-0.31009 q 0.193675,-0.11616 0.368035,-0.22278 a 2.4000354,2.4000354 0 0 0 0.329407,-0.24236 q 0.0971,-0.0773 0.193939,-0.13547 l 0.193675,-0.11641 a 2.1116396,2.1116396 0 0 1 0.600869,-0.28099 q 0.310092,-0.0871 0.639498,-0.18389 a 0.43709166,0.43709166 0 0 0 0.242094,-0.23257 0.47624999,0.47624999 0 0 1 0.377825,-0.23256 q 0.0971,-0.0196 0.174625,-0.0196 h 0.17436 a 0.17436041,0.17436041 0 0 0 0.135731,-0.0677 0.45852291,0.45852291 0 0 0 0.08705,-0.15504 l 0.05821,-0.17436 q 0.02911,-0.0873 0.06773,-0.10663 0.01931,-0.0193 0.0291,-0.0193 0.0098,0 0.0291,-0.0193 a 12.319264,12.319264 0 0 1 0.474663,-0.0873 1.1607271,1.1607271 0 0 0 0.455612,-0.22278 q 0.193675,-0.11642 0.38735,-0.0775 a 0.3286125,0.3286125 0 0 0 0.06482,0.006 0.46513749,0.46513749 0 0 0 0.322792,-0.1614 0.37676666,0.37676666 0 0 1 0.261673,-0.1307 0.27437291,0.27437291 0 0 1 0.08731,0.0143 0.65219791,0.65219791 0 0 0 0.155046,0.0156 2.1926021,2.1926021 0 0 0 0.348721,-0.0349 q 0.348721,-0.0582 0.523081,-0.0968 a 1.2369271,1.2369271 0 0 0 0.300567,0.0386 0.85328124,0.85328124 0 0 1 0.300302,0.0582 q 0.329406,0.13573 0.561975,0.15504 0.09684,0.0193 0.203464,0.0193 0.106627,0 0.203465,0.0196 a 0.84640207,0.84640207 0 0 0 0.18415,0.12594 0.50085624,0.50085624 0 0 1 0.116152,0.0677 0.68527082,0.68527082 0 0 1 0.0971,0.0968 1.4512396,1.4512396 0 0 1 0.125942,0.19394 q 0.01931,0.0386 0.08705,0.10663 a 2.9889979,2.9889979 0 0 0 0.145256,0.13546 0.66701457,0.66701457 0 0 1 0.116417,0.12595 q 0.03863,0.0582 -0.01932,0.0582 a 0.0904875,0.0904875 0 0 0 -0.03096,0.0868 0.43497499,0.43497499 0 0 0 0.0019,0.0392 3.8017979,3.8017979 0 0 0 0.0291,0.23256 2.0984104,2.0984104 0 0 0 0.04842,0.23257 0.68183124,0.68183124 0 0 1 0.0291,0.14526 0.42677291,0.42677291 0 0 1 0.0077,0.0839 0.71516874,0.71516874 0 0 1 -0.01746,0.1487 0.92207291,0.92207291 0 0 1 -0.06773,0.21325 1.1731625,1.1731625 0 0 0 -0.125942,0.48445 q -0.0098,0.25189 -0.106627,0.50377 a 0.79745416,0.79745416 0 0 1 -0.145521,0.27146 q -0.106362,0.13547 -0.16457,0.2712 -0.09684,0.15505 -0.125942,0.32941 a 2.295525,2.295525 0 0 1 -0.08731,0.34872 0.20611041,0.20611041 0 0 0 -0.0095,0.0656 0.37094583,0.37094583 0 0 0 0.0095,0.0799 0.23124583,0.23124583 0 0 1 0.0066,0.0484 0.02989792,0.02989792 0 0 1 -0.02593,0.0386 0.30559375,0.30559375 0 0 1 -0.106627,0.0484 0.16880416,0.16880416 0 0 0 -0.08705,0.0487 0.23547916,0.23547916 0 0 0 -0.02593,0.14208 1.7777354,1.7777354 0 0 0 0.0063,0.13891 1.8854208,1.8854208 0 0 1 0.0066,0.14949 0.84693124,0.84693124 0 0 1 -0.02593,0.22833 1.0189104,1.0189104 0 0 1 -0.155046,0.25189 5.7901416,5.7901416 0 0 0 -0.18415,0.23256 0.95038332,0.95038332 0 0 0 -0.135466,0.25189 0.37570833,0.37570833 0 0 0 -0.02222,0.12726 0.46434374,0.46434374 0 0 0 0.03175,0.16351 0.15451666,0.15451666 0 0 1 0.005,0.0373 0.13546666,0.13546666 0 0 1 -0.04366,0.0982 0.45481874,0.45481874 0 0 1 -0.155045,0.0968 2.3055791,2.3055791 0 0 1 -0.19394,0.068 q -0.09684,0.0291 -0.154781,0.0484 a 0.87418332,0.87418332 0 0 0 -0.18415,0.13573 2.3664333,2.3664333 0 0 0 -0.213254,0.22278 q -0.106628,0.12594 -0.203465,0.24209 -0.09684,0.11642 -0.155046,0.17462 a 0.50112083,0.50112083 0 0 1 -0.319617,0.19368 0.85513332,0.85513332 0 0 0 -0.35851,0.15505 0.85222291,0.85222291 0 0 1 -0.348985,0.15504 0.33416875,0.33416875 0 0 1 -0.06562,0.006 0.40216666,0.40216666 0 0 1 -0.137848,-0.0257 1.1750146,1.1750146 0 0 1 -0.203465,-0.0971 0.84454999,0.84454999 0 0 1 -0.232568,-0.25188 0.43206458,0.43206458 0 0 1 -0.06773,-0.23257 1.2620625,1.2620625 0 0 1 -0.0024,-0.0786 1.5258521,1.5258521 0 0 1 0.0217,-0.25082 16.60181,16.60181 0 0 1 0.05821,-0.32941 1.3792729,1.3792729 0 0 1 0.06773,-0.25188 1.7327562,1.7327562 0 0 0 0.03889,-0.40693 v -0.40693 a 0.28336875,0.28336875 0 0 1 0.05794,-0.17436 q 0.05821,-0.0775 0.135731,-0.16484 a 4.6402624,4.6402624 0 0 0 0.155046,-0.18415 q 0.07752,-0.0968 0.09684,-0.25188 a 0.23045208,0.23045208 0 0 1 0.116416,-0.15505 0.60907083,0.60907083 0 0 1 0.193675,-0.0775 2.9752395,2.9752395 0 0 0 0.232569,-0.0484 q 0.116152,-0.0291 0.213254,-0.12594 0.155046,-0.15505 0.193675,-0.35851 0.03889,-0.20347 0.213254,-0.35851 a 0.74321457,0.74321457 0 0 1 0.358511,-0.20347 0.74321457,0.74321457 0 0 0 0.35851,-0.20346 8.5624457,8.5624457 0 0 0 0.406929,-0.43603 0.72575207,0.72575207 0 0 0 0.176213,-0.49319 1.0048875,1.0048875 0 0 0 -0.0019,-0.059 v -0.19394 a 0.51831874,0.51831874 0 0 1 0.03863,-0.19367 0.53974999,0.53974999 0 0 1 0.03889,-0.11642 1.8777479,1.8777479 0 0 0 0.06773,-0.20346 0.55165624,0.55165624 0 0 0 0.02196,-0.14341 0.32728958,0.32728958 0 0 0 -0.0024,-0.0405 0.07090833,0.07090833 0 0 0 -0.068,-0.0775 0.90672707,0.90672707 0 0 0 -0.35851,-0.22305 q -0.203465,-0.0677 -0.300302,-0.20346 a 0.28336875,0.28336875 0 0 0 -0.135731,-0.0968 q -0.155046,0.0775 -0.164571,0.16484 -0.0098,0.087 -0.106627,0.18388 a 0.2079625,0.2079625 0 0 1 -0.148432,0.0693 0.20452291,0.20452291 0 0 1 -0.06482,-0.0111 0.21881041,0.21881041 0 0 0 -0.0807,-0.013 0.90064166,0.90064166 0 0 0 -0.258234,0.0519 6.6585041,6.6585041 0 0 1 -0.397404,0.11616 0.9300104,0.9300104 0 0 1 -0.223308,0.0309 0.57890833,0.57890833 0 0 1 -0.04789,-0.002 38.197895,38.197895 0 0 0 -0.242358,-0.0193 1.1086042,1.1086042 0 0 0 -0.08493,-0.003 1.2480396,1.2480396 0 0 0 -0.176742,0.013 0.65087499,0.65087499 0 0 0 -0.290512,0.13573 q -0.135732,0.11615 -0.251884,0.25189 -0.116416,0.15504 -0.290777,0.24235 -0.17436,0.0871 -0.310092,0.22278 -0.07752,0.0775 -0.17436,0.0873 a 0.97313749,0.97313749 0 0 1 -0.09684,0.005 0.97313749,0.97313749 0 0 1 -0.0971,-0.005 0.99774374,0.99774374 0 0 0 -0.09922,-0.005 1.1504083,1.1504083 0 0 0 -0.104246,0.005 q -0.106363,0.01 -0.183886,0.10636 a 1.6488833,1.6488833 0 0 1 -0.193939,0.15504 q -0.135467,0.0971 -0.290513,0.18415 l -0.310091,0.17436 a 1.0768542,1.0768542 0 0 1 -0.232569,0.10663 q -0.213254,0.0775 -0.348985,0.25188 a 0.59557708,0.59557708 0 0 1 -0.251884,0.21326 q -0.116152,0.0386 -0.155046,0.0775 a 0.63923333,0.63923333 0 0 1 -0.271198,0.0484 0.64717083,0.64717083 0 0 0 -0.3683,0.12594 0.42015833,0.42015833 0 0 0 -0.116152,0.13573 4.0116124,4.0116124 0 0 1 -0.09684,0.15505 q -0.155046,0.36803 -0.436033,0.6686 a 1.4859,1.4859 0 0 1 -0.668603,0.41646 q -0.155045,0.0389 -0.242358,0.14552 -0.08705,0.10636 -0.145256,0.25188 l -0.116152,0.29051 a 0.96599374,0.96599374 0 0 1 -0.155046,0.26167 l -0.271463,0.27147 q -0.155045,0.15478 -0.222779,0.30982 -0.06773,0.15505 -0.164835,0.34899 -0.09684,0.19367 -0.203465,0.34872 a 6.9926728,6.9926728 0 0 1 -0.242093,0.32941 q -0.07752,0.0775 -0.125942,0.17436 a 2.5561396,2.5561396 0 0 0 -0.08731,0.19394 0.41460208,0.41460208 0 0 0 -0.03096,0.15504 0.38920208,0.38920208 0 0 0 0.0019,0.0386 2.1531791,2.1531791 0 0 1 0.0098,0.21326 q 0,0.48445 0.09684,0.79454 a 0.73739374,0.73739374 0 0 0 0.658813,0.40693 0.73368957,0.73368957 0 0 1 0.378089,0.19367 q 0.164571,0.15505 0.39714,0.15505 0.213254,0 0.406929,0.0971 a 0.2809875,0.2809875 0 0 0 0.06826,0.008 0.52308124,0.52308124 0 0 0 0.125677,-0.0175 q 0.116152,-0.0291 0.17436,-0.10663 0.135467,-0.13573 0.290513,-0.23256 0.155045,-0.0968 0.310091,-0.21299 0.135732,-0.0971 0.348986,-0.0775 a 0.58499374,0.58499374 0 0 0 0.05292,0.002 0.60854166,0.60854166 0 0 0 0.354013,-0.11879 0.38655625,0.38655625 0 0 1 0.232569,-0.0871 0.31855833,0.31855833 0 0 1 0.07752,0.01 1.8663708,1.8663708 0 0 0 0.53287,-0.0775 1.3057187,1.3057187 0 0 1 0.362744,-0.0619 0.66383957,0.66383957 0 0 1 0.07329,0.004 q 0.17436,0.0389 0.222779,0.16484 a 0.77734582,0.77734582 0 0 1 0.04842,0.28099 1.1308292,1.1308292 0 0 1 -0.04842,0.31961 8.4185124,8.4185124 0 0 1 -0.08731,0.28125 0.04630208,0.04630208 0 0 0 -0.0056,0.0204 0.04365625,0.04365625 0 0 0 0.03466,0.0376 q 0.04842,0.0193 0.08731,0.0193 a 0.09419167,0.09419167 0 0 1 0.04842,0.0196 0.022225,0.022225 0 0 1 0.01243,0.0164 0.03148542,0.03148542 0 0 1 -0.02222,0.0222 0.04947708,0.04947708 0 0 1 -0.01931,0.0484 0.104775,0.104775 0 0 0 -0.03863,0.0484 q -0.155045,0.19394 -0.252147,0.27146 a 1.0977562,1.0977562 0 0 1 -0.193675,0.12594 1.927225,1.927225 0 0 1 -0.203465,0.0871 1.0871729,1.0871729 0 0 0 -0.261673,0.15505 6.402652,6.402652 0 0 1 -0.18415,0.10662 q -0.08705,0.0484 -0.183885,0.0873 a 0.40904583,0.40904583 0 0 1 -0.129911,0.0222 0.352425,0.352425 0 0 1 -0.09313,-0.0127 4.205552,4.205552 0 0 1 -0.222779,-0.0677 4.205552,4.205552 0 0 0 -0.222779,-0.0677 0.33946041,0.33946041 0 0 0 -0.08969,-0.0124 0.30400625,0.30400625 0 0 0 -0.113771,0.022 0.56726666,0.56726666 0 0 0 -0.155046,0.0971 1.8280062,1.8280062 0 0 0 -0.135731,0.11615 0.71993124,0.71993124 0 0 1 -0.3683,0.13573 0.27410833,0.27410833 0 0 0 -0.183886,0.0775 q -0.08731,0.0775 -0.125941,0.17436 a 0.32411458,0.32411458 0 0 1 -0.145521,0.13573 1.939925,1.939925 0 0 1 -0.17436,0.0677 0.57837916,0.57837916 0 0 0 -0.164571,0.0873 q -0.07752,0.0579 -0.135732,0.19367 a 1.793875,1.793875 0 0 1 -0.300302,0.52308 q -0.203464,0.25215 -0.436033,0.4072 -0.155046,0.0968 -0.397404,0.21298 -0.242094,0.11642 -0.339196,0.25189 -0.09684,0.15504 -0.07752,0.38761 a 0.79507291,0.79507291 0 0 1 0.0029,0.0661 0.78263749,0.78263749 0 0 1 -0.09975,0.37968 1.3168312,1.3168312 0 0 1 -0.251884,0.3294 q -0.09684,0.0968 -0.106627,0.18415 a 1.6687271,1.6687271 0 0 0 -0.0095,0.18415 1.946275,1.946275 0 0 1 -0.0098,0.19368 q -0.0098,0.0968 -0.106627,0.19367 a 0.17330208,0.17330208 0 0 0 -0.04604,0.11086 0.18203333,0.18203333 0 0 0 0.05583,0.12171 q 0.106627,0.11642 0.164571,0.25188 a 0.85354582,0.85354582 0 0 1 0.03492,0.2466 1.0937875,1.0937875 0 0 1 -0.01535,0.17991 0.20505208,0.20505208 0 0 0 -0.004,0.0402 0.39899166,0.39899166 0 0 0 0.06191,0.19235 q 0.07752,0.13547 0.203465,0.25188 0.125941,0.11616 0.261672,0.19368 a 0.34845625,0.34845625 0 0 0 0.172244,0.0519 0.25029583,0.25029583 0 0 0 0.07964,-0.013 0.16536458,0.16536458 0 0 1 0.06138,-0.013 0.13467291,0.13467291 0 0 1 0.103452,0.0516 1.3559896,1.3559896 0 0 1 0.106627,0.13573 q 0.116152,0.21326 0.300302,0.20347 0.18415,-0.01 0.39714,-0.0677 a 0.52572708,0.52572708 0 0 1 0.103452,-0.0103 0.58525833,0.58525833 0 0 1 0.284162,0.0781 q 0.19394,0.10663 0.40693,0.10663 a 1.2488333,1.2488333 0 0 0 0.155045,-0.01 1.2488333,1.2488333 0 0 1 0.155046,-0.01 0.58790416,0.58790416 0 0 0 0.174361,-0.0196 0.63208958,0.63208958 0 0 0 0.35851,-0.0968 1.2747625,1.2747625 0 0 0 0.261673,-0.23256 0.2905125,0.2905125 0 0 1 0.18415,-0.0871 q 0.106627,-0.01 0.213254,-0.01 0.106363,0 0.21299,-0.01 0.106627,-0.01 0.18415,-0.10663 a 0.21537083,0.21537083 0 0 1 0.164835,-0.0968 0.49609374,0.49609374 0 0 1 0.183886,0.0389 0.314325,0.314325 0 0 0 0.09975,0.0172 0.250825,0.250825 0 0 0 0.113506,-0.027 q 0.09684,-0.0484 0.17436,-0.10663 0.07752,-0.0579 0.174361,-0.10663 a 0.327025,0.327025 0 0 1 0.148431,-0.0344 0.39422916,0.39422916 0 0 1 0.06482,0.006 q 0.251883,0.0386 0.387614,-0.17462 0.116152,-0.17436 0.329407,-0.18389 a 0.66754374,0.66754374 0 0 0 0.387614,-0.14552 q 0.155046,-0.11615 0.271198,-0.2712 a 0.3063875,0.3063875 0 0 1 0.19394,-0.11641 0.47069374,0.47069374 0 0 1 0.07752,-0.006 0.48762708,0.48762708 0 0 1 0.155045,0.0259 0.75062291,0.75062291 0 0 0 0.146315,0.013 1.2109979,1.2109979 0 0 0 0.08625,-0.003 q 0.135467,-0.01 0.21299,-0.0871 a 2.8836937,2.8836937 0 0 0 0.280987,-0.28098 0.79904166,0.79904166 0 0 1 0.339196,-0.22305 18.275564,18.275564 0 0 1 0.348721,-0.15478 q 0.135731,-0.0582 0.290777,-0.27146 a 0.26061458,0.26061458 0 0 1 0.235215,-0.13838 0.45428958,0.45428958 0 0 1 0.133085,0.0222 0.22595416,0.22595416 0 0 0 0.08414,0.0172 0.2032,0.2032 0 0 0 0.09975,-0.027 q 0.08731,-0.0484 0.155046,-0.10663 0.068,-0.0582 0.145521,-0.12594 a 0.37200416,0.37200416 0 0 1 0.17436,-0.0871 0.64108541,0.64108541 0 0 0 0.445559,-0.3683 0.71252291,0.71252291 0 0 0 0.3683,-0.10663 q 0.116152,-0.087 0.271198,-0.087 a 0.44608749,0.44608749 0 0 0 0.174625,-0.0582 q 0.116152,-0.0582 0.232304,-0.13573 0.116417,-0.0775 0.223044,-0.14526 a 0.36618333,0.36618333 0 0 1 0.145256,-0.068 q 0.09684,-0.0193 0.18415,-0.0193 a 0.49609374,0.49609374 0 0 0 0.18415,-0.0386 0.16298333,0.16298333 0 0 1 0.06033,-0.013 0.11509375,0.11509375 0 0 1 0.09472,0.0516 q 0.05794,0.0775 0.09684,0.15504 a 0.0904875,0.0904875 0 0 1 0.0042,0.0288 0.31538333,0.31538333 0 0 1 -0.05265,0.14552 q -0.068,0.11642 -0.17436,0.23257 a 6.8069353,6.8069353 0 0 1 -0.203729,0.21326 0.47042916,0.47042916 0 0 1 -0.154781,0.11615 0.60272083,0.60272083 0 0 0 -0.174625,0.10663 0.42571458,0.42571458 0 0 0 -0.116152,0.16483 q -0.213255,0.61992 -0.872067,0.77497 a 0.26087916,0.26087916 0 0 0 -0.174361,0.0971 2.0420541,2.0420541 0 0 0 -0.116416,0.17436 q -0.05794,0.0968 -0.116152,0.18415 -0.05821,0.0871 -0.155046,0.14525 -0.271198,0.13574 -0.610394,0.14526 a 0.85275207,0.85275207 0 0 0 -0.571764,0.22304 0.9712854,0.9712854 0 0 0 -0.261673,0.37783 0.66489791,0.66489791 0 0 1 -0.280988,0.33893 0.59689999,0.59689999 0 0 1 -0.312473,0.0873 0.69188541,0.69188541 0 0 1 -0.113771,-0.01 0.61647916,0.61647916 0 0 0 -0.101335,-0.008 0.55562499,0.55562499 0 0 0 -0.324908,0.10557 0.48630416,0.48630416 0 0 0 -0.155046,0.13546 0.77099582,0.77099582 0 0 0 -0.116417,0.19394 q -0.05794,0.0775 -0.164571,0.12594 a 0.49186041,0.49186041 0 0 1 -0.203464,0.0484 q -0.232569,-0.0193 -0.445823,0.0775 a 1.8126604,1.8126604 0 0 1 -0.426244,0.13573 z m 12.654227,-10.52275 0.155046,0.13573 a 1.6295687,1.6295687 0 0 0 -0.649288,0.38762 5.8671353,5.8671353 0 0 0 -0.532871,0.59108 24.512058,24.512058 0 0 0 -0.493977,0.64902 q -0.242358,0.32941 -0.513556,0.56198 -0.135731,0.54266 -0.416719,1.00779 a 70.231793,70.231793 0 0 0 -0.552185,0.93001 q -0.155046,0.29078 -0.223044,0.48446 a 7.5149603,7.5149603 0 0 1 -0.18415,0.46513 q -0.03863,0.0968 -0.08705,0.18415 -0.04842,0.0873 -0.08731,0.18415 -0.116152,0.42625 -0.203465,0.83318 a 1.1972396,1.1972396 0 0 1 -0.455348,0.6977 q 0.05821,0.15505 0.106627,0.29078 0.04842,0.13547 0.18415,0.2712 -0.213254,0.11615 -0.242358,0.28099 a 0.72522291,0.72522291 0 0 0 -0.01085,0.1262 0.87338957,0.87338957 0 0 0 0.03016,0.22252 2.1206354,2.1206354 0 0 0 0.135731,0.3683 0.83449582,0.83449582 0 0 1 0.08731,0.35851 0.77390624,0.77390624 0 0 1 0.426244,0.17436 21.298958,21.298958 0 0 0 0.39714,0.31009 2.0497271,2.0497271 0 0 0 0.397404,0.24236 0.37994166,0.37994166 0 0 0 0.157691,0.0341 0.53604583,0.53604583 0 0 0 0.268552,-0.0828 0.81650416,0.81650416 0 0 0 0.198173,0.0259 0.65404999,0.65404999 0 0 0 0.09261,-0.006 3.8650333,3.8650333 0 0 1 0.271197,-0.0291 0.54107291,0.54107291 0 0 1 0.03863,-10e-4 0.52678541,0.52678541 0 0 1 0.223043,0.0497 q 0.125942,0.0582 0.261673,0.23257 a 0.57176458,0.57176458 0 0 1 0.368036,-0.34899 q 0.232568,-0.0579 0.494241,-0.0579 0.261673,0 0.503767,-0.0193 0.242358,-0.0196 0.416719,-0.23257 a 0.57732083,0.57732083 0 0 0 0.354012,0.1614 0.30347708,0.30347708 0 0 0 0.06271,-0.006 0.80883124,0.80883124 0 0 0 0.34872,-0.17463 15.579725,15.579725 0 0 1 0.339196,-0.27119 0.61621458,0.61621458 0 0 1 0.387615,-0.13573 2.238375,2.238375 0 0 0 0.813858,-0.13547 5.4041145,5.4041145 0 0 0 0.678127,-0.31988 21.936868,21.936868 0 0 1 0.668602,-0.35851 2.7318229,2.7318229 0 0 1 0.785019,-0.25189 q 0.193675,-0.29077 0.455348,-0.41671 a 6.8505916,6.8505916 0 0 1 0.542396,-0.23257 q 0.281252,-0.10637 0.54266,-0.2712 a 1.4962187,1.4962187 0 0 0 0.474927,-0.53287 1.1347979,1.1347979 0 0 0 0.05662,0.001 0.80750832,0.80750832 0 0 0 0.09419,-0.003 1.5647458,1.5647458 0 0 1 0.08176,-0.27966 0.48603958,0.48603958 0 0 1 0.271198,-0.24236 q -0.155046,-0.46514 0.04842,-0.68791 0.203464,-0.22278 0.494241,-0.39714 0.290513,-0.17436 0.542661,-0.38762 a 0.60324999,0.60324999 0 0 0 0.204523,-0.4871 1.1292417,1.1292417 0 0 0 -0.01085,-0.1524 q 0.116152,-0.11641 0.271198,-0.19394 a 12.36345,12.36345 0 0 1 0.300566,-0.14525 q 0.145256,-0.0677 0.280988,-0.14526 0.135466,-0.0775 0.251883,-0.21325 a 0.24235833,0.24235833 0 0 1 -0.126735,-0.18071 0.12964583,0.12964583 0 0 1 7.93e-4,-0.013 0.84216874,0.84216874 0 0 1 0.04842,-0.20346 5.2104395,5.2104395 0 0 1 0.08705,-0.22305 0.27305,0.27305 0 0 0 0.02222,-0.10557 0.28151666,0.28151666 0 0 0 -0.03175,-0.127 1.7854083,1.7854083 0 0 0 0.261673,0.0201 1.3231812,1.3231812 0 0 0 0.658812,-0.16536 13.754629,13.754629 0 0 0 0.75565,-0.45535 2.5093083,2.5093083 0 0 1 0.726811,-0.32941 q 0.368035,-0.0968 0.852487,0.23257 0.03889,0.13547 0.126207,0.39714 a 52.159958,52.159958 0 0 1 0.17436,0.53287 43.934856,43.934856 0 0 1 0.164571,0.52335 q 0.07752,0.25188 0.0971,0.3683 v 0.30983 0.45561 0.45535 0.3294 q 0.561975,0.32941 1.12395,0.39714 a 1.6002,1.6002 0 0 0 0.191823,0.0116 1.8293291,1.8293291 0 0 0 0.932127,-0.27305 q 0.212989,0.19368 0.406929,0.10637 a 3.0546145,3.0546145 0 0 0 0.377825,-0.20347 0.77390624,0.77390624 0 0 1 0.377825,-0.12594 0.22172083,0.22172083 0 0 1 0.01111,-2.6e-4 0.51170416,0.51170416 0 0 1 0.376502,0.32014 1.2498917,1.2498917 0 0 1 0.561975,-0.31988 q 0.290777,-0.0677 0.600868,-0.0775 a 6.3068728,6.3068728 0 0 0 0.610394,-0.0484 q 0.300302,-0.0386 0.591079,-0.25188 a 0.77681666,0.77681666 0 0 1 0.02805,0.20002 0.51831874,0.51831874 0 0 1 -0.08625,0.29422 q -0.135731,0.20346 -0.35851,0.35851 -0.22278,0.15504 -0.484453,0.28099 a 1.8803937,1.8803937 0 0 0 -0.436033,0.28098 16.867452,16.867452 0 0 1 -1.579298,0.28099 45.204591,45.204591 0 0 0 -1.559983,0.22278 1.4343062,1.4343062 0 0 1 -0.218281,0.0172 1.2046479,1.2046479 0 0 1 -0.256646,-0.027 1.51765,1.51765 0 0 0 -0.323321,-0.0344 1.5898812,1.5898812 0 0 0 -0.132027,0.006 3.044825,3.044825 0 0 1 -0.251883,-0.01 0.93292082,0.93292082 0 0 0 -0.07752,-0.003 0.94138749,0.94138749 0 0 0 -0.155046,0.013 0.66198749,0.66198749 0 0 0 -0.58129,0.3003 q -0.135731,0.26168 -0.223043,0.60061 a 4.6389395,4.6389395 0 0 1 -0.21299,0.63949 0.75485624,0.75485624 0 0 1 -0.532871,0.41672 0.1825625,0.1825625 0 0 0 -0.01429,0.068 0.15901458,0.15901458 0 0 0 0.04313,0.10636 1.3559896,1.3559896 0 0 1 0.106627,0.13573 q -0.329406,0.0968 -0.436034,0.34873 a 5.2726166,5.2726166 0 0 0 -0.18415,0.50403 1.2152312,1.2152312 0 0 1 -0.222779,0.42624 0.45111458,0.45111458 0 0 1 -0.365125,0.1307 1.3305896,1.3305896 0 0 1 -0.18706,-0.0145 4.8254708,4.8254708 0 0 1 -1.414727,1.0369 q -0.813859,0.39714 -1.685925,0.51356 -0.155046,-0.0775 -0.300302,-0.19394 -0.145521,-0.11615 -0.290777,-0.21299 -0.145257,-0.0971 -0.310092,-0.14552 a 0.69876457,0.69876457 0 0 0 -0.197908,-0.0267 1.0070042,1.0070042 0 0 0 -0.179917,0.0172 2.2246166,2.2246166 0 0 0 -0.164835,-0.75592 q -0.145257,-0.34872 -0.377825,-0.65881 a 1.4615583,1.4615583 0 0 1 -0.009,-0.1614 1.2483042,1.2483042 0 0 1 0.09631,-0.48789 16.343841,16.343841 0 0 1 0.261673,-0.59081 4.0983958,4.0983958 0 0 0 0.160338,-0.39529 4.6426437,4.6426437 0 0 0 -0.315384,0.4146 q -0.17436,-0.0582 -0.300566,0.0386 a 0.94456249,0.94456249 0 0 0 -0.22278,0.25188 q -0.213254,0.0775 -0.436033,0.16484 a 3.230827,3.230827 0 0 0 -0.426244,0.20346 1.9364854,1.9364854 0 0 0 -0.3683,0.2712 0.92207291,0.92207291 0 0 0 -0.242093,0.38762 q -0.3683,0.0193 -0.639498,0.14552 a 9.8723978,9.8723978 0 0 0 -0.523346,0.26141 q -0.251884,0.13573 -0.542661,0.22304 a 1.3575771,1.3575771 0 0 1 -0.390525,0.0521 2.1756687,2.1756687 0 0 1 -0.306916,-0.0233 0.29924375,0.29924375 0 0 1 -0.195527,0.28152 0.10530417,0.10530417 0 0 1 -0.0079,-5.3e-4 0.70749582,0.70749582 0 0 1 -0.261673,-0.0773 q -0.135731,-0.068 -0.271198,-0.0775 a 0.12197292,0.12197292 0 0 0 -0.0087,-5.3e-4 0.29606875,0.29606875 0 0 0 -0.204523,0.28151 4.2272479,4.2272479 0 0 1 -0.280987,-0.01 2.1134916,2.1134916 0 0 0 -0.140494,-0.005 1.7062979,1.7062979 0 0 0 -0.130969,0.005 0.57123541,0.57123541 0 0 0 -0.232304,0.0677 0.38152916,0.38152916 0 0 0 -0.164835,0.21325 q -0.561975,0 -1.182159,0.0775 a 9.912879,9.912879 0 0 1 -1.230577,0.0775 4.7789041,4.7789041 0 0 1 -1.181894,-0.14526 q -0.571764,-0.14552 -1.017587,-0.59108 -0.155046,-0.15504 -0.251883,-0.31009 -0.09684,-0.15505 -0.21299,-0.34899 -0.05821,-0.0968 -0.116416,-0.18388 a 1.9005021,1.9005021 0 0 1 -0.116152,-0.20347 2.0132146,2.0132146 0 0 1 -0.174625,-0.71702 9.3389978,9.3389978 0 0 1 -0.0127,-0.49106 9.3305311,9.3305311 0 0 1 0.0032,-0.24554 q 0.0095,-0.36803 0.0095,-0.72654 a 1.9370146,1.9370146 0 0 0 -0.135467,-0.70723 1.1961812,1.1961812 0 0 1 0.145256,-0.59108 6.1444187,6.1444187 0 0 1 0.319881,-0.51356 q 0.174361,-0.25188 0.329407,-0.51356 0.155046,-0.26167 0.17436,-0.57176 -0.135731,-0.32941 0.01932,-0.6395 0.155046,-0.31009 0.310091,-0.58129 a 2.0185062,2.0185062 0 0 0 0.106627,-0.20346 6.6865499,6.6865499 0 0 1 0.106627,-0.22278 1.2133792,1.2133792 0 0 1 0.155046,-0.23257 q 0.09684,-0.11642 0.17436,-0.21325 a 30.887193,30.887193 0 0 1 0.503767,-0.67813 30.887193,30.887193 0 0 0 0.503767,-0.67839 q 0.174625,-0.23257 0.339196,-0.46514 a 8.9812811,8.9812811 0 0 0 0.319881,-0.48445 3.1167916,3.1167916 0 0 0 0.155046,-0.26168 1.5790333,1.5790333 0 0 1 0.154781,-0.24209 q 0.0971,-0.11642 0.329671,-0.26167 a 11.573139,11.573139 0 0 1 0.368035,-0.22278 3.2482895,3.2482895 0 0 1 0.833438,-0.28099 2.3719896,2.3719896 0 0 1 0.455612,-0.0463 1.9214041,1.9214041 0 0 1 0.377561,0.0365 q 0.387614,0.0775 0.687916,0.35851 0.300302,0.28099 0.397404,0.80434 a 2.6074687,2.6074687 0 0 1 0.03096,0.39687 2.4336375,2.4336375 0 0 1 -0.0021,0.0971 3.014927,3.014927 0 0 0 -0.0024,0.12065 2.8535312,2.8535312 0 0 0 0.02196,0.35428 q 0.0291,0.23257 0.125942,0.43603 a 0.9998604,0.9998604 0 0 0 0.348721,0.37783 4.2719624,4.2719624 0 0 0 -0.358511,0.67812 11.146102,11.146102 0 0 1 -0.319616,0.69771 0.19288125,0.19288125 0 0 1 0.168539,0.18177 0.23706666,0.23706666 0 0 1 -0.004,0.041 1.0789708,1.0789708 0 0 0 -0.01746,0.18733 0.79983541,0.79983541 0 0 0 0.0079,0.11324 q -0.271462,0.21299 -0.3683,0.52308 a 5.2702354,5.2702354 0 0 0 -0.155045,0.62997 q -0.05821,0.31962 -0.145257,0.60061 a 0.88159166,0.88159166 0 0 1 -0.319881,0.45534 1.184275,1.184275 0 0 1 0.02196,0.21776 0.58869791,0.58869791 0 0 1 -0.409575,0.59637 1.0003896,1.0003896 0 0 1 -0.338403,0.0825 0.20716875,0.20716875 0 0 1 -0.12647,-0.0341 q -0.116417,-0.0873 -0.164836,-0.25214 -0.04842,-0.16457 -0.125941,-0.31962 a 0.33152291,0.33152291 0 0 0 -0.329407,-0.15505 10.491787,10.491787 0 0 0 0.06773,-0.47466 3.8438666,3.8438666 0 0 1 0.08731,-0.47493 1.8790708,1.8790708 0 0 1 0.174361,-0.44555 q 0.116152,-0.21326 0.329406,-0.38762 a 0.25003125,0.25003125 0 0 1 -0.142611,-0.22992 0.37703125,0.37703125 0 0 1 0.0069,-0.0704 q 0.03889,-0.20373 0,-0.37809 a 3.983302,3.983302 0 0 1 0.406929,-0.81386 8.8309978,8.8309978 0 0 0 0.484452,-0.86228 2.8355395,2.8355395 0 0 0 0.271462,-0.88185 1.2104687,1.2104687 0 0 0 0.01032,-0.15663 1.3184187,1.3184187 0 0 0 -0.223573,-0.71544 0.59954583,0.59954583 0 0 0 -0.222779,-0.19367 q -0.145256,-0.0775 -0.280988,-0.0775 a 0.31723541,0.31723541 0 0 0 -0.232568,0.0968 0.32887708,0.32887708 0 0 0 -0.0807,0.24236 0.75035832,0.75035832 0 0 0 0.0032,0.0677 z m 7.65466,10.23197 0.426244,-0.29078 a 0.31088541,0.31088541 0 0 1 0.125941,0.11642 0.17065625,0.17065625 0 0 1 0.02699,0.0921 0.22145625,0.22145625 0 0 1 -0.0172,0.0823 q 0.155046,-0.15505 0.348721,-0.24236 a 2.2182666,2.2182666 0 0 1 0.397404,-0.13547 9.1424124,9.1424124 0 0 1 0.406929,-0.0873 2.1510625,2.1510625 0 0 0 0.39714,-0.11615 1.11125,1.11125 0 0 0 0.506677,0.17251 0.3159125,0.3159125 0 0 0 0.191029,-0.0564 q 0.21299,-0.15504 0.348721,-0.46514 0.135731,-0.31009 0.290777,-0.64902 0.155046,-0.33919 0.503767,-0.41672 l -0.135732,-0.13573 a 7.3466853,7.3466853 0 0 0 0.59108,-0.84296 1.7237604,1.7237604 0 0 0 0.243681,-0.90408 2.0825354,2.0825354 0 0 0 -0.0013,-0.0744 q -0.387615,0 -0.668602,-0.18415 a 6.2899395,6.2899395 0 0 1 -0.561975,-0.41672 q -0.280988,-0.23257 -0.58129,-0.43603 a 1.5179146,1.5179146 0 0 0 -0.72681,-0.2421 2.8604104,2.8604104 0 0 1 -0.406929,0.43604 2.8604104,2.8604104 0 0 0 -0.40693,0.43577 1.3985875,1.3985875 0 0 0 -0.242358,0.50403 0.70802499,0.70802499 0 0 0 -0.02064,0.17224 1.11125,1.11125 0 0 0 0.10795,0.44794 1.1308292,1.1308292 0 0 0 -0.600869,0.61039 3.3030583,3.3030583 0 0 0 -0.203465,0.86228 q -0.04842,0.46514 -0.08705,0.93028 -0.03889,0.46487 -0.251883,0.83317 z m 4.883415,-6.12378 a 6.2870291,6.2870291 0 0 0 0.155045,-0.64902 1.6134291,1.6134291 0 0 0 0.02672,-0.28893 1.4099646,1.4099646 0 0 0 -0.03651,-0.32147 q -0.06773,-0.29078 -0.377825,-0.52334 a 0.97419582,0.97419582 0 0 0 -0.348986,0.31988 l -0.271197,0.40693 q -0.135732,0.20346 -0.319617,0.33919 a 0.50799999,0.50799999 0 0 1 -0.310092,0.0947 0.84190416,0.84190416 0 0 1 -0.164835,-0.0175 0.55456666,0.55456666 0 0 0 -0.04842,0.21087 0.29421666,0.29421666 0 0 0 0.04842,0.16722 1.5234708,1.5234708 0 0 0 0.232569,0.2712 q 0.135731,0.12594 0.261672,0.26167 0.125942,0.13573 0.08705,0.34872 0.07752,0.0582 0.213255,0.10663 0.135731,0.0484 0.280987,0.0582 a 0.86783332,0.86783332 0 0 0 0.05768,0.002 0.80856666,0.80856666 0 0 0 0.223309,-0.031 0.314325,0.314325 0 0 0 0.193939,-0.13573 2.2018625,2.2018625 0 0 1 0.09684,-0.62018 z m 17.731316,0.23257 -0.15505,-0.19368 -0.73633,0.58129 a 0.31723541,0.31723541 0 0 0 -0.31009,-0.20346 1.6197791,1.6197791 0 0 0 -0.0675,-0.001 2.2119166,2.2119166 0 0 0 -0.44609,0.0497 q -0.28099,0.0582 -0.56197,0.13573 a 1.4766396,1.4766396 0 0 1 -0.38127,0.0619 0.67124791,0.67124791 0 0 1 -0.0741,-0.004 q -0.0775,0.13546 -0.2421,0.14525 a 1.0895542,1.0895542 0 0 1 -0.064,0.002 0.68712291,0.68712291 0 0 1 -0.21696,-0.0309 1.7750896,1.7750896 0 0 0 -0.36883,-0.0437 1.1181292,1.1181292 0 0 0 -0.1061,0.005 2.6852562,2.6852562 0 0 0 -0.39714,0.0677 l -0.38761,0.0968 a 2.7066875,2.7066875 0 0 1 -0.44583,0.068 0.58896249,0.58896249 0 0 0 -0.28416,-0.0775 0.53789791,0.53789791 0 0 0 -0.14208,0.0193 35.916658,35.916658 0 0 0 -0.41672,0.11615 0.83952291,0.83952291 0 0 1 -0.23019,0.0349 0.60060416,0.60060416 0 0 1 -0.13785,-0.0154 0.52704999,0.52704999 0 0 1 -0.30056,-0.32967 0.24394583,0.24394583 0 0 1 -0.22278,0.13573 q -0.14526,0 -0.28099,-0.0193 a 1.514475,1.514475 0 0 1 -0.003,-0.0945 1.3194771,1.3194771 0 0 1 0.0902,-0.48683 0.55244999,0.55244999 0 0 1 0.47467,-0.32967 11.126787,11.126787 0 0 1 0.41672,-0.0677 11.126787,11.126787 0 0 0 0.41671,-0.0677 q 0.6395,-0.13573 1.36605,-0.31009 0.72681,-0.17436 1.40494,-0.0775 a 2.4587729,2.4587729 0 0 1 0.76543,-0.23256 4.0774937,4.0774937 0 0 1 0.5641,-0.0386 4.3365208,4.3365208 0 0 1 0.28866,0.01 q 0.43603,0.0291 0.85275,0.14552 0.41645,0.11615 0.72654,0.32941 a 2.4696208,2.4696208 0 0 0 -0.15504,0.3294 q -0.0579,0.15505 -0.23257,0.29052 z m 41.974293,-5.94916 0.96891,-1.12395 a 1.0927292,1.0927292 0 0 1 0.3683,0.19368 1.1750146,1.1750146 0 0 1 0.23257,0.27146 5.1456166,5.1456166 0 0 1 0.18388,0.31962 3.921125,3.921125 0 0 0 0.20347,0.33919 q -0.34872,0.13573 -0.38735,0.40693 a 3.1540979,3.1540979 0 0 0 -0.0312,0.44662 3.4665708,3.4665708 0 0 0 0.002,0.11536 3.4438166,3.4438166 0 0 1 0.002,0.11482 2.814902,2.814902 0 0 1 -0.031,0.42784 q -0.0389,0.25188 -0.38762,0.3294 a 2.1455062,2.1455062 0 0 0 -0.33919,-0.43603 23.324079,23.324079 0 0 1 -0.39714,-0.40693 q -0.19394,-0.20346 -0.31009,-0.43603 a 0.89058749,0.89058749 0 0 1 -0.0873,-0.40323 1.3586354,1.3586354 0 0 1 0.01,-0.15875 z"
       id="path1"
       style="font-size:12px;fill:#1d9ecf;fill-rule:nonzero;stroke:#1d9ecf;stroke-width:0.132292;stroke-linecap:round;fill-opacity:1;stroke-opacity:1" />
  </g>
</svg>
